<svg width="44" height="44" viewBox="0 0 44 44" fill="none" xmlns="http://www.w3.org/2000/svg">
<rect x="0.5" y="0.5" width="43" height="43" rx="21.5" fill="white"/>
<rect x="0.5" y="0.5" width="43" height="43" rx="21.5" stroke="#22544E"/>
<g clip-path="url(#clip0_8120_38)">
<path d="M17.212 12.6839C17.1104 12.7425 17.0284 12.8324 16.9815 12.9339C16.919 13.0785 16.9151 13.1214 16.962 13.4457C17.0245 13.8832 16.9932 14.2582 16.8604 14.6527C16.7237 15.0589 16.5401 15.3441 16.2276 15.641C15.9112 15.9378 15.6925 16.0667 15.2471 16.2191C15.0596 16.2855 14.8721 16.3792 14.8096 16.4378C14.5831 16.6566 14.5675 16.973 14.7745 17.2113C14.962 17.4222 15.0753 17.4496 15.505 17.391C15.7159 17.3636 15.9776 17.3519 16.1221 17.3675C17.1378 17.473 17.9542 18.141 18.2706 19.1253C18.3878 19.5003 18.5362 19.6722 18.7784 19.7191C18.962 19.7503 19.2393 19.6449 19.3409 19.5042C19.462 19.3363 19.4776 19.2035 19.4229 18.7972C19.3175 18.0042 19.5596 17.2855 20.1221 16.723C20.4581 16.391 20.7237 16.2269 21.1768 16.0824C21.4112 16.0042 21.5167 15.9457 21.6065 15.848C21.8057 15.6214 21.8135 15.3441 21.626 15.098C21.4815 14.9066 21.3175 14.8714 20.8526 14.93C20.0206 15.0316 19.3096 14.7894 18.7393 14.2113C18.4425 13.9105 18.2237 13.5433 18.1143 13.1527C18.0245 12.848 17.9346 12.7269 17.7432 12.6488C17.5284 12.5628 17.3995 12.5707 17.212 12.6839ZM18.1339 15.266C18.2237 15.3714 18.63 15.6292 18.9346 15.7777L19.2237 15.9144L19.0479 16.1292C18.8448 16.3792 18.5987 16.7894 18.505 17.0316L18.4385 17.1957L18.2979 17.0707C18.0831 16.8871 17.6182 16.5902 17.38 16.4925L17.1651 16.4027L17.376 16.1449C17.4932 16.0042 17.669 15.7191 17.7706 15.5121C17.9659 15.1214 17.9971 15.098 18.1339 15.266Z" fill="#22544E"/>
<path d="M26.8753 12.6679C26.7815 12.7148 26.6956 12.8047 26.6448 12.9062C26.5628 13.0664 26.5628 13.0898 26.6096 13.4492C26.6917 14.0547 26.594 14.5976 26.3128 15.1054C26.0511 15.5781 25.4065 16.0742 24.8401 16.2383C24.3089 16.3906 24.1096 16.8554 24.4221 17.2109C24.6096 17.4219 24.7229 17.4492 25.1526 17.3906C25.9846 17.2773 26.7268 17.5195 27.2932 18.0859C27.5901 18.3828 27.762 18.6679 27.9065 19.1015C28.0315 19.4726 28.1487 19.6289 28.3596 19.6992C28.6136 19.7812 28.9339 19.6406 29.0511 19.3945C29.1136 19.2617 29.1175 19.2109 29.0706 18.8203C28.9729 17.9453 29.2151 17.2383 29.8167 16.6719C30.1292 16.375 30.3948 16.2187 30.8167 16.082C31.0589 16.0039 31.1643 15.9492 31.2542 15.8476C31.4534 15.6211 31.4612 15.3437 31.2737 15.0976C31.1292 14.9062 30.9729 14.8711 30.4729 14.9336C30.1018 14.9765 30.012 14.9726 29.7073 14.914C28.7776 14.7344 28.0276 14.0625 27.7659 13.1797C27.68 12.8828 27.5901 12.75 27.4104 12.664C27.2112 12.5664 27.0628 12.5664 26.8753 12.6679ZM28.1136 15.5078C28.2659 15.6094 28.5003 15.7422 28.6292 15.8047L28.8714 15.9179L28.7229 16.0976C28.5081 16.3515 28.2698 16.7304 28.1682 16.9804L28.0823 17.1914L27.9026 17.0429C27.6487 16.8281 27.2698 16.5898 27.0198 16.4883L26.8089 16.4023L26.93 16.2617C27.1175 16.0508 27.4104 15.5859 27.512 15.3437L27.6018 15.125L27.719 15.2226C27.7854 15.2773 27.9651 15.4062 28.1136 15.5078Z" fill="#22544E"/>
<path d="M23.2308 18.2854C23.0081 18.3908 12.848 28.5627 12.762 28.7658C12.68 28.969 12.6878 29.3635 12.7776 29.5588C12.8909 29.7971 14.3206 31.1955 14.5198 31.2619C14.7425 31.3322 15.0394 31.3205 15.2425 31.2268C15.3792 31.1682 16.5862 29.9807 20.5394 26.0197C26.2034 20.344 25.8245 20.7619 25.7776 20.2815C25.7659 20.133 25.723 19.9885 25.6605 19.8791C25.5042 19.6213 24.2425 18.3869 24.0316 18.2932C23.8011 18.1877 23.4456 18.1877 23.2308 18.2854ZM23.8284 21.0901C23.4339 21.4846 23.098 21.8049 23.0745 21.8049C23.0237 21.8049 22.1956 20.9768 22.1956 20.926C22.1956 20.9065 22.5159 20.5666 22.9066 20.176L23.6214 19.4611L24.0784 19.9182L24.5394 20.3791L23.8284 21.0901ZM21.805 22.2151L22.2542 22.6643L18.5511 26.3674L14.8519 30.0666L14.3948 29.6057L13.9339 29.1486L17.6253 25.4572C19.6566 23.426 21.3245 21.7658 21.3362 21.7658C21.348 21.7658 21.5589 21.969 21.805 22.2151Z" fill="#22544E"/>
<path d="M26.8905 22.1838C26.6874 22.2814 26.5898 22.4533 26.5976 22.6838C26.6366 23.6564 26.6288 23.8478 26.5194 24.1603C26.246 24.9416 25.6171 25.5431 24.8398 25.7697C24.3046 25.926 24.1093 26.383 24.4257 26.7463C24.5898 26.9338 24.7733 26.9806 25.0937 26.926C26.1952 26.7346 27.289 27.2853 27.7616 28.2697C27.8319 28.4181 27.9179 28.6408 27.953 28.7619C28.0273 29.0314 28.2069 29.2072 28.4452 29.2463C28.6679 29.2853 28.9335 29.1486 29.0429 28.9377C29.1171 28.7931 29.121 28.7658 29.0741 28.3791C29.0429 28.1486 29.0351 27.8713 29.0507 27.7306C29.1132 27.1564 29.4023 26.5822 29.8358 26.176C30.121 25.9103 30.4023 25.7463 30.8085 25.6135C31.1601 25.5002 31.3163 25.3752 31.3827 25.1603C31.4413 24.9572 31.3944 24.758 31.246 24.6017C31.0741 24.4221 30.9648 24.4025 30.4804 24.4572C30.039 24.508 29.7226 24.4806 29.3515 24.3596C28.6132 24.1135 27.9804 23.4455 27.7577 22.6838C27.6718 22.383 27.6093 22.2853 27.4257 22.1916C27.246 22.1017 27.0624 22.0978 26.8905 22.1838ZM27.7812 24.7971C27.871 24.9025 28.2773 25.1642 28.5858 25.3088L28.8749 25.4455L28.7499 25.5861C28.5624 25.801 28.2694 26.2658 28.1679 26.508L28.0819 26.7228L27.9413 26.6017C27.7304 26.4142 27.2655 26.1213 27.0233 26.0236L26.8085 25.9338L26.9569 25.7541C27.1718 25.5002 27.4101 25.1213 27.5116 24.8713C27.6015 24.6486 27.6523 24.6369 27.7812 24.7971Z" fill="#22544E"/>
</g>
<defs>
<clipPath id="clip0_8120_38">
<rect width="20" height="20" fill="white" transform="translate(12 12)"/>
</clipPath>
</defs>
</svg>
