<svg width="44" height="44" viewBox="0 0 44 44" fill="none" xmlns="http://www.w3.org/2000/svg">
<rect x="0.5" y="0.5" width="43" height="43" rx="21.5" fill="#E5E1C7" fill-opacity="0.63"/>
<rect x="0.5" y="0.5" width="43" height="43" rx="21.5" stroke="#B2986B"/>
<g clip-path="url(#clip0_3396_80)">
<path d="M21.3555 12.5118C19.9336 12.6602 18.5742 13.3165 17.5547 14.3477C17.0703 14.836 16.7305 15.3047 16.418 15.9063C15.918 16.8751 15.6719 17.9922 15.7227 19.0587L15.7422 19.4962L15.3437 19.7071C13.8477 20.5001 12.7578 21.8047 12.2578 23.4102C12.0508 24.0743 12 24.4415 12 25.2774C12 26.0626 12.0273 26.3126 12.1758 26.8829C12.457 27.9727 12.9531 28.8438 13.7734 29.6915C14.7187 30.668 15.9336 31.2969 17.2852 31.5157C17.7617 31.5938 18.7148 31.6016 19.1758 31.5352C20.0156 31.4141 20.957 31.0626 21.6484 30.6172C21.8008 30.5196 21.9414 30.4376 21.9609 30.4376C21.9805 30.4376 22.1211 30.5196 22.2734 30.6172C22.7852 30.9454 23.4609 31.2344 24.125 31.4102C25.0937 31.6641 26.3789 31.6407 27.375 31.3516C28.8828 30.918 30.2148 29.9063 31.0156 28.5938C31.4609 27.8712 31.75 27.0821 31.8867 26.2383C31.9648 25.7657 31.9531 24.6797 31.8672 24.211C31.6211 22.8672 30.9648 21.6446 29.9961 20.7227C29.5469 20.2969 28.9727 19.8946 28.4805 19.6563L28.3008 19.5704L28.3203 18.9766C28.375 17.2071 27.7266 15.5782 26.4727 14.3243C25.125 12.9766 23.2539 12.3126 21.3555 12.5118ZM22.457 13.6797C24.0859 13.8243 25.4805 14.6797 26.3828 16.086C26.8359 16.793 27.1016 17.6876 27.1445 18.6563L27.168 19.1602L27.0742 19.1368C26.4102 18.9571 25.0391 18.9493 24.3047 19.1212C23.5312 19.3008 22.8516 19.586 22.2422 19.9805L21.9609 20.1641L21.6797 19.9805C21.0703 19.586 20.3906 19.3047 19.6172 19.1212C19.0391 18.9883 17.9414 18.9532 17.3594 19.0508C17.0664 19.0977 16.9414 19.1055 16.9102 19.0743C16.8477 19.0118 16.9414 17.9805 17.0547 17.5313C17.582 15.4532 19.3984 13.8868 21.5039 13.6837C21.9961 13.6368 22.0078 13.6368 22.457 13.6797ZM19.0312 20.2227C19.5508 20.3008 20.0391 20.4493 20.4961 20.6719C21.1016 20.9649 21.0781 20.9219 20.8008 21.2618C20.3437 21.8243 20.0039 22.3985 19.7539 23.0469L19.6445 23.3282L19.4648 23.2227C18.4805 22.6524 17.6367 21.6719 17.25 20.6407C17.1797 20.4532 17.1289 20.2969 17.1328 20.293C17.1367 20.2852 17.2891 20.2579 17.4727 20.2266C17.9062 20.1524 18.5742 20.1524 19.0312 20.2227ZM26.3242 20.2071C26.4922 20.2266 26.6953 20.2657 26.7734 20.2852L26.9219 20.3243L26.8281 20.5665C26.4961 21.4493 25.8633 22.2969 25.1172 22.8594C24.8242 23.0821 24.3125 23.3907 24.2891 23.3633C24.2852 23.3555 24.2383 23.2344 24.1875 23.0938C23.9844 22.5118 23.5859 21.8282 23.1211 21.2618C22.8437 20.9219 22.8203 20.9649 23.4258 20.6719C24.3008 20.2462 25.3633 20.0743 26.3242 20.2071ZM16.1016 20.9532C16.2383 21.3243 16.5508 21.9297 16.7852 22.2852C17.3477 23.1368 18.1289 23.8399 19.0898 24.3633L19.3633 24.5118V25.2969C19.3672 26.1407 19.4141 26.4805 19.6406 27.2071C19.8828 27.9844 20.3672 28.8438 20.8906 29.4219C20.9687 29.5079 21.0195 29.5938 21.0039 29.6172C20.957 29.6915 20.2031 30.0508 19.8398 30.168C18.9844 30.4454 17.9062 30.4805 17.0195 30.2579C15.5781 29.8907 14.3594 28.9063 13.6875 27.5665C13.4766 27.1407 13.3047 26.6251 13.2266 26.1797C13.1484 25.7305 13.1406 24.9024 13.207 24.5001C13.4609 22.9727 14.3594 21.6563 15.6875 20.8594C15.8164 20.7813 15.9453 20.7149 15.9687 20.7149C15.9922 20.711 16.0547 20.8204 16.1016 20.9532ZM28.5625 21.0743C28.9609 21.3438 29.5195 21.8946 29.8125 22.3047C30.0859 22.6837 30.4297 23.3672 30.5508 23.7696C30.7695 24.4922 30.8281 25.4297 30.6953 26.1797C30.3477 28.1446 28.8437 29.7657 26.9023 30.2579C26.4922 30.3633 26.1445 30.4024 25.6523 30.4024C25.0742 30.4024 24.5625 30.3243 24.082 30.168C23.7461 30.0587 23.1211 29.7696 22.957 29.6446C22.8828 29.5899 22.8867 29.5821 23.0273 29.4258C23.5352 28.8633 24.0273 28.004 24.2578 27.2735C24.5 26.5118 24.5859 25.9337 24.5742 25.1563L24.5625 24.5704L24.9141 24.3868C26.3047 23.6524 27.3516 22.4883 27.8984 21.0704L28.0195 20.7501L28.1445 20.8165C28.2148 20.8516 28.4023 20.9688 28.5625 21.0743ZM22.1797 21.9727C22.4492 22.3008 22.6641 22.629 22.8398 22.9766C22.9883 23.2696 23.1836 23.7579 23.1641 23.7774C23.1289 23.8087 22.582 23.879 22.2305 23.8985C21.832 23.9219 21.2539 23.8751 20.918 23.7891L20.7539 23.7501L20.8437 23.5079C20.9687 23.1797 21.1992 22.7305 21.3867 22.4493C21.5547 22.1993 21.9297 21.7305 21.9609 21.7305C21.9727 21.7305 22.0703 21.8399 22.1797 21.9727ZM20.8672 24.9883C21.2812 25.0743 22.2539 25.1055 22.6836 25.0508C22.8789 25.0274 23.1172 24.9962 23.2227 24.9805L23.4062 24.9571V25.2462C23.4062 26.043 23.1992 26.918 22.8437 27.6133C22.7148 27.8712 22.3125 28.461 22.1172 28.6797L21.9609 28.8555L21.8047 28.6797C21.6094 28.461 21.207 27.8712 21.0781 27.6133C20.8164 27.0977 20.625 26.4649 20.5547 25.8672C20.5078 25.4805 20.5039 24.9297 20.5469 24.9297C20.5625 24.9297 20.707 24.9571 20.8672 24.9883Z" fill="#B2986B"/>
<path d="M20.5547 16.7031V18.3672H21.1211H21.6875V17.9375V17.5078H21.8359C21.9805 17.5078 21.9883 17.5156 22.2734 17.9375L22.5586 18.3672H23.1406C23.457 18.3672 23.7188 18.3555 23.7188 18.3359C23.7188 18.3203 23.5664 18.0859 23.3828 17.8203L23.0508 17.332L23.1406 17.2734C23.3477 17.1367 23.4492 17.0234 23.5508 16.8125C23.6445 16.6211 23.6602 16.543 23.6562 16.2695C23.6562 15.9922 23.6367 15.918 23.5352 15.7227C23.4062 15.4687 23.1719 15.2656 22.8711 15.1445C22.707 15.0781 22.5586 15.0664 21.6211 15.0547L20.5547 15.043V16.7031ZM22.4023 15.9844C22.5898 16.1328 22.5781 16.4609 22.375 16.5898C22.3203 16.6289 22.1562 16.6641 21.9844 16.6758L21.6875 16.6992V16.3008V15.9062H21.9961C22.2461 15.9062 22.3203 15.9219 22.4023 15.9844Z" fill="#B2986B"/>
<path d="M15.0078 26.2773V27.9375H16.0742C17.1992 27.9375 17.5078 27.9023 17.8086 27.7461C18.043 27.6289 18.1992 27.4297 18.2461 27.1875C18.3203 26.8125 18.1914 26.5039 17.8711 26.3125L17.6719 26.1953L17.8047 26.0859C18.0664 25.8789 18.1641 25.6016 18.0898 25.3047C18.0078 24.9727 17.7109 24.7383 17.2734 24.6562C17.1602 24.6367 16.6055 24.6172 16.0391 24.6172H15.0078V26.2773ZM16.9023 25.4961C17.0195 25.6094 17.0234 25.6875 16.9258 25.7852C16.8438 25.8672 16.5391 25.9219 16.2773 25.8984L16.1211 25.8867L16.1094 25.6406L16.0977 25.3984H16.4531C16.7773 25.3984 16.8164 25.4062 16.9023 25.4961ZM17.0508 26.6953C17.1563 26.7773 17.1719 26.9336 17.0859 27.043C17.0117 27.1328 16.9805 27.1367 16.5547 27.1484L16.1016 27.1641V26.9062V26.6484H16.543C16.8359 26.6484 17.0078 26.6641 17.0508 26.6953Z" fill="#B2986B"/>
<path d="M27.1297 24.4805C26.6102 24.5937 26.1492 24.9453 25.9383 25.3867C25.6102 26.0742 25.7547 26.9062 26.2859 27.3906C26.6649 27.7383 27.0399 27.8711 27.6258 27.8711C28.0594 27.8711 28.3836 27.7969 28.7899 27.6055L29.0711 27.4727V26.7656V26.0625H28.5828H28.0945V26.4727C28.0945 26.9531 28.0828 26.9648 27.6844 26.9687C27.4813 26.9687 27.3992 26.9492 27.2586 26.8672C26.8289 26.6172 26.7508 25.9102 27.1141 25.5508C27.4149 25.2461 27.9149 25.25 28.3016 25.5586L28.4461 25.6758L28.7977 25.3711L29.1453 25.0664L29.0008 24.918C28.6102 24.5117 27.8289 24.3281 27.1297 24.4805Z" fill="#B2986B"/>
</g>
<defs>
<clipPath id="clip0_3396_80">
<rect width="20" height="20" fill="white" transform="translate(12 12)"/>
</clipPath>
</defs>
</svg>
