<svg width="24" height="24" viewBox="0 0 24 24" fill="none" xmlns="http://www.w3.org/2000/svg">
<path d="M5.99973 2.75024C5.99987 2.60885 5.96004 2.47031 5.88483 2.35058C5.80962 2.23085 5.7021 2.13482 5.57468 2.07356C5.44725 2.0123 5.3051 1.98831 5.16462 2.00436C5.02414 2.0204 4.89106 2.07583 4.78073 2.16424C3.47073 3.21324 2.75773 4.13224 2.38273 4.93224C2.1127 5.4993 1.98142 6.12245 1.99973 6.75024C1.99973 7.69624 2.47673 8.53024 3.20373 9.02524C3.00387 9.19401 2.83295 9.39432 2.69773 9.61824C2.22173 10.3882 1.99973 11.5652 1.99973 13.2552C1.99973 14.9672 2.22973 17.0232 2.60473 18.6652C2.79073 19.4812 3.02173 20.2342 3.29673 20.7992C3.43373 21.0802 3.60073 21.3542 3.80673 21.5692C4.01273 21.7802 4.32973 22.0052 4.74973 22.0052C5.16973 22.0052 5.48673 21.7802 5.69173 21.5692C5.90046 21.3404 6.07249 21.0807 6.20173 20.7992C6.47773 20.2332 6.70873 19.4812 6.89473 18.6642C7.28515 16.887 7.48792 15.0738 7.49973 13.2542C7.49973 11.5642 7.27773 10.3882 6.80173 9.61824C6.66651 9.39432 6.49559 9.19401 6.29573 9.02524C6.66677 8.77302 6.97047 8.43385 7.18033 8.0373C7.39019 7.64076 7.49985 7.1989 7.49973 6.75024C7.49973 5.82324 7.06373 5.17624 6.73173 4.68224L6.70273 4.63924C6.31273 4.05824 5.99973 3.58024 5.99973 2.75024ZM3.49973 6.75024C3.49973 6.45224 3.49973 6.08424 3.74173 5.56924C3.90973 5.20824 4.21073 4.75024 4.75373 4.19824C4.94673 4.71524 5.21673 5.11824 5.44573 5.45824L5.45773 5.47624C5.81473 6.00724 5.99973 6.31124 5.99973 6.75024C5.99973 7.08176 5.86803 7.39971 5.63361 7.63413C5.39919 7.86855 5.08125 8.00024 4.74973 8.00024C4.41821 8.00024 4.10027 7.86855 3.86585 7.63413C3.63143 7.39971 3.49973 7.08176 3.49973 6.75024ZM3.49973 13.2552C3.49973 11.6322 3.72573 10.8082 3.97373 10.4062C4.04918 10.2714 4.16206 10.1613 4.29873 10.0892C4.44052 10.0267 4.59492 9.99792 4.74973 10.0052C4.94973 10.0052 5.09273 10.0362 5.20073 10.0892C5.30073 10.1372 5.41273 10.2242 5.52573 10.4062C5.77373 10.8082 5.99973 11.6322 5.99973 13.2552C5.99973 14.8562 5.78173 16.8002 5.43273 18.3312C5.25673 19.1012 5.05673 19.7262 4.85373 20.1422C4.82147 20.2085 4.78678 20.2735 4.74973 20.3372C4.71268 20.2735 4.67799 20.2085 4.64573 20.1422C4.44273 19.7262 4.24273 19.1002 4.06673 18.3312C3.70212 16.6635 3.51209 14.9623 3.49973 13.2552ZM8.48373 14.0772C8.965 14.2888 9.47662 14.4231 9.99973 14.4752V12.2502C9.99973 11.8234 10.0838 11.4008 10.2471 11.0065C10.4104 10.6122 10.6498 10.2539 10.9516 9.95215C11.2534 9.65036 11.6117 9.41096 12.006 9.24764C12.4003 9.08431 12.8229 9.00024 13.2497 9.00024H15.4747C15.3926 8.18172 15.1098 7.3961 14.6514 6.71305C14.1929 6.02999 13.573 5.4706 12.8467 5.08446C12.1203 4.69833 11.3098 4.49738 10.4872 4.49943C9.66459 4.50149 8.85517 4.70648 8.13073 5.09624C7.97508 4.76792 7.79175 4.45345 7.58273 4.15624L7.53273 4.08224L7.35373 3.81024C8.30637 3.28332 9.3761 3.0041 10.4647 2.99823C11.5534 2.99235 12.6261 3.26 13.5843 3.77662C14.5426 4.29323 15.3558 5.04226 15.9492 5.95496C16.5427 6.86765 16.8973 7.91478 16.9807 9.00024H18.7497C19.1765 9.00024 19.5991 9.08431 19.9935 9.24764C20.3878 9.41096 20.746 9.65036 21.0478 9.95215C21.3496 10.2539 21.589 10.6122 21.7523 11.0065C21.9157 11.4008 21.9997 11.8234 21.9997 12.2502V17.7502C21.9997 18.177 21.9157 18.5997 21.7523 18.994C21.589 19.3883 21.3496 19.7466 21.0478 20.0483C20.746 20.3501 20.3878 20.5895 19.9935 20.7529C19.5991 20.9162 19.1765 21.0002 18.7497 21.0002H13.2497C12.3878 21.0002 11.5611 20.6578 10.9516 20.0483C10.3421 19.4388 9.99973 18.6122 9.99973 17.7502V15.9812C9.44733 15.9391 8.90258 15.8265 8.37873 15.6462C8.42873 15.1162 8.46473 14.5882 8.48373 14.0772ZM18.7497 10.5002H16.9237C16.7111 11.8625 16.0712 13.1219 15.0963 14.0968C14.1214 15.0717 12.8619 15.7116 11.4997 15.9242V17.7502C11.4997 18.7162 12.2837 19.5002 13.2497 19.5002H18.7497C19.2139 19.5002 19.659 19.3159 19.9872 18.9877C20.3154 18.6595 20.4997 18.2144 20.4997 17.7502V12.2502C20.4997 11.7861 20.3154 11.341 19.9872 11.0128C19.659 10.6846 19.2139 10.5002 18.7497 10.5002ZM11.4997 14.4002C12.4601 14.2031 13.3415 13.7285 14.0347 13.0352C14.7279 12.342 15.2026 11.4606 15.3997 10.5002H13.2497C12.7856 10.5002 12.3405 10.6846 12.0123 11.0128C11.6841 11.341 11.4997 11.7861 11.4997 12.2502V14.4002Z" fill="#8E4F24"/>
</svg>
