<svg width="550" height="100" viewBox="0 0 550 100" fill="none" xmlns="http://www.w3.org/2000/svg">
<path d="M32.7402 49.81C32.7402 45.64 33.4102 41.93 34.7602 38.67C36.1102 35.41 37.9902 32.65 40.4202 30.4C42.8502 28.15 45.7502 26.43 49.1302 25.25C52.5102 24.07 56.2102 23.48 60.2302 23.48C64.2502 23.48 68.0202 24.07 71.4102 25.25C74.7902 26.43 77.7002 28.14 80.1202 30.4C82.5502 32.65 84.4302 35.41 85.7802 38.67C87.1302 41.93 87.8002 45.64 87.8002 49.81C87.8002 53.98 87.1302 57.69 85.7802 60.95C84.4302 64.21 82.5502 66.97 80.1202 69.22C77.6902 71.47 74.7902 73.15 71.4102 74.26C68.0302 75.36 64.3002 75.91 60.2302 75.91C56.1602 75.91 52.5102 75.36 49.1302 74.26C45.7502 73.16 42.8402 71.48 40.4202 69.22C37.9902 66.97 36.1102 64.21 34.7602 60.95C33.4102 57.69 32.7402 53.98 32.7402 49.81ZM80.6002 49.81C80.6002 45.74 80.0902 42.23 79.0602 39.26C78.0302 36.29 76.6002 33.84 74.7602 31.91C72.9202 29.97 70.7602 28.54 68.2902 27.61C65.8102 26.68 63.1302 26.21 60.2402 26.21C57.3502 26.21 54.7402 26.68 52.2602 27.61C49.7802 28.54 47.6302 29.98 45.7902 31.91C43.9502 33.85 42.5202 36.3 41.4902 39.26C40.4602 42.23 39.9502 45.74 39.9502 49.81C39.9502 53.88 40.4602 57.39 41.4902 60.36C42.5202 63.33 43.9502 65.78 45.7902 67.71C47.6302 69.65 49.7802 71.08 52.2602 72.01C54.7302 72.94 57.3902 73.41 60.2402 73.41C63.0902 73.41 65.8202 72.94 68.2902 72.01C70.7602 71.08 72.9202 69.64 74.7602 67.71C76.6002 65.78 78.0302 63.32 79.0602 60.36C80.0902 57.39 80.6002 53.88 80.6002 49.81Z" fill="#22544E"/>
<path d="M118.54 55.88C112.17 49.04 105.8 42.24 99.4298 35.48C99.3798 36.85 99.3298 38.69 99.2798 40.99C99.2298 43.29 99.2098 46.43 99.2098 50.4C99.2098 51.43 99.2198 52.71 99.2498 54.22C99.2698 55.74 99.2998 57.33 99.3198 59C99.3398 60.67 99.3798 62.36 99.4298 64.07C99.4798 65.79 99.5298 67.38 99.5798 68.85C99.6298 70.32 99.6799 71.61 99.7299 72.71C99.7799 73.81 99.8298 74.56 99.8798 74.95C99.0998 74.85 98.2398 74.8 97.3098 74.8C96.3298 74.8 95.4198 74.85 94.5898 74.95C94.6898 74.46 94.7998 73.55 94.9198 72.23C95.0398 70.91 95.1498 69.33 95.2498 67.49C95.3498 65.65 95.4598 63.66 95.5798 61.5C95.6998 59.34 95.7999 57.19 95.8699 55.03C95.9399 52.87 96.0099 50.77 96.0499 48.71C96.0899 46.65 96.1199 44.81 96.1199 43.2C96.1199 38.49 96.1098 34.45 96.0798 31.07C96.0598 27.69 95.9898 25.16 95.8998 23.5H97.0798C100.07 26.74 103.27 30.2 106.67 33.9C110.07 37.6 113.46 41.25 116.82 44.85C120.18 48.45 123.36 51.86 126.38 55.07C129.39 58.28 132.03 61.01 134.28 63.27V53.27C134.28 48.12 134.24 43.11 134.17 38.23C134.1 33.35 133.94 28.76 133.69 24.45C134.67 24.7 135.5 24.82 136.19 24.82C136.78 24.82 137.56 24.7 138.54 24.45C138.44 25.53 138.33 27.15 138.21 29.3C138.09 31.46 137.96 33.76 137.84 36.21C137.72 38.66 137.61 41.06 137.51 43.42C137.41 45.77 137.36 47.66 137.36 49.08V53.49C137.36 55.16 137.37 56.9 137.4 58.71C137.42 60.52 137.45 62.35 137.47 64.19C137.49 66.03 137.52 67.74 137.54 69.34C137.56 70.93 137.58 72.32 137.58 73.5V75.93H136.55C130.91 69.41 124.91 62.73 118.54 55.9V55.88Z" fill="#22544E"/>
<path d="M185.331 73.23C184.371 73.7 183.221 74.11 181.871 74.48C180.521 74.85 179.011 75.18 177.351 75.47C175.681 75.76 173.941 75.91 172.131 75.91C168.261 75.91 164.681 75.36 161.401 74.26C158.121 73.16 155.291 71.48 152.911 69.22C150.531 66.97 148.671 64.21 147.321 60.95C145.971 57.69 145.301 53.98 145.301 49.81C145.301 45.64 145.971 41.93 147.321 38.67C148.671 35.41 150.551 32.65 152.981 30.4C155.411 28.15 158.311 26.43 161.691 25.25C165.071 24.07 168.801 23.48 172.871 23.48C176.111 23.48 179.061 23.81 181.731 24.47C184.401 25.13 186.771 25.93 188.821 26.86C188.431 27.55 188.111 28.48 187.861 29.65C187.611 30.83 187.421 31.81 187.271 32.59L186.831 32.74C186.341 32.15 185.651 31.49 184.771 30.76C183.891 30.02 182.861 29.32 181.681 28.63C180.501 27.94 179.181 27.37 177.711 26.9C176.241 26.43 174.621 26.2 172.861 26.2C169.971 26.2 167.281 26.67 164.811 27.6C162.331 28.53 160.181 29.97 158.341 31.9C156.501 33.84 155.071 36.29 154.041 39.25C153.011 42.22 152.501 45.73 152.501 49.8C152.501 53.87 153.011 57.38 154.041 60.35C155.071 63.32 156.501 65.77 158.341 67.7C160.181 69.63 162.331 71.07 164.811 72C167.281 72.93 169.971 73.4 172.861 73.4C174.621 73.4 176.251 73.18 177.751 72.74C179.251 72.3 180.621 71.77 181.871 71.16C183.121 70.55 184.251 69.89 185.251 69.18C186.251 68.47 187.101 67.84 187.791 67.3L188.081 67.59L187.421 71.93C186.981 72.32 186.281 72.75 185.321 73.21L185.331 73.23Z" fill="#22544E"/>
<path d="M195.33 33.8602C195.21 30.7302 195.07 27.5902 194.92 24.4502C197.13 24.5502 199.32 24.6302 201.5 24.7102C203.68 24.7802 205.87 24.8202 208.08 24.8202C210.29 24.8202 212.47 24.7802 214.62 24.7102C216.78 24.6402 218.96 24.5502 221.16 24.4502C221.01 25.1902 220.94 25.9202 220.94 26.6602C220.94 27.4002 221.01 28.1302 221.16 28.8602C219.59 28.7602 218.16 28.6702 216.86 28.5702C215.56 28.4702 214.19 28.3702 212.74 28.2802C211.29 28.1802 209.71 28.1002 208 28.0202C206.28 27.9402 204.22 27.9102 201.82 27.9102C201.77 29.4802 201.71 30.9702 201.64 32.4002C201.57 33.8202 201.53 35.4402 201.53 37.2502C201.53 39.1602 201.54 41.0202 201.57 42.8402C201.59 44.6502 201.61 46.0302 201.61 46.9602C203.77 46.9602 205.7 46.9402 207.42 46.8902C209.13 46.8402 210.7 46.7802 212.12 46.7102C213.54 46.6402 214.85 46.5602 216.05 46.4902C217.25 46.4102 218.39 46.3302 219.47 46.2302C219.32 46.9602 219.25 47.7302 219.25 48.5102C219.25 49.2502 219.32 49.9802 219.47 50.7202C218.2 50.5702 216.71 50.4502 215.02 50.3502C213.33 50.2502 211.64 50.1902 209.95 50.1702C208.26 50.1502 206.67 50.1202 205.17 50.1002C203.67 50.0802 202.49 50.0602 201.6 50.0602C201.6 50.5002 201.59 50.9802 201.56 51.5002C201.53 52.0102 201.52 52.6702 201.52 53.4502V60.7302C201.52 63.5302 201.53 65.8302 201.56 67.6402C201.58 69.4502 201.62 70.8302 201.67 71.7602H206.82C208.68 71.7602 210.51 71.7202 212.3 71.6502C214.09 71.5802 215.78 71.4802 217.37 71.3602C218.96 71.2402 220.35 71.0502 221.52 70.8102C221.42 71.1602 221.36 71.5302 221.34 71.9502C221.31 72.3702 221.3 72.7502 221.3 73.0902C221.3 73.8802 221.37 74.5102 221.52 75.0002C219.31 74.9002 217.12 74.8502 214.94 74.8502H201.6C199.39 74.8502 197.16 74.9002 194.91 75.0002C195.06 71.8702 195.19 68.7402 195.32 65.6302C195.44 62.5202 195.5 59.3502 195.5 56.1102V43.4602C195.5 40.2302 195.44 37.0402 195.32 33.9002L195.33 33.8602Z" fill="#22544E"/>
<path d="M258.33 75.7401C257.41 75.7401 256.7 75.4801 256.23 74.9601C255.76 74.4501 255.53 73.6801 255.53 72.6801C255.53 71.6801 255.81 70.1101 256.38 68.1201C253.57 73.1801 250.74 75.7401 247.96 75.7401C246.79 75.7401 245.86 75.3701 245.19 74.6401C244.52 73.9201 244.18 73.0001 244.18 71.9301C244.18 70.8601 244.57 69.2301 245.39 66.8401L248.66 57.3001C249.24 55.5701 249.37 54.9901 249.37 54.8101C249.37 54.4601 249.23 54.3101 248.87 54.3101C247.84 54.3101 246.67 55.7801 245.38 58.6901L243.93 58.8101H243.65L243.75 58.5501C244.47 56.6701 245.42 55.1201 246.58 53.9301C247.77 52.7201 248.96 52.1001 250.12 52.1001C250.86 52.1001 251.49 52.3301 252.02 52.8001C252.55 53.2701 252.82 53.9801 252.82 54.9001C252.82 55.5501 252.51 56.7801 251.88 58.6801L248.53 68.5101C247.9 70.3901 247.58 71.6401 247.58 72.2201C247.58 72.7201 247.69 73.1001 247.9 73.3401C248.11 73.5801 248.42 73.7001 248.84 73.7001C250.32 73.7001 252.14 72.0601 254.23 68.8201C256.35 65.5401 258.42 60.5801 260.37 54.0901L260.86 52.4401H264.45L259.72 67.9401C258.98 70.3901 258.61 71.8801 258.61 72.3801C258.61 72.7801 258.69 73.0701 258.83 73.2601C258.97 73.4301 259.18 73.5201 259.48 73.5201C260.73 73.5201 261.96 72.0801 263.13 69.2501L264.42 69.1301H264.7L264.61 69.3901C263.08 73.6001 260.96 75.7401 258.31 75.7401H258.33Z" fill="#22544E"/>
<path d="M263.329 69.33H264.449C262.939 73.48 260.909 75.55 258.339 75.55C257.469 75.55 256.819 75.31 256.389 74.83C255.959 74.35 255.739 73.63 255.739 72.68C255.739 71.33 256.219 69.18 257.179 66.22C254.079 72.44 251.009 75.55 247.979 75.55C246.859 75.55 245.989 75.2001 245.349 74.5101C244.709 73.8201 244.389 72.96 244.389 71.93C244.389 70.9 244.789 69.25 245.589 66.91L248.859 57.37C249.339 55.95 249.579 55.1001 249.579 54.8201C249.579 54.3601 249.349 54.1301 248.889 54.1301C247.769 54.1301 246.549 55.63 245.219 58.62H243.939C244.649 56.76 245.579 55.24 246.729 54.06C247.879 52.88 249.019 52.29 250.129 52.29C250.819 52.29 251.409 52.51 251.899 52.94C252.389 53.37 252.629 54.03 252.629 54.89C252.629 55.51 252.319 56.75 251.699 58.61L248.349 68.44C247.709 70.35 247.389 71.61 247.389 72.21C247.389 72.76 247.509 73.18 247.759 73.46C248.009 73.74 248.369 73.8901 248.849 73.8901C250.409 73.8901 252.259 72.2301 254.409 68.9201C256.549 65.6101 258.609 60.68 260.579 54.14L261.029 52.62H264.219L259.569 67.8801C258.829 70.3601 258.449 71.86 258.449 72.37C258.449 72.81 258.539 73.15 258.719 73.37C258.899 73.59 259.159 73.7001 259.519 73.7001C260.869 73.7001 262.139 72.24 263.349 69.31L263.329 69.33Z" fill="#22544E"/>
<path d="M258.151 87.9202L258.651 86.3702H259.381C261.361 86.3702 261.911 86.1902 262.061 86.0902C262.211 85.9802 262.581 85.4302 263.371 82.8702L268.901 64.6102C269.861 61.4702 270.961 58.2402 272.171 54.9802C272.081 55.1402 271.981 55.3102 271.881 55.4902L266.511 63.9802L265.121 64.0702H264.771L269.981 55.7202C271.441 53.4002 272.411 51.7302 272.871 50.7702C273.321 49.8102 273.861 48.3302 274.451 46.3802L274.861 44.9702H278.451L276.571 51.1702L274.761 56.2502C276.931 53.5002 279.021 52.1102 281.011 52.1102C282.381 52.1102 283.561 52.7502 284.511 54.0102C285.451 55.2502 285.931 56.8302 285.931 58.6902C285.931 60.8502 285.371 63.3502 284.271 66.1202C283.161 68.9002 281.581 71.2202 279.551 73.0202C277.511 74.8302 275.441 75.7502 273.401 75.7502C271.611 75.7502 270.391 74.9802 269.771 73.4702L266.831 83.1802C266.351 84.7402 266.251 85.2802 266.251 85.4602C266.251 85.7002 266.351 85.9102 266.571 86.0802C266.691 86.1802 267.131 86.3502 268.691 86.3502H270.151L269.651 87.9002H258.141L258.151 87.9202ZM280.531 53.8402C279.631 53.8402 278.391 54.5302 276.841 55.8902C275.291 57.2602 273.831 60.1502 272.501 64.5002L271.441 67.9802C270.971 69.5302 270.731 70.6602 270.731 71.3302C270.731 72.1502 270.961 72.8502 271.411 73.4202C271.851 73.9802 272.471 74.2502 273.281 74.2502C274.511 74.2502 275.801 73.5202 277.111 72.0902C278.441 70.6402 279.681 68.1802 280.791 64.7702C281.901 61.3602 282.471 58.7602 282.471 57.0602C282.471 55.9702 282.301 55.1402 281.971 54.6102C281.651 54.1002 281.181 53.8502 280.541 53.8502L280.531 53.8402Z" fill="#22544E"/>
<path d="M266.33 63.8599H265.11L270.13 55.8099C271.6 53.4699 272.57 51.8099 273.03 50.8399C273.49 49.8699 274.02 48.3899 274.62 46.4299L274.99 45.1499H278.18L276.37 51.0999L274.14 57.3699C276.55 53.9899 278.84 52.2899 281 52.2899C282.31 52.2899 283.43 52.8999 284.35 54.1099C285.27 55.3199 285.73 56.8399 285.73 58.6699C285.73 60.8099 285.18 63.2699 284.08 66.0299C282.98 68.7899 281.43 71.0699 279.42 72.8599C277.41 74.6499 275.4 75.5399 273.4 75.5399C271.4 75.5399 270.27 74.6399 269.76 72.8299L266.65 83.1199C266.26 84.3999 266.07 85.1799 266.07 85.4599C266.07 85.7599 266.2 86.0199 266.46 86.2299C266.72 86.4399 267.47 86.5499 268.71 86.5499H269.91L269.54 87.7199H258.43L258.8 86.5499H259.38C260.94 86.5499 261.87 86.4399 262.17 86.2299C262.47 86.0199 262.93 84.9099 263.55 82.9099L269.08 64.6499C270.25 60.8399 271.6 56.9499 273.12 52.9799C272.94 53.2299 272.47 54.0299 271.71 55.3699C271.62 55.5099 271.34 55.9599 270.86 56.7299L266.34 63.8499L266.33 63.8599ZM271.25 67.9199C270.77 69.4999 270.53 70.6299 270.53 71.3199C270.53 72.1899 270.77 72.9199 271.25 73.5299C271.73 74.1299 272.4 74.4299 273.27 74.4299C274.56 74.4299 275.89 73.6899 277.24 72.2099C278.6 70.7299 279.84 68.2699 280.96 64.8199C282.09 61.3699 282.65 58.7799 282.65 57.0499C282.65 55.9199 282.47 55.0699 282.12 54.4999C281.77 53.9299 281.23 53.6499 280.53 53.6499C279.57 53.6499 278.3 54.3499 276.72 55.7499C275.13 57.1499 273.67 60.0499 272.32 64.4399L271.26 67.9199H271.25Z" fill="#22544E"/>
<path d="M293.15 75.6102C291.63 75.6102 290.28 75.0202 289.15 73.8502C288.01 72.6802 287.43 70.6502 287.43 67.8102C287.43 65.6702 287.94 63.3102 288.93 60.7902C289.93 58.2602 291.38 56.1902 293.24 54.6102C295.11 53.0302 296.96 52.2202 298.73 52.2202C300.36 52.2202 301.72 52.9202 302.78 54.3002C303.82 55.6702 304.35 57.5302 304.35 59.8502C304.35 62.6302 303.77 65.3002 302.63 67.8002C301.49 70.3002 300.03 72.2402 298.31 73.5702C296.57 74.9102 294.84 75.5902 293.16 75.5902L293.15 75.6102ZM298.6 53.7902C296.48 53.7902 294.62 55.8502 293.05 59.9302C291.46 64.0602 290.66 67.7402 290.66 70.8802C290.66 71.7902 290.9 72.5702 291.37 73.2102C291.83 73.8402 292.45 74.1402 293.26 74.1402C295.53 74.1402 297.44 71.9102 298.94 67.5202C300.46 63.0602 301.23 59.6102 301.23 57.2702C301.23 56.1002 301.01 55.2102 300.57 54.6402C300.14 54.0702 299.49 53.8002 298.61 53.8002L298.6 53.7902Z" fill="#22544E"/>
<path d="M287.631 67.8202C287.631 65.6902 288.131 63.3802 289.121 60.8702C290.111 58.3602 291.531 56.3302 293.371 54.7702C295.211 53.2102 297.001 52.4302 298.741 52.4302C300.321 52.4302 301.621 53.1002 302.631 54.4402C303.651 55.7802 304.161 57.5902 304.161 59.8802C304.161 62.6402 303.591 65.2702 302.461 67.7502C301.331 70.2302 299.901 72.1302 298.191 73.4502C296.481 74.7702 294.801 75.4302 293.151 75.4302C291.681 75.4302 290.391 74.8602 289.281 73.7302C288.171 72.6002 287.621 70.6302 287.621 67.8302L287.631 67.8202ZM290.471 70.8702C290.471 71.8302 290.721 72.6402 291.211 73.3202C291.711 73.9902 292.391 74.3302 293.261 74.3302C295.631 74.3302 297.591 72.0802 299.121 67.5802C300.651 63.0802 301.421 59.6402 301.421 57.2702C301.421 56.0502 301.191 55.1302 300.721 54.5202C300.251 53.9102 299.551 53.6002 298.611 53.6002C296.401 53.6002 294.491 55.6902 292.881 59.8602C291.281 64.0302 290.471 67.7102 290.471 70.8802V70.8702Z" fill="#22544E"/>
<path d="M320.37 75.7398C319.53 75.7398 318.8 75.4798 318.19 74.9598C317.57 74.4398 317.26 73.6598 317.26 72.6498C317.26 71.8198 317.66 70.2598 318.49 67.8598L321.33 59.7498C322.08 57.5698 322.46 56.1398 322.46 55.5098C322.46 54.9798 322.35 54.5798 322.12 54.3398C321.9 54.0998 321.55 53.9798 321.08 53.9798C319.81 53.9798 318.09 55.5499 315.96 58.6399C313.81 61.7699 311.94 65.9399 310.39 71.0099L309.05 75.3998H305.4L310.16 60.0498C311.21 56.6298 311.43 55.5899 311.43 55.3199C311.43 55.0499 311.39 54.8799 311.31 54.7699C311.24 54.6799 311.13 54.6299 310.96 54.6299C309.99 54.6299 308.8 55.8999 307.41 58.4099L306.02 58.5099H305.69L305.85 58.2198C308.12 54.0898 310.24 52.0898 312.32 52.0898C313.07 52.0898 313.64 52.3198 314.02 52.7798C314.39 53.2298 314.58 53.9099 314.58 54.7999C314.58 55.9399 314.25 57.5399 313.6 59.5999C316.43 54.6099 319.24 52.0898 321.96 52.0898C322.98 52.0898 323.88 52.4298 324.64 53.1098C325.41 53.7898 325.79 54.7898 325.79 56.0798C325.79 56.9098 325.43 58.3898 324.69 60.6098L321.85 69.0898C320.86 72.0498 320.72 72.7198 320.72 72.8598C320.72 73.1398 320.79 73.3499 320.92 73.4799C321.05 73.6099 321.25 73.6798 321.51 73.6798C322.06 73.6798 322.66 73.3498 323.32 72.7098C324 72.0398 324.73 71.0298 325.5 69.7098L327.02 69.6098H327.35L327.19 69.8998C326.12 71.8198 325.01 73.2899 323.89 74.2599C322.75 75.2399 321.57 75.7398 320.37 75.7398Z" fill="#22544E"/>
<path d="M325.66 69.81H327.02C325.96 71.72 324.87 73.16 323.76 74.12C322.65 75.08 321.52 75.56 320.37 75.56C319.57 75.56 318.89 75.32 318.31 74.83C317.73 74.34 317.45 73.62 317.45 72.66C317.45 71.86 317.86 70.29 318.67 67.93L321.51 59.8201C322.27 57.6101 322.65 56.17 322.65 55.51C322.65 54.93 322.52 54.4901 322.26 54.2101C322 53.9301 321.61 53.78 321.08 53.78C319.73 53.78 317.97 55.36 315.8 58.52C313.63 61.68 311.76 65.8301 310.2 70.9501L308.9 75.2001H305.66L310.34 60.1001C311.19 57.3201 311.62 55.7201 311.62 55.3201C311.62 55.0201 311.57 54.8 311.46 54.66C311.35 54.52 311.19 54.45 310.95 54.45C309.9 54.45 308.66 55.74 307.23 58.33H306.01C308.22 54.31 310.32 52.3 312.31 52.3C313 52.3 313.52 52.51 313.86 52.92C314.21 53.34 314.38 53.9701 314.38 54.8201C314.38 56.3401 313.79 58.7001 312.6 61.8901C315.81 55.4901 318.93 52.29 321.96 52.29C322.93 52.29 323.79 52.61 324.51 53.26C325.24 53.91 325.6 54.85 325.6 56.09C325.6 56.89 325.24 58.38 324.51 60.56L321.67 69.0401C320.91 71.3301 320.53 72.6 320.53 72.87C320.53 73.21 320.61 73.4601 320.78 73.6301C320.95 73.8001 321.19 73.8801 321.51 73.8801C322.11 73.8801 322.76 73.54 323.45 72.86C324.14 72.18 324.88 71.1601 325.66 69.8201V69.81Z" fill="#22544E"/>
<path d="M355.09 75.7401C354.2 75.7401 353.5 75.4001 353.02 74.7301C352.55 74.0801 352.32 73.2701 352.32 72.3301C352.32 71.8501 352.4 71.2701 352.55 70.6001C351.81 71.6401 350.86 72.6701 349.71 73.6801C348.16 75.0401 346.69 75.7401 345.32 75.7401C344.03 75.7401 342.9 75.1901 341.97 74.0901C341.05 73.0001 340.58 71.5301 340.58 69.7001C340.58 67.2701 341.28 64.6301 342.67 61.8701C344.06 59.1001 345.9 56.7601 348.13 54.9101C350.38 53.0501 352.34 52.1001 353.96 52.1001C354.92 52.1001 355.7 52.3401 356.27 52.8101C356.7 53.1601 357.02 53.6401 357.23 54.2401L357.74 52.5001H361.33L356.52 68.3201C355.84 70.5401 355.49 71.9001 355.49 72.3601C355.49 72.6701 355.55 72.9001 355.68 73.0401C355.8 73.1801 355.99 73.2501 356.25 73.2501C357.39 73.2501 358.76 71.8701 360.31 69.1501L361.59 69.0501H361.88L361.76 69.3201C361.06 70.9301 360.05 72.4101 358.76 73.7201C357.44 75.0601 356.2 75.7301 355.07 75.7301L355.09 75.7401ZM354.18 53.8401C352.1 53.8401 349.9 55.9601 347.63 60.1501C345.33 64.3701 344.17 67.8501 344.17 70.5001C344.17 71.6301 344.34 72.4801 344.68 73.0501C345 73.5901 345.47 73.8501 346.11 73.8501C347.22 73.8501 348.59 73.0001 350.18 71.3301C351.79 69.6401 353.21 67.0101 354.4 63.5101C355.59 60.0001 356.2 57.5901 356.2 56.3401C356.2 55.6401 356.02 55.0401 355.67 54.5501C355.32 54.0801 354.84 53.8501 354.19 53.8501L354.18 53.8401Z" fill="#22544E"/>
<path d="M357.879 52.69H361.069L356.339 68.27C355.649 70.52 355.299 71.88 355.299 72.36C355.299 72.71 355.379 72.9801 355.539 73.1701C355.699 73.3601 355.939 73.4501 356.259 73.4501C357.479 73.4501 358.889 72.05 360.489 69.25H361.609C360.919 70.84 359.929 72.2901 358.649 73.6001C357.369 74.9001 356.179 75.55 355.099 75.55C354.269 75.55 353.629 75.24 353.189 74.62C352.749 74 352.529 73.24 352.529 72.33C352.529 71.6 352.709 70.66 353.059 69.49C352.259 70.85 351.109 72.2101 349.589 73.5401C348.069 74.8801 346.649 75.55 345.319 75.55C344.079 75.55 343.009 75.02 342.119 73.97C341.229 72.92 340.779 71.4901 340.779 69.7001C340.779 67.2901 341.469 64.7101 342.849 61.9501C344.229 59.1901 346.039 56.9 348.259 55.05C350.479 53.21 352.379 52.29 353.959 52.29C354.879 52.29 355.609 52.51 356.149 52.95C356.689 53.39 357.049 54.06 357.229 54.94L357.889 52.68L357.879 52.69ZM343.979 70.5C343.979 71.67 344.159 72.5501 344.509 73.1401C344.859 73.7301 345.399 74.03 346.099 74.03C347.269 74.03 348.669 73.1701 350.309 71.4501C351.949 69.7301 353.369 67.1 354.579 63.56C355.789 60.02 356.389 57.61 356.389 56.33C356.389 55.59 356.199 54.95 355.819 54.43C355.439 53.91 354.889 53.65 354.189 53.65C352.029 53.65 349.789 55.79 347.469 60.06C345.149 64.33 343.989 67.8101 343.989 70.5101L343.979 70.5Z" fill="#22544E"/>
<path d="M383.38 28.27C382.1 28.27 380.77 28.28 379.37 28.31C377.97 28.34 376.58 28.39 375.18 28.46C373.78 28.53 372.43 28.62 371.14 28.72C369.84 28.82 368.68 28.94 367.65 29.09C367.89 28.21 368.02 27.42 368.02 26.74C368.02 26.2 367.9 25.44 367.65 24.46C370.88 24.56 374.04 24.64 377.13 24.72C380.22 24.79 383.38 24.83 386.61 24.83C389.84 24.83 393.01 24.79 396.09 24.72C399.18 24.65 402.34 24.56 405.57 24.46C405.32 25.44 405.2 26.22 405.2 26.81C405.2 27.45 405.32 28.21 405.57 29.09C404.54 28.94 403.37 28.82 402.08 28.72C400.78 28.62 399.43 28.54 398.04 28.46C396.64 28.39 395.24 28.34 393.85 28.31C392.45 28.29 391.12 28.27 389.84 28.27C389.69 33.32 389.62 38.39 389.62 43.49V56.14C389.62 59.38 389.68 62.56 389.8 65.7C389.92 68.84 390.06 71.9299 390.21 74.9599C389.08 74.8599 387.88 74.81 386.61 74.81C385.34 74.81 384.14 74.8599 383.01 74.9599C383.16 71.9199 383.29 68.84 383.41 65.7C383.53 62.56 383.59 59.38 383.59 56.14V43.49C383.59 38.39 383.52 33.32 383.37 28.27H383.38Z" fill="#22544E"/>
<path d="M411.131 33.9702C411.011 30.8602 410.871 27.6802 410.721 24.4502C411.361 24.5502 411.971 24.6302 412.561 24.7102C413.151 24.7802 413.741 24.8202 414.331 24.8202C414.921 24.8202 415.511 24.7802 416.091 24.7102C416.681 24.6402 417.291 24.5502 417.931 24.4502C417.781 27.6802 417.651 30.8602 417.521 33.9702C417.401 37.0802 417.341 40.2602 417.341 43.4902V56.1402C417.341 59.3802 417.401 62.5602 417.521 65.7002C417.641 68.8402 417.781 71.9302 417.931 74.9602C416.801 74.8602 415.601 74.8102 414.331 74.8102C413.061 74.8102 411.851 74.8602 410.731 74.9602C410.881 71.9202 411.011 68.8402 411.141 65.7002C411.261 62.5602 411.321 59.3802 411.321 56.1402V43.4902C411.321 40.2602 411.261 37.0802 411.141 33.9702H411.131Z" fill="#22544E"/>
<path d="M443.77 43.78C447.23 50.35 450.84 57.09 454.61 64C455.1 63.07 455.81 61.73 456.74 59.99C457.67 58.25 458.75 56.25 459.97 54C461.19 51.75 462.51 49.31 463.9 46.68C465.3 44.06 466.72 41.4 468.16 38.7C469.6 36 471.04 33.36 472.46 30.76C473.88 28.16 475.2 25.74 476.43 23.48H477.38C477.92 28.19 478.42 32.73 478.89 37.12C479.36 41.51 479.83 45.82 480.32 50.06C480.81 54.3 481.3 58.49 481.79 62.63C482.28 66.77 482.82 70.88 483.41 74.94C482.82 74.84 482.24 74.79 481.68 74.79H478.22C477.66 74.79 477.08 74.84 476.49 74.94C475.95 68.42 475.41 62.1 474.87 55.97C474.33 49.84 473.67 43.59 472.89 37.22H472.74C469.36 43.4 466.04 49.54 462.78 55.64C459.52 61.74 456.42 68.13 453.48 74.79H452.82C449.88 68.61 446.8 62.43 443.59 56.23C440.38 50.03 437.16 43.7 433.92 37.23H433.77C433.43 40.27 433.05 43.56 432.63 47.12C432.21 50.68 431.83 54.18 431.49 57.63C431.15 61.09 430.85 64.35 430.61 67.41C430.36 70.47 430.24 72.99 430.24 74.95C429.45 74.85 428.6 74.8 427.67 74.8C426.74 74.8 425.88 74.85 425.1 74.95C425.74 70.98 426.4 66.79 427.08 62.38C427.77 57.97 428.43 53.53 429.07 49.07C429.71 44.61 430.29 40.21 430.83 35.87C431.37 31.53 431.83 27.4 432.23 23.48H433.48C436.86 30.44 440.28 37.2 443.74 43.77L443.77 43.78Z" fill="#22544E"/>
<path d="M491.051 33.8602C490.931 30.7302 490.791 27.5902 490.641 24.4502C492.851 24.5502 495.041 24.6302 497.221 24.7102C499.401 24.7802 501.591 24.8202 503.801 24.8202C506.011 24.8202 508.191 24.7802 510.341 24.7102C512.501 24.6402 514.681 24.5502 516.881 24.4502C516.731 25.1902 516.661 25.9202 516.661 26.6602C516.661 27.4002 516.731 28.1302 516.881 28.8602C515.311 28.7602 513.881 28.6702 512.581 28.5702C511.281 28.4702 509.911 28.3702 508.461 28.2802C507.011 28.1902 505.431 28.1002 503.721 28.0202C502.011 27.9402 499.951 27.9102 497.541 27.9102C497.491 29.4802 497.431 30.9702 497.361 32.4002C497.291 33.8202 497.251 35.4402 497.251 37.2502C497.251 39.1602 497.261 41.0202 497.291 42.8402C497.311 44.6502 497.331 46.0302 497.331 46.9602C499.491 46.9602 501.421 46.9402 503.141 46.8902C504.851 46.8402 506.421 46.7802 507.841 46.7102C509.261 46.6402 510.571 46.5602 511.771 46.4902C512.971 46.4102 514.111 46.3302 515.191 46.2302C515.041 46.9602 514.971 47.7302 514.971 48.5102C514.971 49.2502 515.041 49.9802 515.191 50.7202C513.921 50.5702 512.431 50.4502 510.741 50.3502C509.051 50.2502 507.361 50.1902 505.671 50.1702C503.981 50.1502 502.391 50.1202 500.891 50.1002C499.391 50.0802 498.211 50.0602 497.331 50.0602C497.331 50.5002 497.321 50.9802 497.291 51.5002C497.271 52.0102 497.251 52.6702 497.251 53.4502V60.7302C497.251 63.5302 497.261 65.8302 497.291 67.6402C497.311 69.4502 497.351 70.8302 497.401 71.7602H502.551C504.411 71.7602 506.241 71.7202 508.031 71.6502C509.821 71.5802 511.511 71.4802 513.101 71.3602C514.691 71.2402 516.081 71.0502 517.261 70.8102C517.161 71.1602 517.101 71.5302 517.081 71.9502C517.051 72.3702 517.041 72.7502 517.041 73.0902C517.041 73.8802 517.111 74.5102 517.261 75.0002C515.051 74.9002 512.861 74.8502 510.681 74.8502H497.341C495.131 74.8502 492.901 74.9002 490.651 75.0002C490.801 71.8702 490.931 68.7402 491.061 65.6302C491.181 62.5202 491.241 59.3502 491.241 56.1102V43.4602C491.241 40.2302 491.181 37.0402 491.061 33.9002L491.051 33.8602Z" fill="#22544E"/>
</svg>
