<svg width="44" height="44" viewBox="0 0 44 44" fill="none" xmlns="http://www.w3.org/2000/svg">
<rect x="0.5" y="0.5" width="43" height="43" rx="21.5" fill="#E5E1C7" fill-opacity="0.63"/>
<rect x="0.5" y="0.5" width="43" height="43" rx="21.5" stroke="#B2986B"/>
<g clip-path="url(#clip0_3396_81)">
<path d="M28.666 22.0001V30.3334H15.3327V22.0001M21.9993 30.3334V17.8334M21.9993 17.8334H18.2493C17.6968 17.8334 17.1669 17.6139 16.7762 17.2232C16.3855 16.8325 16.166 16.3026 16.166 15.7501C16.166 15.1975 16.3855 14.6676 16.7762 14.2769C17.1669 13.8862 17.6968 13.6667 18.2493 13.6667C21.166 13.6667 21.9993 17.8334 21.9993 17.8334ZM21.9993 17.8334H25.7493C26.3019 17.8334 26.8318 17.6139 27.2225 17.2232C27.6132 16.8325 27.8327 16.3026 27.8327 15.7501C27.8327 15.1975 27.6132 14.6676 27.2225 14.2769C26.8318 13.8862 26.3019 13.6667 25.7493 13.6667C22.8327 13.6667 21.9993 17.8334 21.9993 17.8334ZM13.666 17.8334H30.3327V22.0001H13.666V17.8334Z" stroke="#B2986B" stroke-width="1.5" stroke-linecap="round" stroke-linejoin="round"/>
</g>
<defs>
<clipPath id="clip0_3396_81">
<rect width="20" height="20" fill="white" transform="translate(12 12)"/>
</clipPath>
</defs>
</svg>
