<svg width="44" height="44" viewBox="0 0 44 44" fill="none" xmlns="http://www.w3.org/2000/svg">
<rect x="0.5" y="0.5" width="43" height="43" rx="21.5" fill="#E5E1C7" fill-opacity="0.63"/>
<rect x="0.5" y="0.5" width="43" height="43" rx="21.5" stroke="#B2986B"/>
<g clip-path="url(#clip0_3396_85)">
<path d="M15.0079 19.9727C13.3633 24.3594 12.0118 27.9609 12.0079 27.9805C12.0001 28.0039 12.8008 28.0117 13.9962 28.0078L16.0001 27.9961L16.2618 27.3008C16.4063 26.918 16.5352 26.5898 16.5508 26.5781C16.5626 26.5664 17.793 27.7773 19.2852 29.2695L22.0001 31.9844L23.9805 30L25.9649 28.0156H26.9688C27.6055 28.0156 27.9766 28 27.9766 27.9766C27.9766 27.957 27.8633 27.6328 27.7227 27.2617C27.5821 26.8906 27.4688 26.5664 27.4688 26.5469C27.4688 26.5273 28.4883 25.4922 29.7344 24.2461L32.004 21.9844L30.5274 20.5078C29.7149 19.6953 29.0352 19.0312 29.0118 19.0312C28.9922 19.0312 28.2657 19.7383 27.4024 20.6016C26.5391 21.4648 25.8243 22.1641 25.8165 22.1562C25.8047 22.1445 24.9454 19.8594 23.9024 17.0781L22.0079 12.0195L20.0001 12.0117L17.9962 12L15.0079 19.9727ZM23.1797 17.9883L25.043 22.957L24.3712 23.6289C23.9258 24.0781 23.6915 24.2852 23.6758 24.2539C23.6602 24.2266 23.5469 23.9375 23.4258 23.6094L23.2032 23.0156H21.1055H19.0118L18.504 22.5078L17.9962 22L20.4063 21.9922L22.8126 21.9805L21.4297 18.2891C20.668 16.2578 20.0352 14.5703 20.0235 14.5391C20.0079 14.4961 17.3829 21.3984 17.2149 21.918C17.1915 21.9961 17.1993 22 17.5938 22H17.9962L16.5001 23.4961L15.004 24.9922L15.379 25.3594C15.5821 25.5625 15.7501 25.7461 15.7501 25.7695C15.7501 25.7891 15.6524 26.0781 15.5274 26.4023L15.3087 27H14.3751H13.4454L13.5391 26.7539C13.586 26.6211 14.7696 23.4766 16.1602 19.7617L18.6915 13.0156H20.004H21.3165L23.1797 17.9883ZM20.6915 19.1797L21.3633 20.9648L20.0157 20.9766C19.2735 20.9805 18.6602 20.9805 18.6524 20.9727C18.6485 20.9648 18.9454 20.1484 19.3165 19.1602C19.6837 18.168 19.9962 17.3672 20.0079 17.375C20.0157 17.3867 20.3243 18.1953 20.6915 19.1797ZM29.793 21.2187L30.5743 22L26.2852 26.2891L22.0001 30.5742L19.2071 27.7812L16.4141 24.9883L17.2032 24.1992L17.9962 23.4062L19.9962 25.4062L22.0001 27.4102L25.4883 23.9219C27.4024 22.0078 28.9805 20.4375 28.9922 20.4375C29.004 20.4375 29.3633 20.7891 29.793 21.2187ZM22.7032 24.543L22.9102 25.0937L22.4571 25.5469L22.0001 26.0039L20.9962 24.9961L19.9883 23.9922H21.2422H22.4962L22.7032 24.543Z" fill="#B2986B"/>
</g>
<defs>
<clipPath id="clip0_3396_85">
<rect width="20" height="20" fill="white" transform="translate(12 12)"/>
</clipPath>
</defs>
</svg>
