<svg width="44" height="44" viewBox="0 0 44 44" fill="none" xmlns="http://www.w3.org/2000/svg">
<rect x="0.5" y="0.5" width="43" height="43" rx="21.5" fill="white"/>
<rect x="0.5" y="0.5" width="43" height="43" rx="21.5" stroke="#22544E"/>
<path d="M13.6206 13.9298C13.3589 14.0431 13.2105 14.3439 13.2652 14.6368C13.3003 14.8204 13.4956 15.0353 13.6714 15.086C13.7691 15.1173 14.9566 15.1251 17.398 15.1173C20.9449 15.1056 20.98 15.1056 21.0855 15.0235C21.2925 14.8712 21.355 14.7462 21.355 14.5001C21.355 14.254 21.2925 14.129 21.0855 13.9767C20.98 13.8946 20.9449 13.8946 17.3589 13.8868C14.4097 13.879 13.7144 13.8868 13.6206 13.9298Z" fill="#22544E"/>
<path d="M22.9531 13.9102C22.7656 13.957 22.4336 14.1523 22.3281 14.2773C22.2734 14.3438 22.1836 14.4844 22.125 14.5938L22.0195 14.793V19.5V24.207L22.1523 24.4531C22.3008 24.7266 22.4219 24.8438 22.7188 25L22.918 25.1055H26.375H29.832L30.0312 25C30.3281 24.8438 30.4492 24.7266 30.5977 24.4531L30.7305 24.207V19.5V14.793L30.5977 14.5469C30.4492 14.2734 30.3281 14.1563 30.0312 14L29.832 13.8945L26.4531 13.8867C24.5938 13.8867 23.0195 13.8945 22.9531 13.9102ZM29.5 19.5V23.875H26.375H23.25V19.5V15.125H26.375H29.5V19.5Z" fill="#22544E"/>
<path d="M13.6206 16.4298C13.3589 16.5431 13.2105 16.8439 13.2652 17.1368C13.3003 17.3204 13.4956 17.5353 13.6714 17.586C13.7691 17.6173 14.9566 17.6251 17.398 17.6173C20.9449 17.6056 20.98 17.6056 21.0855 17.5235C21.2925 17.3712 21.355 17.2462 21.355 17.0001C21.355 16.754 21.2925 16.629 21.0855 16.4767C20.98 16.3946 20.9449 16.3946 17.3589 16.3868C14.4097 16.379 13.7144 16.3868 13.6206 16.4298Z" fill="#22544E"/>
<path d="M14.2031 18.9102C14.0156 18.957 13.6836 19.1523 13.5781 19.2773C13.5234 19.3437 13.4336 19.4844 13.375 19.5937L13.2695 19.793V24.5V29.207L13.4023 29.4531C13.5508 29.7266 13.6719 29.8437 13.9688 30L14.168 30.1055H17.3125H20.457L20.6562 30C20.9531 29.8437 21.0742 29.7266 21.2227 29.4531L21.3555 29.207V24.5V19.793L21.25 19.5937C21.0938 19.2969 20.9766 19.1758 20.7031 19.0273L20.457 18.8945L17.3906 18.8867C15.7031 18.8828 14.2695 18.8945 14.2031 18.9102ZM20.125 24.5V28.875H17.3125H14.5V24.5V20.125H17.3125H20.125V24.5Z" fill="#22544E"/>
<path d="M22.3706 26.4298C22.1089 26.5431 21.9605 26.8439 22.0152 27.1368C22.0503 27.3204 22.2456 27.5353 22.4214 27.586C22.5191 27.6173 23.8003 27.6251 26.4605 27.6173C30.3238 27.6056 30.355 27.6056 30.4605 27.5235C30.6675 27.3712 30.73 27.2462 30.73 27.0001C30.73 26.754 30.6675 26.629 30.4605 26.4767C30.355 26.3946 30.3238 26.3946 26.4214 26.3868C23.2105 26.379 22.4644 26.3868 22.3706 26.4298Z" fill="#22544E"/>
<path d="M22.3706 28.9298C22.1089 29.0431 21.9605 29.3439 22.0152 29.6368C22.0503 29.8204 22.2456 30.0353 22.4214 30.086C22.5191 30.1173 23.8003 30.1251 26.4605 30.1173C30.3238 30.1056 30.355 30.1056 30.4605 30.0235C30.6675 29.8712 30.73 29.7462 30.73 29.5001C30.73 29.254 30.6675 29.129 30.4605 28.9767C30.355 28.8946 30.3238 28.8946 26.4214 28.8868C23.2105 28.879 22.4644 28.8868 22.3706 28.9298Z" fill="#22544E"/>
</svg>
