<svg width="200" height="200" viewBox="0 0 200 200" fill="none" xmlns="http://www.w3.org/2000/svg">
<path d="M99.9905 189.69C81.6005 189.69 63.9405 184.17 48.9205 173.73C48.2305 173.26 47.5405 172.77 46.8705 172.26L46.6005 172.05L46.5705 171.71C46.3505 169.36 45.4205 167.17 43.8705 165.38C43.2905 164.69 42.5905 164.05 41.7805 163.47H41.5305L41.3905 163.21C39.5305 162.03 37.3905 161.4 35.2005 161.4L34.7805 161.48L34.4105 161.17C33.6005 160.29 32.8005 159.41 32.0105 158.5C18.0205 142.26 10.3105 121.48 10.3105 100C10.3105 78.52 17.9905 57.82 31.9305 41.6C32.7005 40.71 33.4805 39.83 34.2805 38.98L34.5605 38.68L34.9605 38.74C35.0405 38.76 35.1305 38.74 35.2005 38.74C41.0905 38.74 46.0905 34.14 46.5705 28.27L46.6005 27.92L46.8805 27.71C47.5405 27.22 48.2105 26.75 48.8805 26.28C63.9105 15.82 81.5806 10.29 99.9806 10.29C118.381 10.29 136.051 15.82 151.081 26.28C151.751 26.74 152.421 27.21 153.081 27.7L153.361 27.91L153.391 28.26C153.881 34.13 158.871 38.73 164.771 38.73C164.861 38.73 164.941 38.73 165.021 38.73L165.421 38.67L165.701 38.97C166.501 39.82 167.291 40.7 168.051 41.58C181.991 57.8 189.671 78.54 189.671 99.98C189.671 121.42 181.961 142.24 167.971 158.48C167.191 159.39 166.391 160.27 165.571 161.15L165.281 161.47L164.861 161.39C162.581 161.39 160.441 162.01 158.591 163.19L158.471 163.42L158.231 163.44C157.421 164.03 156.711 164.67 156.121 165.37C154.561 167.18 153.631 169.38 153.421 171.72L153.391 172.07L153.111 172.28C152.441 172.77 151.751 173.26 151.071 173.73C136.051 184.17 118.381 189.69 100.001 189.69H99.9905ZM48.0705 171.22C48.6405 171.64 49.2205 172.05 49.8005 172.45C64.5705 182.71 81.9205 188.13 99.9905 188.13C118.061 188.13 135.411 182.71 150.181 172.45C150.761 172.05 151.341 171.64 151.911 171.22C152.201 168.69 153.251 166.32 154.941 164.36C155.621 163.55 156.451 162.79 157.411 162.12L157.731 161.91C159.821 160.57 162.231 159.85 164.701 159.84C165.421 159.06 166.121 158.28 166.811 157.48C180.561 141.52 188.141 121.1 188.141 99.99C188.141 78.88 180.601 58.54 166.891 42.6C166.221 41.83 165.531 41.05 164.831 40.3H164.781C158.211 40.3 152.611 35.26 151.891 28.76C151.341 28.35 150.781 27.96 150.221 27.57C135.451 17.29 118.081 11.85 99.9905 11.85C81.9005 11.85 64.5405 17.28 49.7705 27.56C49.2105 27.95 48.6405 28.34 48.0905 28.75C47.3705 35.25 41.7805 40.29 35.2105 40.29H35.1705C34.4705 41.04 33.7805 41.82 33.1105 42.59C19.4105 58.53 11.8705 78.91 11.8705 99.98C11.8705 121.05 19.4405 141.51 33.2005 157.47C33.8905 158.28 34.6005 159.06 35.3205 159.84C37.7905 159.86 40.1905 160.57 42.2805 161.91H42.2905L42.6105 162.14C43.5605 162.82 44.3805 163.57 45.0605 164.37C46.7305 166.31 47.7705 168.68 48.0805 171.21L48.0705 171.22Z" fill="#00554E"/>
<path d="M100.001 183.78C82.2112 183.78 65.2312 178.28 50.8912 167.88L50.5112 167.61L50.5712 167.15C50.5812 167.08 50.5712 167 50.5712 166.93C50.5712 160.8 45.5812 155.82 39.4612 155.82C38.9812 155.82 38.5212 155.85 38.0712 155.92L37.6512 155.99L37.3712 155.67C23.7212 140.34 16.2012 120.57 16.2012 100.01C16.2012 79.4502 23.8512 59.3402 37.7312 43.9302L37.9612 43.6702H38.3012C38.7612 43.7202 39.0912 43.7302 39.4512 43.7302C45.5212 43.7302 50.5012 38.7902 50.5612 32.7202V32.3302L50.8812 32.1002C65.2212 21.7102 82.2012 16.2202 99.9712 16.2202C117.741 16.2202 134.721 21.7102 149.061 32.1002L149.381 32.3302V32.7202C149.441 38.7902 154.431 43.7302 160.501 43.7302C160.861 43.7302 161.211 43.7202 161.561 43.6702L161.961 43.6202L162.231 43.9202C176.111 59.3202 183.761 79.2402 183.761 100C183.761 120.76 176.241 140.33 162.601 155.66L162.321 155.98L161.901 155.91C161.451 155.84 160.991 155.81 160.511 155.81C154.381 155.81 149.401 160.8 149.401 166.92C149.401 166.99 149.401 167.06 149.401 167.13L149.481 167.6L149.091 167.88C134.751 178.28 117.771 183.78 99.9812 183.78H100.001ZM52.1412 166.87C66.1412 176.92 82.6812 182.23 100.001 182.23C117.321 182.23 133.861 176.92 147.861 166.87C147.891 159.91 153.561 154.26 160.521 154.26C160.951 154.26 161.351 154.28 161.731 154.32C174.951 139.32 182.231 120.04 182.231 100C182.231 79.9602 174.821 60.3302 161.361 45.2502C161.091 45.2702 160.811 45.2802 160.531 45.2802C153.751 45.2802 148.151 39.8702 147.881 33.1302C133.871 23.0802 117.321 17.7702 100.011 17.7702C82.7012 17.7702 66.1512 23.0802 52.1412 33.1302C51.8712 39.8602 46.2712 45.2802 39.4912 45.2802C39.2012 45.2802 38.9312 45.2802 38.6612 45.2502C25.2012 60.3202 17.7912 79.7502 17.7912 100C17.7912 120.25 25.0712 139.32 38.2912 154.32C38.6712 154.28 39.0612 154.26 39.5012 154.26C46.4612 154.26 52.1312 159.91 52.1612 166.87H52.1412Z" fill="#00554E"/>
<path d="M100 60.0101C101.845 60.0101 103.34 58.5147 103.34 56.6701C103.34 54.8254 101.845 53.3301 100 53.3301C98.1555 53.3301 96.6602 54.8254 96.6602 56.6701C96.6602 58.5147 98.1555 60.0101 100 60.0101Z" fill="#00554E"/>
<path d="M147.76 103.41V107.28C130.37 103.55 114.1 102.62 100.26 107.28H99.7402C86.1302 102.04 69.7202 103.82 52.2402 107.28V103.41C52.2402 103 52.5802 102.48 54.0302 102.01C58.4802 100.54 67.1002 98.5302 76.7502 97.2202C77.2002 97.1702 77.6802 97.1102 78.1302 97.0602C79.2402 96.9002 80.3702 96.7702 81.5002 96.6502L78.6102 96.1302L77.2802 95.8802L55.4002 91.9202C55.4002 91.9202 55.5102 89.7002 58.2902 90.2002C64.1202 91.2402 70.7002 91.3802 78.9102 92.6002C79.5202 92.6902 80.1102 92.7802 80.7202 92.8902C81.6502 93.0502 82.6002 93.2102 83.5702 93.3902C85.9702 93.8402 88.4802 94.4102 91.1702 95.1102C91.1702 95.1102 84.2102 91.1102 82.7602 90.5002L81.0002 89.5302L63.4602 79.8802C63.4602 79.8802 64.2502 77.9802 66.6902 79.3102C71.6602 82.0202 75.6602 83.6302 82.8802 87.3602C83.2002 87.5202 83.5102 87.6802 83.8502 87.8302C84.2102 88.0302 84.6002 88.2102 84.9602 88.4402C88.8302 90.4802 92.8302 92.7402 96.7602 95.2502L89.6802 85.3202L88.1202 83.1502L86.5602 80.9602L79.7502 71.6202C79.7502 71.6202 80.9502 69.1802 82.6702 71.6002C85.4102 75.4202 84.3702 73.9102 87.9602 79.0802C88.6402 80.0702 89.3402 81.0702 90.0402 82.1102C90.5802 82.8802 91.1302 83.6502 91.6702 84.4402C94.2902 88.1702 97.0502 92.0802 99.9402 96.0602C99.9902 96.1102 100.01 96.1302 100.03 96.1702C100.05 96.1202 100.07 96.1002 100.1 96.0602C103.02 92.0802 105.77 88.1702 108.37 84.4402C108.94 83.6502 109.46 82.8802 110 82.1102C110.7 81.0702 111.42 80.0702 112.1 79.0802C115.67 73.9002 114.63 75.4202 117.37 71.6002C119.11 69.1802 120.31 71.6202 120.31 71.6202L113.48 80.9602L111.92 83.1502L110.36 85.3202L103.31 95.2502C107.22 92.7402 111.22 90.4802 115.09 88.4402C115.47 88.2102 115.84 88.0302 116.22 87.8302C116.54 87.6702 116.85 87.5102 117.17 87.3602C124.38 83.6302 128.41 82.0202 133.36 79.3102C135.8 77.9802 136.59 79.8802 136.59 79.8802L119.05 89.5302L117.31 90.5002C115.84 91.1102 108.88 95.1102 108.88 95.1102C111.57 94.4102 114.1 93.8402 116.5 93.3902C117.45 93.2102 118.42 93.0502 119.33 92.8902C119.94 92.7802 120.55 92.6902 121.14 92.6002C129.35 91.3802 135.95 91.2402 141.76 90.2002C144.54 89.7002 144.65 91.9202 144.65 91.9202L122.79 95.8802L121.43 96.1302L118.54 96.6502C119.67 96.7602 120.8 96.9002 121.91 97.0602C122.38 97.1102 122.84 97.1702 123.31 97.2202C132.94 98.5302 141.55 100.54 146.03 102.01C147.45 102.49 147.79 103.01 147.79 103.41H147.76Z" fill="#00554E"/>
<path d="M126.069 143.33C120.489 142.18 116.869 139.08 113.159 134.92C111.219 132.75 109.199 130.6 107.149 128.52C106.629 127.98 106.109 127.46 105.589 126.94C103.369 124.75 101.109 123.07 100.009 120.29C98.8794 123.07 96.6194 124.74 94.4294 126.94C93.8894 127.46 93.3694 127.98 92.8494 128.52C90.7894 130.6 88.7794 132.75 86.8394 134.92C83.1294 139.08 79.5194 142.18 73.9494 143.33C71.9394 143.74 69.6094 143.47 70.1494 140.84C70.3994 139.69 71.3494 138.81 72.2794 138.06C77.0494 134.26 82.8194 131.98 87.9694 128.75C90.4294 127.19 92.7394 125.38 94.6794 123.21C95.6294 122.12 96.4694 120.97 97.1694 119.73C97.5094 119.14 97.8494 118.51 98.0694 117.85C98.2694 117.17 98.5394 116.38 98.7694 115.72C98.8094 115.61 98.8594 115.52 98.9494 115.43C99.0194 115.38 99.1094 115.32 99.1994 115.32C99.4694 115.3 99.7194 115.27 99.8994 115.32C99.9694 115.3 100.009 115.3 100.099 115.32C100.299 115.27 100.529 115.3 100.799 115.32C100.889 115.32 100.979 115.39 101.049 115.43C101.139 115.52 101.209 115.61 101.229 115.72C101.479 116.38 101.729 117.17 101.949 117.85C102.149 118.51 102.489 119.14 102.829 119.73C103.529 120.97 104.389 122.13 105.339 123.21C107.259 125.38 109.589 127.19 112.029 128.75C117.209 131.98 122.969 134.27 127.739 138.06C128.669 138.81 129.589 139.69 129.839 140.84C130.409 143.46 128.079 143.73 126.059 143.33H126.069Z" fill="#00554E"/>
<path d="M114.229 146.02C112.199 147.76 108.559 145.36 107.699 144.6C106.189 143.22 104.469 141.23 103.089 138.9C102.709 138.27 100.849 135.22 100.019 132.86C99.1788 135.21 97.3088 138.26 96.9188 138.9C95.5588 141.23 93.8488 143.22 92.3288 144.6C91.4688 145.37 87.8088 147.77 85.7688 146.02C84.9788 145.32 84.6588 144.12 85.0488 143.13C85.9988 140.76 88.3988 139.58 90.6288 138.68C93.3688 137.57 95.3988 136.78 97.0088 134.11C97.7288 132.91 98.3388 131.62 99.1588 130.49C99.3388 130.24 99.5888 130.08 99.9088 130.06C99.9488 130.06 99.9788 130.06 100.019 130.08C100.039 130.06 100.059 130.06 100.109 130.06C100.429 130.08 100.699 130.24 100.879 130.49C101.689 131.62 102.279 132.91 103.009 134.11C104.619 136.78 106.669 137.57 109.389 138.68C111.629 139.58 114.019 140.76 114.969 143.13C115.379 144.12 115.059 145.32 114.249 146.02H114.229Z" fill="#00554E"/>
</svg>
