<svg width="133" height="61" viewBox="0 0 133 61" fill="none" xmlns="http://www.w3.org/2000/svg">
<path d="M13.3665 18.6425C13.3665 17.2658 13.5926 16.0372 14.0414 14.9601C14.4903 13.8831 15.1221 12.9707 15.93 12.2263C16.738 11.482 17.7089 10.9154 18.8361 10.5268C19.9633 10.1381 21.2002 9.94379 22.5401 9.94379C23.8801 9.94379 25.1403 10.1381 26.2675 10.5268C27.3946 10.9154 28.3655 11.482 29.1735 12.2263C29.9815 12.9707 30.6132 13.8831 31.0621 14.9601C31.511 16.0372 31.7371 17.2658 31.7371 18.6425C31.7371 20.0193 31.511 21.2479 31.0621 22.3249C30.6132 23.402 29.9815 24.3144 29.1735 25.0587C28.3655 25.8031 27.3946 26.3598 26.2675 26.7221C25.1403 27.0877 23.8967 27.2688 22.5401 27.2688C21.1835 27.2688 19.9633 27.0877 18.8361 26.7221C17.7089 26.3565 16.738 25.8031 15.93 25.0587C15.1221 24.3144 14.4903 23.402 14.0414 22.3249C13.5926 21.2479 13.3665 20.0226 13.3665 18.6425ZM29.3364 18.6425C29.3364 17.2987 29.1635 16.136 28.8211 15.1545C28.4786 14.1729 27.9998 13.366 27.3847 12.7237C26.7729 12.0847 26.0513 11.6104 25.2267 11.3008C24.4021 10.9945 23.5044 10.8397 22.5401 10.8397C21.5759 10.8397 20.7047 10.9945 19.8801 11.3008C19.0555 11.6104 18.334 12.0814 17.7222 12.7237C17.1104 13.3627 16.6316 14.1729 16.2858 15.1545C15.9433 16.136 15.7704 17.2954 15.7704 18.6425C15.7704 19.9897 15.9433 21.1491 16.2858 22.1306C16.6283 23.1121 17.1071 23.9191 17.7222 24.5614C18.3373 25.2037 19.0555 25.6747 19.8801 25.9843C20.7047 26.2906 21.5925 26.4454 22.5401 26.4454C23.4878 26.4454 24.3988 26.2906 25.2267 25.9843C26.0513 25.678 26.7729 25.2037 27.3847 24.5614C27.9965 23.9224 28.4753 23.1121 28.8211 22.1306C29.1635 21.1491 29.3364 19.9897 29.3364 18.6425Z" fill="white"/>
<path d="M41.9948 20.6451C39.8701 18.3856 37.7421 16.1393 35.6174 13.9029C35.6008 14.3574 35.5842 14.9634 35.5675 15.7243C35.5509 16.4851 35.5443 17.5227 35.5443 18.8336C35.5443 19.1728 35.5476 19.5944 35.5576 20.0984C35.5642 20.6023 35.5742 21.1293 35.5808 21.6794C35.5875 22.2294 35.6008 22.7894 35.6174 23.3559C35.634 23.9224 35.6507 24.4494 35.6673 24.9336C35.6839 25.4211 35.7005 25.8459 35.7172 26.2083C35.7338 26.5706 35.7504 26.8209 35.767 26.9493C35.5044 26.9164 35.2184 26.8999 34.9092 26.8999C34.5833 26.8999 34.2808 26.9164 34.0015 26.9493C34.0347 26.788 34.0713 26.4882 34.1112 26.0502C34.1511 25.6121 34.1877 25.0917 34.2209 24.4823C34.2542 23.8763 34.2907 23.2143 34.3306 22.5028C34.3705 21.7914 34.4038 21.0766 34.4271 20.3652C34.4503 19.6537 34.4736 18.9555 34.4869 18.2769C34.5035 17.5984 34.5102 16.9891 34.5102 16.4555C34.5102 14.9009 34.5069 13.5636 34.4969 12.447C34.4902 11.3304 34.467 10.4938 34.437 9.94379H34.8294C35.8269 11.0143 36.8942 12.1605 38.0314 13.3824C39.1685 14.6044 40.2957 15.8132 41.4162 17.0023C42.5367 18.1946 43.6007 19.3178 44.6049 20.3816C45.6124 21.4422 46.4902 22.3447 47.2416 23.0924V19.7888C47.2416 18.0859 47.2283 16.4324 47.205 14.8185C47.1818 13.2079 47.1286 11.6895 47.0454 10.2633C47.3713 10.3456 47.6506 10.3851 47.88 10.3851C48.0762 10.3851 48.3389 10.3456 48.6647 10.2633C48.6315 10.619 48.5949 11.1526 48.555 11.8673C48.5151 12.5788 48.4719 13.3429 48.432 14.1499C48.3921 14.9601 48.3555 15.7539 48.3222 16.5313C48.289 17.3086 48.2724 17.9311 48.2724 18.4021V19.8612C48.2724 20.4113 48.2757 20.9877 48.2857 21.5871C48.2923 22.1866 48.3023 22.7894 48.3089 23.3987C48.3156 24.0047 48.3256 24.5746 48.3322 25.0983C48.3389 25.6253 48.3455 26.0831 48.3455 26.4718V27.2721H48.003C46.1211 25.118 44.1194 22.9112 41.9948 20.6517V20.6451Z" fill="white"/>
<path d="M64.2789 26.3795C63.9597 26.5343 63.574 26.6727 63.1251 26.7945C62.6763 26.9164 62.1709 27.0251 61.6156 27.1239C61.0603 27.2194 60.4784 27.2688 59.8733 27.2688C58.5799 27.2688 57.3862 27.0877 56.2923 26.7221C55.195 26.3565 54.2507 25.8031 53.4594 25.0587C52.6647 24.3144 52.0429 23.402 51.594 22.3249C51.1452 21.2479 50.9191 20.0226 50.9191 18.6425C50.9191 17.2625 51.1452 16.0372 51.594 14.9601C52.0429 13.8831 52.6747 12.9707 53.4826 12.2263C54.2906 11.482 55.2615 10.9154 56.3887 10.5268C57.5159 10.1381 58.7594 9.94379 60.116 9.94379C61.1966 9.94379 62.1808 10.0525 63.0719 10.2732C63.963 10.4905 64.7511 10.754 65.4393 11.0637C65.3097 11.2909 65.2033 11.5972 65.1201 11.9859C65.037 12.3746 64.9738 12.6974 64.924 12.9576L64.7777 13.007C64.6147 12.8126 64.3853 12.5952 64.0927 12.3515C63.7968 12.1078 63.4543 11.8739 63.062 11.6466C62.6696 11.4194 62.2274 11.2283 61.7386 11.0768C61.2465 10.922 60.7079 10.8463 60.1193 10.8463C59.1551 10.8463 58.2573 11.0011 57.4327 11.3074C56.6081 11.617 55.8866 12.088 55.2748 12.7303C54.663 13.3693 54.1842 14.1795 53.8384 15.1611C53.4959 16.1426 53.323 17.302 53.323 18.6491C53.323 19.9963 53.4959 21.1557 53.8384 22.1372C54.1809 23.1187 54.6597 23.9257 55.2748 24.568C55.8866 25.207 56.6081 25.6813 57.4327 25.9909C58.2573 26.2972 59.1551 26.452 60.1193 26.452C60.7079 26.452 61.2532 26.3795 61.7519 26.2346C62.2507 26.0897 62.7095 25.9151 63.1251 25.7109C63.5408 25.51 63.9165 25.2893 64.2523 25.0554C64.5881 24.8216 64.8708 24.6141 65.0969 24.4362L65.1966 24.535L64.9772 25.9678C64.8309 26.0963 64.5981 26.2379 64.2789 26.3927V26.3795Z" fill="white"/>
<path d="M67.6139 13.3693C67.574 12.3318 67.5274 11.2975 67.4775 10.26C68.2124 10.2929 68.9439 10.3193 69.672 10.3456C70.4002 10.3687 71.1317 10.3819 71.8665 10.3819C72.6014 10.3819 73.3295 10.3687 74.0511 10.3456C74.7693 10.3226 75.4974 10.2929 76.2356 10.26C76.1857 10.5037 76.1624 10.7475 76.1624 10.9879C76.1624 11.2284 76.1857 11.4721 76.2356 11.7158C75.7136 11.6829 75.2348 11.65 74.7992 11.6203C74.3669 11.5874 73.9081 11.5544 73.426 11.5215C72.9438 11.4886 72.4152 11.4622 71.8433 11.4359C71.2714 11.4095 70.5831 11.3996 69.7818 11.3996C69.7651 11.9168 69.7452 12.4108 69.7219 12.8818C69.6986 13.3528 69.6853 13.8864 69.6853 14.4859C69.6853 15.1183 69.6887 15.7342 69.6986 16.3337C69.7053 16.9331 69.7119 17.3877 69.7119 17.694C70.4301 17.694 71.0785 17.6874 71.6504 17.6709C72.2223 17.6544 72.7443 17.6347 73.2198 17.6116C73.6953 17.5886 74.1309 17.5622 74.5332 17.5392C74.9322 17.5128 75.3146 17.4865 75.6737 17.4535C75.6238 17.6973 75.6005 17.9476 75.6005 18.2045C75.6005 18.4482 75.6238 18.692 75.6737 18.9324C75.2481 18.883 74.7526 18.8435 74.1907 18.8106C73.6255 18.7776 73.0635 18.7579 72.4983 18.7513C71.933 18.7447 71.401 18.7348 70.9023 18.7282C70.4035 18.7216 70.0079 18.715 69.7119 18.715C69.7119 18.86 69.7086 19.0181 69.6986 19.1893C69.6887 19.3606 69.6853 19.5747 69.6853 19.8316V22.236C69.6853 23.1616 69.6887 23.9224 69.6986 24.5186C69.7053 25.1181 69.7186 25.5726 69.7352 25.8789H71.4509C72.0727 25.8789 72.6812 25.8657 73.2797 25.8427C73.8748 25.8196 74.4401 25.7867 74.9721 25.7439C75.5041 25.7043 75.9663 25.6418 76.3586 25.5627C76.3254 25.678 76.3054 25.8032 76.2988 25.9382C76.2888 26.0765 76.2855 26.2017 76.2855 26.3137C76.2855 26.5739 76.3087 26.7847 76.3586 26.9461C75.6238 26.9131 74.8923 26.8967 74.1641 26.8967H69.7119C68.9771 26.8967 68.2323 26.9131 67.4809 26.9461C67.5307 25.9086 67.574 24.8776 67.6172 23.8467C67.6571 22.819 67.677 21.7683 67.677 20.7012V16.5214C67.677 15.4509 67.6571 14.4002 67.6172 13.3627L67.6139 13.3693Z" fill="white"/>
<path d="M85.0768 26.6826C84.7709 26.6826 84.5348 26.5969 84.3786 26.4256C84.2223 26.2544 84.1458 26.0008 84.1458 25.6714C84.1458 25.342 84.2422 24.8216 84.4284 24.1661C83.4908 25.8394 82.5465 26.6859 81.6188 26.6859C81.2298 26.6859 80.9172 26.564 80.6945 26.3235C80.4717 26.0831 80.3586 25.7834 80.3586 25.4276C80.3586 25.0719 80.4916 24.535 80.761 23.7478L81.8516 20.5924C82.0477 20.0193 82.0876 19.8283 82.0876 19.769C82.0876 19.6504 82.0411 19.6043 81.9214 19.6043C81.5789 19.6043 81.1866 20.0918 80.7576 21.0503L80.2722 21.0898H80.1791L80.2123 21.0042C80.4517 20.3849 80.7676 19.8678 81.1566 19.4759C81.5523 19.074 81.948 18.8731 82.337 18.8731C82.5831 18.8731 82.7959 18.9522 82.9688 19.1037C83.145 19.2585 83.2348 19.4923 83.2348 19.7954C83.2348 20.0094 83.1317 20.4179 82.9222 21.047L81.805 24.2979C81.5955 24.9204 81.4891 25.3354 81.4891 25.5265C81.4891 25.6911 81.5257 25.8163 81.5989 25.8986C81.6687 25.9777 81.7718 26.0172 81.9147 26.0172C82.4102 26.0172 83.0153 25.4738 83.7136 24.4033C84.4218 23.3197 85.1134 21.6794 85.7618 19.5351L85.9247 18.9884H87.125L85.549 24.1134C85.3029 24.9237 85.1799 25.4178 85.1799 25.5792C85.1799 25.7109 85.2065 25.8064 85.253 25.869C85.2996 25.9283 85.3694 25.9546 85.4691 25.9546C85.8881 25.9546 86.2971 25.4803 86.6861 24.5449L87.1184 24.5054H87.2115L87.1815 24.591C86.6695 25.9843 85.9646 26.6891 85.0801 26.6891L85.0768 26.6826Z" fill="white"/>
<path d="M86.746 24.5647H87.1184C86.6163 25.9349 85.9347 26.62 85.0801 26.62C84.7909 26.62 84.5747 26.5409 84.4284 26.3828C84.2821 26.2247 84.2123 25.9876 84.2123 25.6714C84.2123 25.2267 84.3719 24.5153 84.6911 23.537C83.657 25.5923 82.6329 26.62 81.6221 26.62C81.2497 26.62 80.9571 26.5047 80.7443 26.2774C80.5315 26.0501 80.4251 25.7636 80.4251 25.4243C80.4251 25.0851 80.5581 24.5383 80.8241 23.7643L81.9147 20.6089C82.0743 20.1412 82.1541 19.8579 82.1541 19.7657C82.1541 19.6142 82.0777 19.5384 81.9247 19.5384C81.5523 19.5384 81.1433 20.0325 80.7011 21.0239H80.2755C80.5116 20.408 80.8208 19.9073 81.2065 19.5187C81.5922 19.13 81.9679 18.9357 82.3403 18.9357C82.5698 18.9357 82.7659 19.0081 82.9289 19.1498C83.0918 19.2914 83.1716 19.5088 83.1716 19.7953C83.1716 19.9995 83.0685 20.4113 82.8624 21.0239L81.7452 24.2748C81.5324 24.9072 81.426 25.3222 81.426 25.5231C81.426 25.7043 81.4659 25.8426 81.549 25.9349C81.6321 26.0271 81.7518 26.0765 81.9114 26.0765C82.4301 26.0765 83.0486 25.5297 83.7634 24.4329C84.4783 23.3361 85.1633 21.709 85.8216 19.5483L85.9712 19.0477H87.0352L85.4825 24.0904C85.2331 24.9105 85.1101 25.4046 85.1101 25.5758C85.1101 25.7208 85.14 25.8328 85.1998 25.9052C85.2597 25.9777 85.3461 26.0139 85.4658 26.0139C85.9147 26.0139 86.3403 25.5297 86.7426 24.5647H86.746Z" fill="white"/>
<path d="M85.017 30.7075L85.1832 30.1937H85.4259C86.0876 30.1937 86.2705 30.1344 86.3204 30.1014C86.3702 30.0652 86.4933 29.8808 86.7559 29.0376L88.6013 23.0034C88.9238 21.9659 89.2896 20.8987 89.6919 19.8217C89.662 19.8744 89.6287 19.9304 89.5955 19.9897L87.8033 22.7959L87.3411 22.8256H87.2248L88.9637 20.0654C89.4525 19.298 89.775 18.7479 89.928 18.4284C90.0809 18.1122 90.2572 17.6215 90.4567 16.9792L90.593 16.5115H91.7933L91.1649 18.5602L90.5631 20.24C91.2846 19.3309 91.9862 18.8731 92.6478 18.8731C93.1034 18.8731 93.499 19.0839 93.8149 19.4989C94.1308 19.9106 94.2904 20.431 94.2904 21.0437C94.2904 21.7584 94.1042 22.5851 93.7351 23.5008C93.366 24.4197 92.8374 25.1872 92.1624 25.7833C91.4808 26.3828 90.7925 26.6858 90.1109 26.6858C89.5157 26.6858 89.1067 26.4322 88.9006 25.9349L87.9197 29.1462C87.7601 29.6601 87.7268 29.8412 87.7268 29.9005C87.7268 29.9796 87.7601 30.0487 87.8332 30.1047C87.8731 30.1377 88.0228 30.1969 88.5415 30.1969H89.0269L88.8607 30.7108H85.0203L85.017 30.7075ZM92.4849 19.4429C92.1823 19.4429 91.77 19.6702 91.2547 20.1214C90.736 20.5759 90.2505 21.5311 89.805 22.9672L89.4492 24.1167C89.2929 24.6305 89.2131 25.0027 89.2131 25.2234C89.2131 25.4935 89.2896 25.7273 89.4392 25.9118C89.5888 26.0962 89.7917 26.1852 90.0643 26.1852C90.4766 26.1852 90.9055 25.9447 91.3444 25.4737C91.7867 24.9928 92.2023 24.1793 92.5714 23.0561C92.9438 21.9297 93.13 21.07 93.13 20.5068C93.13 20.1445 93.0734 19.8744 92.9637 19.6965C92.8573 19.5285 92.701 19.4462 92.4849 19.4462V19.4429Z" fill="white"/>
<path d="M87.7467 22.7531H87.3378L89.0136 20.0918C89.5057 19.3178 89.8249 18.771 89.9811 18.4482C90.1341 18.1254 90.3136 17.6413 90.5131 16.9891L90.6362 16.5675H91.7002L91.0983 18.5339L90.3535 20.6056C91.1582 19.4858 91.9196 18.9291 92.6411 18.9291C93.08 18.9291 93.4524 19.13 93.7583 19.5319C94.0642 19.9337 94.2205 20.4344 94.2205 21.0371C94.2205 21.7453 94.0376 22.5555 93.6719 23.4712C93.3061 24.3835 92.7874 25.1378 92.1158 25.7274C91.4441 26.3203 90.7758 26.6134 90.1075 26.6134C89.4392 26.6134 89.0634 26.3137 88.8939 25.7175L87.8565 29.1166C87.7268 29.5382 87.6603 29.7952 87.6603 29.8907C87.6603 29.9895 87.7035 30.0751 87.79 30.1443C87.8764 30.2135 88.1258 30.2497 88.5381 30.2497H88.9371L88.8141 30.6351H85.1067L85.2297 30.2497H85.4259C85.9446 30.2497 86.2571 30.2135 86.3569 30.1443C86.4566 30.0751 86.6096 29.7095 86.8191 29.0475L88.6644 23.0133C89.0535 21.7551 89.5023 20.4673 90.0111 19.1564C89.9512 19.2387 89.7949 19.5022 89.5422 19.9469C89.5123 19.993 89.4192 20.1445 89.2596 20.3948L87.7534 22.7498L87.7467 22.7531ZM89.3893 24.097C89.2297 24.6174 89.1499 24.9929 89.1499 25.2202C89.1499 25.5067 89.2297 25.7504 89.3893 25.9481C89.5489 26.1457 89.775 26.2478 90.0643 26.2478C90.4965 26.2478 90.9387 26.0041 91.3909 25.5133C91.8431 25.0258 92.2554 24.209 92.6312 23.0726C93.0069 21.933 93.1931 21.0766 93.1931 20.5035C93.1931 20.128 93.1332 19.8481 93.0169 19.6603C92.8972 19.4726 92.7209 19.3804 92.4849 19.3804C92.1657 19.3804 91.7401 19.6109 91.2114 20.0753C90.6827 20.5365 90.1939 21.4949 89.7451 22.9475L89.3893 24.097Z" fill="white"/>
<path d="M96.6976 26.6398C96.1922 26.6398 95.74 26.4454 95.361 26.0601C94.9819 25.6747 94.7891 25.0028 94.7891 24.0641C94.7891 23.3559 94.9586 22.5753 95.2911 21.742C95.6236 20.9087 96.1091 20.2203 96.7275 19.6999C97.3526 19.1762 97.9678 18.9127 98.5596 18.9127C99.1049 18.9127 99.5604 19.1432 99.9096 19.601C100.255 20.0523 100.432 20.6715 100.432 21.4357C100.432 22.3546 100.239 23.2373 99.8597 24.0608C99.4806 24.8875 98.9952 25.5298 98.4166 25.9678C97.8381 26.4092 97.2595 26.6365 96.6976 26.6365V26.6398ZM98.5164 19.4265C97.8115 19.4265 97.1864 20.1083 96.6644 21.4554C96.1357 22.8223 95.8664 24.0377 95.8664 25.0752C95.8664 25.375 95.9462 25.6352 96.1024 25.846C96.2554 26.0535 96.4615 26.1556 96.7342 26.1556C97.4923 26.1556 98.1307 25.4178 98.6294 23.9685C99.1348 22.4929 99.3942 21.3533 99.3942 20.5793C99.3942 20.1906 99.321 19.8975 99.1714 19.7097C99.0251 19.522 98.8123 19.4331 98.5164 19.4331V19.4265Z" fill="white"/>
<path d="M94.8523 24.064C94.8523 23.3625 95.0186 22.595 95.3477 21.7683C95.6802 20.9383 96.1524 20.2664 96.7675 19.7525C97.3826 19.2387 97.9811 18.9785 98.5597 18.9785C99.085 18.9785 99.5206 19.1992 99.8597 19.6406C100.199 20.0819 100.368 20.6814 100.368 21.4356C100.368 22.348 100.179 23.2176 99.7999 24.0344C99.4208 24.8545 98.9487 25.4836 98.3768 25.9184C97.8049 26.3532 97.2463 26.5739 96.6977 26.5739C96.2056 26.5739 95.7766 26.3861 95.4076 26.0106C95.0385 25.6352 94.8523 24.9863 94.8523 24.0608V24.064ZM95.7999 25.0752C95.7999 25.3914 95.883 25.6615 96.0493 25.8822C96.2155 26.1062 96.4417 26.2149 96.7309 26.2149C97.5223 26.2149 98.174 25.4705 98.686 23.985C99.1981 22.4962 99.4541 21.3599 99.4541 20.576C99.4541 20.1708 99.3743 19.8678 99.218 19.6669C99.0617 19.466 98.8257 19.3639 98.5131 19.3639C97.775 19.3639 97.1366 20.0523 96.6012 21.4323C96.0659 22.8124 95.7999 24.0245 95.7999 25.0752Z" fill="white"/>
<path d="M105.778 26.6826C105.499 26.6826 105.253 26.5969 105.05 26.4256C104.844 26.2544 104.737 25.9975 104.737 25.6615C104.737 25.3881 104.87 24.871 105.15 24.0772L106.097 21.3961C106.347 20.6748 106.476 20.2038 106.476 19.993C106.476 19.8184 106.44 19.6867 106.363 19.6043C106.29 19.5253 106.174 19.4857 106.018 19.4857C105.592 19.4857 105.017 20.0029 104.312 21.0272C103.594 22.0614 102.969 23.4382 102.453 25.118L102.004 26.5706H100.787L102.373 21.4982C102.723 20.3652 102.796 20.0226 102.796 19.937C102.796 19.8513 102.782 19.7921 102.756 19.7558C102.732 19.7262 102.696 19.7097 102.639 19.7097C102.317 19.7097 101.918 20.1313 101.452 20.958L100.987 20.991H100.877L100.93 20.8955C101.688 19.5319 102.393 18.8698 103.088 18.8698C103.338 18.8698 103.527 18.9456 103.657 19.1004C103.783 19.2486 103.843 19.4759 103.843 19.769C103.843 20.1445 103.733 20.6748 103.517 21.3533C104.461 19.7031 105.399 18.8698 106.307 18.8698C106.646 18.8698 106.949 18.9818 107.201 19.2058C107.457 19.4297 107.587 19.7624 107.587 20.1906C107.587 20.464 107.467 20.9515 107.221 21.686L106.274 24.4889C105.944 25.4672 105.895 25.6878 105.895 25.734C105.895 25.8262 105.918 25.8954 105.961 25.9382C106.004 25.981 106.071 26.004 106.161 26.004C106.343 26.004 106.546 25.8954 106.762 25.6846C106.988 25.4639 107.231 25.1312 107.487 24.6931L107.996 24.6602H108.106L108.052 24.7557C107.697 25.3914 107.324 25.8756 106.952 26.1951C106.573 26.5212 106.177 26.6858 105.778 26.6858V26.6826Z" fill="white"/>
<path d="M107.544 24.7228H107.996C107.64 25.3552 107.278 25.8295 106.909 26.1457C106.54 26.4619 106.164 26.62 105.778 26.62C105.512 26.62 105.283 26.5409 105.09 26.3795C104.897 26.2181 104.801 25.981 104.801 25.6648C104.801 25.4013 104.937 24.8809 105.21 24.1002L106.157 21.4224C106.41 20.6912 106.54 20.2169 106.54 19.9995C106.54 19.8052 106.496 19.6636 106.41 19.5681C106.324 19.4725 106.194 19.4264 106.014 19.4264C105.565 19.4264 104.977 19.9501 104.255 20.9943C103.531 22.0384 102.909 23.4086 102.39 25.1015L101.955 26.508H100.874L102.433 21.518C102.716 20.599 102.859 20.072 102.859 19.937C102.859 19.8382 102.842 19.7657 102.806 19.7163C102.769 19.6669 102.713 19.6471 102.636 19.6471C102.287 19.6471 101.875 20.0753 101.396 20.9284H100.987C101.725 19.5977 102.427 18.9357 103.088 18.9357C103.318 18.9357 103.491 19.0048 103.607 19.1432C103.723 19.2815 103.78 19.489 103.78 19.7723C103.78 20.2762 103.58 21.0535 103.185 22.1075C104.255 19.993 105.296 18.9357 106.307 18.9357C106.633 18.9357 106.915 19.0411 107.158 19.2552C107.401 19.4693 107.521 19.7822 107.521 20.1906C107.521 20.4541 107.401 20.9448 107.158 21.6662L106.211 24.4691C105.958 25.2234 105.828 25.645 105.828 25.7339C105.828 25.8459 105.855 25.9283 105.911 25.9843C105.968 26.0403 106.048 26.0666 106.154 26.0666C106.354 26.0666 106.57 25.9546 106.802 25.7274C107.032 25.5034 107.278 25.1674 107.537 24.7228H107.544Z" fill="white"/>
<path d="M117.363 26.6826C117.063 26.6826 116.831 26.5706 116.671 26.3499C116.515 26.1358 116.438 25.869 116.438 25.5561C116.438 25.398 116.465 25.207 116.515 24.9863C116.269 25.3288 115.949 25.6714 115.567 26.004C115.052 26.4553 114.56 26.6826 114.101 26.6826C113.668 26.6826 113.293 26.4981 112.984 26.1358C112.678 25.7768 112.521 25.2893 112.521 24.6833C112.521 23.8796 112.757 23.01 113.22 22.0944C113.682 21.1787 114.297 20.4047 115.042 19.7953C115.793 19.1794 116.448 18.8665 116.987 18.8665C117.309 18.8665 117.569 18.9456 117.758 19.1004C117.901 19.2157 118.008 19.3738 118.077 19.5747L118.25 18.9983H119.451L117.848 24.2287C117.622 24.9632 117.506 25.4112 117.506 25.5627C117.506 25.6648 117.525 25.7405 117.569 25.79C117.609 25.8361 117.672 25.8591 117.758 25.8591C118.141 25.8591 118.596 25.4046 119.112 24.5021L119.54 24.4692H119.64L119.6 24.5581C119.368 25.0884 119.032 25.5792 118.599 26.0139C118.161 26.4553 117.748 26.6793 117.369 26.6793L117.363 26.6826ZM117.06 19.4429C116.368 19.4429 115.63 20.1445 114.872 21.5279C114.107 22.9244 113.718 24.0739 113.718 24.95C113.718 25.3222 113.775 25.6055 113.888 25.79C113.994 25.9678 114.151 26.0534 114.363 26.0534C114.732 26.0534 115.191 25.7735 115.723 25.2201C116.262 24.6602 116.734 23.7907 117.133 22.6346C117.532 21.4752 117.732 20.6781 117.732 20.2664C117.732 20.0358 117.672 19.8382 117.552 19.6768C117.436 19.5187 117.276 19.4429 117.06 19.4429Z" fill="white"/>
<path d="M118.294 19.0641H119.358L117.778 24.2122C117.549 24.9566 117.432 25.4079 117.432 25.566C117.432 25.6845 117.459 25.7735 117.512 25.8328C117.565 25.892 117.645 25.925 117.752 25.925C118.161 25.925 118.629 25.4639 119.161 24.5383H119.534C119.304 25.0653 118.975 25.5429 118.546 25.9744C118.117 26.4059 117.722 26.62 117.363 26.62C117.083 26.62 116.87 26.5179 116.724 26.3136C116.578 26.1094 116.501 25.8558 116.501 25.5594C116.501 25.3189 116.561 25.006 116.678 24.6207C116.412 25.0719 116.026 25.5166 115.52 25.9612C115.015 26.4026 114.54 26.6233 114.097 26.6233C113.685 26.6233 113.326 26.4487 113.03 26.0995C112.731 25.7504 112.581 25.2827 112.581 24.6898C112.581 23.8927 112.811 23.0397 113.273 22.1306C113.735 21.2215 114.337 20.4607 115.078 19.8513C115.82 19.242 116.455 18.939 116.98 18.939C117.286 18.939 117.532 19.0114 117.712 19.1596C117.891 19.3046 118.011 19.5252 118.071 19.8184L118.294 19.0707V19.0641ZM113.655 24.95C113.655 25.3354 113.715 25.6285 113.831 25.8229C113.948 26.0172 114.127 26.116 114.363 26.116C114.752 26.116 115.221 25.8328 115.77 25.2629C116.315 24.6964 116.791 23.8236 117.193 22.6543C117.595 21.4817 117.795 20.6879 117.795 20.2663C117.795 20.0193 117.732 19.8118 117.605 19.6372C117.479 19.466 117.296 19.377 117.06 19.377C116.338 19.377 115.59 20.0819 114.816 21.4949C114.041 22.9079 113.655 24.0574 113.655 24.9467V24.95Z" fill="white"/>
<path d="M74.0744 35.6283C73.6488 35.6283 73.2032 35.6316 72.7377 35.6415C72.2722 35.6514 71.8067 35.6678 71.3379 35.6909C70.8691 35.714 70.4202 35.7436 69.988 35.7765C69.5557 35.8095 69.1667 35.849 68.8242 35.8984C68.904 35.6086 68.9472 35.3484 68.9472 35.1211C68.9472 34.9432 68.9073 34.6929 68.8242 34.3668C69.9048 34.3998 70.9589 34.4261 71.9896 34.4525C73.0204 34.4755 74.0744 34.4887 75.155 34.4887C76.2356 34.4887 77.2897 34.4755 78.3204 34.4525C79.3512 34.4294 80.4052 34.3998 81.4858 34.3668C81.4027 34.6896 81.3628 34.9498 81.3628 35.1441C81.3628 35.3549 81.4027 35.6053 81.4858 35.8984C81.1433 35.849 80.7543 35.8095 80.3187 35.7765C79.8865 35.7436 79.4343 35.7173 78.9688 35.6909C78.5033 35.6678 78.0345 35.6514 77.569 35.6415C77.1035 35.6349 76.6579 35.6283 76.2323 35.6283C76.1824 37.2982 76.1592 38.9748 76.1592 40.6579V44.8376C76.1592 45.9081 76.1791 46.9588 76.219 47.9963C76.2589 49.0338 76.3055 50.0549 76.3553 51.0595C75.9796 51.0265 75.5773 51.0101 75.1517 51.0101C74.7261 51.0101 74.3271 51.0265 73.9514 51.0595C74.0012 50.0549 74.0445 49.0338 74.0844 47.9963C74.1243 46.9588 74.1442 45.9081 74.1442 44.8376V40.6579C74.1442 38.9748 74.1209 37.2982 74.0711 35.6283H74.0744Z" fill="white"/>
<path d="M83.3345 37.5123C83.2946 36.4847 83.248 35.434 83.1981 34.3668C83.4109 34.3998 83.6138 34.4261 83.8099 34.4525C84.0061 34.4755 84.2023 34.4887 84.3985 34.4887C84.5946 34.4887 84.7908 34.4755 84.987 34.4525C85.1832 34.4294 85.386 34.3998 85.5988 34.3668C85.5489 35.4373 85.5057 36.4847 85.4625 37.5123C85.4226 38.5433 85.4026 39.5907 85.4026 40.6579V44.8376C85.4026 45.9081 85.4226 46.9588 85.4625 47.9963C85.5024 49.0338 85.5489 50.0549 85.5988 51.0595C85.2231 51.0265 84.8207 51.0101 84.3985 51.0101C83.9762 51.0101 83.5739 51.0265 83.1948 51.0595C83.2447 50.0549 83.2879 49.0338 83.3311 47.9963C83.371 46.9588 83.391 45.9081 83.391 44.8376V40.6579C83.391 39.5874 83.371 38.54 83.3311 37.5123H83.3345Z" fill="white"/>
<path d="M94.2239 40.7567C95.3777 42.9273 96.5813 45.1538 97.8415 47.4397C98.0044 47.1334 98.2405 46.692 98.553 46.1156C98.8623 45.5425 99.2247 44.8805 99.6337 44.1361C100.043 43.3917 100.478 42.5847 100.947 41.7185C101.413 40.8522 101.888 39.9728 102.37 39.0835C102.852 38.1942 103.331 37.318 103.807 36.4584C104.279 35.602 104.721 34.7983 105.13 34.054H105.449C105.629 35.6086 105.795 37.1105 105.951 38.5598C106.107 40.009 106.267 41.4352 106.43 42.8351C106.593 44.2349 106.756 45.6216 106.922 46.9918C107.085 48.3619 107.265 49.7157 107.461 51.0628C107.265 51.0299 107.072 51.0134 106.885 51.0134H105.732C105.542 51.0134 105.353 51.0299 105.156 51.0628C104.977 48.9087 104.797 46.8205 104.618 44.7948C104.438 42.7692 104.216 40.704 103.956 38.5993H103.906C102.779 40.6414 101.669 42.6704 100.581 44.6861C99.494 46.7019 98.4599 48.8132 97.4791 51.0167H97.2596C96.2787 48.9746 95.2513 46.9325 94.1807 44.8805C93.11 42.8318 92.036 40.7369 90.9554 38.5993H90.9055C90.7925 39.6039 90.6628 40.6941 90.5265 41.8667C90.3868 43.0426 90.2605 44.1987 90.1474 45.3416C90.0344 46.4845 89.9346 47.5616 89.8548 48.5727C89.7717 49.5839 89.7318 50.4172 89.7318 51.0628C89.4691 51.0299 89.1832 51.0134 88.874 51.0134C88.5647 51.0134 88.2755 51.0299 88.0161 51.0628C88.2289 49.7519 88.4484 48.3652 88.6778 46.9094C88.9072 45.4503 89.1267 43.9846 89.3395 42.5123C89.5523 41.04 89.7484 39.5841 89.928 38.1514C90.1075 36.7186 90.2638 35.3517 90.3935 34.0572H90.8091C91.9363 36.3596 93.0768 38.5927 94.2305 40.7633L94.2239 40.7567Z" fill="white"/>
<path d="M109.998 37.4761C109.958 36.4386 109.911 35.4043 109.861 34.3668C110.596 34.3998 111.328 34.4261 112.056 34.4525C112.784 34.4755 113.515 34.4887 114.25 34.4887C114.985 34.4887 115.713 34.4755 116.435 34.4525C117.153 34.4294 117.881 34.3998 118.619 34.3668C118.57 34.6106 118.546 34.8543 118.546 35.0947C118.546 35.3352 118.57 35.5789 118.619 35.8227C118.094 35.7897 117.619 35.7568 117.183 35.7271C116.751 35.6942 116.292 35.6613 115.81 35.6283C115.328 35.5954 114.799 35.569 114.227 35.5427C113.655 35.5163 112.967 35.5065 112.166 35.5065C112.149 36.0236 112.129 36.5176 112.106 36.9886C112.082 37.4596 112.069 37.9932 112.069 38.5927C112.069 39.2251 112.072 39.841 112.082 40.4405C112.089 41.0399 112.096 41.4945 112.096 41.8008C112.814 41.8008 113.462 41.7942 114.034 41.7777C114.606 41.7613 115.128 41.7415 115.604 41.7184C116.079 41.6954 116.515 41.669 116.917 41.646C117.316 41.6196 117.698 41.5933 118.057 41.5603C118.008 41.8041 117.984 42.0544 117.984 42.3113C117.984 42.5551 118.008 42.7988 118.057 43.0392C117.632 42.9898 117.14 42.9503 116.575 42.9174C116.009 42.8844 115.447 42.8647 114.882 42.8581C114.317 42.8515 113.785 42.8416 113.286 42.835C112.787 42.8284 112.392 42.8218 112.096 42.8218C112.096 42.9668 112.092 43.1249 112.082 43.2961C112.076 43.4674 112.069 43.6815 112.069 43.9384V46.3428C112.069 47.2684 112.072 48.0292 112.082 48.6254C112.089 49.2249 112.102 49.6794 112.119 49.9857H113.835C114.456 49.9857 115.065 49.9725 115.663 49.9495C116.262 49.9264 116.824 49.8935 117.356 49.8507C117.888 49.8112 118.35 49.7486 118.742 49.6695C118.709 49.7848 118.689 49.91 118.683 50.045C118.673 50.1833 118.669 50.3085 118.669 50.4205C118.669 50.6807 118.693 50.8915 118.742 51.0529C118.008 51.02 117.273 51.0035 116.548 51.0035H112.096C111.361 51.0035 110.616 51.02 109.865 51.0529C109.915 50.0154 109.958 48.9844 110.001 47.9535C110.041 46.9258 110.061 45.8751 110.061 44.808V40.6282C110.061 39.5578 110.041 38.5071 110.001 37.4695L109.998 37.4761Z" fill="white"/>
</svg>
