<svg width="151" height="56" viewBox="0 0 151 56" fill="none" xmlns="http://www.w3.org/2000/svg">
<path d="M2.98438 17.5949C2.98438 16.3249 3.18973 15.194 3.60046 14.1992C4.01118 13.2074 4.58497 12.3668 5.32487 11.6774C6.06477 10.991 6.94661 10.4679 7.97643 10.1081C9.00625 9.74823 10.1327 9.56982 11.3558 9.56982C12.5789 9.56982 13.7295 9.74823 14.7594 10.1081C15.7892 10.4679 16.674 10.991 17.4109 11.6774C18.1508 12.3638 18.7246 13.2044 19.1353 14.1992C19.5461 15.194 19.7514 16.3249 19.7514 17.5949C19.7514 18.8649 19.5461 19.9957 19.1353 20.9906C18.7246 21.9854 18.1508 22.826 17.4109 23.5124C16.671 24.1988 15.7892 24.7128 14.7594 25.0484C13.7295 25.3841 12.594 25.5534 11.3558 25.5534C10.1176 25.5534 9.00625 25.3841 7.97643 25.0484C6.94661 24.7128 6.06175 24.2018 5.32487 23.5124C4.58497 22.826 4.01118 21.9854 3.60046 20.9906C3.18973 19.9988 2.98438 18.8649 2.98438 17.5949ZM17.5559 17.5949C17.5559 16.3551 17.3988 15.2817 17.0848 14.3776C16.7707 13.4735 16.3358 12.7266 15.7741 12.137C15.2154 11.5474 14.557 11.1089 13.805 10.8247C13.05 10.5405 12.2346 10.3983 11.3528 10.3983C10.471 10.3983 9.67669 10.5405 8.92471 10.8247C8.16971 11.1089 7.51438 11.5443 6.95568 12.137C6.39698 12.7266 5.95908 13.4735 5.645 14.3776C5.33092 15.2817 5.17387 16.3521 5.17387 17.5949C5.17387 18.8376 5.33092 19.9081 5.645 20.8122C5.95908 21.7163 6.39396 22.4631 6.95568 23.0528C7.51438 23.6424 8.17273 24.0808 8.92471 24.3651C9.67669 24.6493 10.4861 24.7914 11.3528 24.7914C12.2195 24.7914 13.05 24.6493 13.805 24.3651C14.557 24.0808 15.2154 23.6454 15.7741 23.0528C16.3328 22.4631 16.7707 21.7163 17.0848 20.8122C17.3988 19.9081 17.5559 18.8376 17.5559 17.5949Z" fill="white"/>
<path d="M29.1038 19.4427C27.165 17.3593 25.2231 15.285 23.2843 13.2258C23.2692 13.6431 23.2541 14.2055 23.239 14.9071C23.2239 15.6086 23.2179 16.5641 23.2179 17.7766C23.2179 18.0911 23.2209 18.4781 23.2299 18.9408C23.236 19.4034 23.245 19.8902 23.2511 20.3982C23.2571 20.9062 23.2692 21.4202 23.2843 21.9433C23.2994 22.4665 23.3145 22.9533 23.3296 23.4008C23.3447 23.8483 23.3598 24.2414 23.3749 24.577C23.39 24.9127 23.4051 25.1425 23.4202 25.2604C23.1816 25.2302 22.9189 25.215 22.638 25.215C22.339 25.215 22.0642 25.2302 21.8105 25.2604C21.8407 25.1122 21.874 24.8341 21.9102 24.4319C21.9464 24.0297 21.9797 23.5459 22.0099 22.9865C22.0401 22.4271 22.0733 21.8163 22.1095 21.1602C22.1458 20.504 22.176 19.8449 22.2001 19.1887C22.2213 18.5325 22.2424 17.8885 22.2575 17.2626C22.2726 16.6366 22.2786 16.0742 22.2786 15.5814C22.2786 14.1481 22.2756 12.9144 22.2666 11.8833C22.2605 10.8522 22.2394 10.0842 22.2092 9.57617H22.5686C23.4776 10.5619 24.453 11.6202 25.4889 12.7481C26.5248 13.876 27.5546 14.9887 28.5784 16.0863C29.5991 17.1839 30.5716 18.2241 31.4866 19.2008C32.4047 20.1805 33.205 21.012 33.8936 21.6984V18.6505C33.8936 17.0811 33.8815 15.5541 33.8603 14.0665C33.8392 12.5818 33.7879 11.1788 33.7154 9.86645C34.0144 9.94205 34.268 9.97833 34.4764 9.97833C34.6546 9.97833 34.8932 9.94205 35.1922 9.86645C35.162 10.196 35.1287 10.6889 35.0925 11.3451C35.0563 12.0012 35.017 12.7058 34.9808 13.4526C34.9445 14.1995 34.9083 14.9312 34.8811 15.6479C34.8509 16.3645 34.8358 16.939 34.8358 17.3744V18.72C34.8358 19.228 34.8388 19.7602 34.8479 20.3105C34.8539 20.8639 34.863 21.4202 34.869 21.9796C34.8751 22.539 34.8841 23.0621 34.8902 23.549C34.8962 24.0358 34.9022 24.4561 34.9022 24.8159V25.5537H34.5882C32.8728 23.5671 31.0457 21.5321 29.1038 19.4457V19.4427Z" fill="white"/>
<path d="M49.4377 24.7311C49.1477 24.8733 48.7944 25.0003 48.3867 25.1121C47.976 25.224 47.5169 25.3238 47.0096 25.4145C46.5022 25.5022 45.9737 25.5476 45.4211 25.5476C44.2433 25.5476 43.153 25.3782 42.1534 25.0426C41.1538 24.7069 40.2931 24.1959 39.5683 23.5065C38.8435 22.8201 38.2788 21.9795 37.868 20.9847C37.4573 19.9929 37.252 18.859 37.252 17.589C37.252 16.319 37.4573 15.1882 37.868 14.1933C38.2788 13.2015 38.8526 12.3609 39.5925 11.6715C40.3324 10.9851 41.2142 10.462 42.244 10.1022C43.2738 9.74237 44.4063 9.56396 45.6476 9.56396C46.6321 9.56396 47.532 9.66375 48.3444 9.86634C49.1568 10.0689 49.8786 10.3108 50.5037 10.5951C50.3829 10.8037 50.2863 11.0879 50.2138 11.4478C50.1383 11.8076 50.0809 12.1039 50.0356 12.3458L49.8997 12.3912C49.7517 12.2128 49.5403 12.0102 49.2746 11.7864C49.0058 11.5627 48.6917 11.345 48.3354 11.1363C47.976 10.9277 47.5743 10.7523 47.1274 10.6102C46.6804 10.4681 46.1881 10.3955 45.6506 10.3955C44.7687 10.3955 43.9533 10.5376 43.1983 10.8218C42.4433 11.1061 41.788 11.5415 41.2293 12.1342C40.6706 12.7238 40.2327 13.4707 39.9186 14.3748C39.6045 15.2789 39.4475 16.3493 39.4475 17.592C39.4475 18.8348 39.6045 19.9052 39.9186 20.8093C40.2327 21.7134 40.6676 22.4603 41.2293 23.0499C41.788 23.6396 42.4464 24.078 43.1983 24.3622C43.9503 24.6465 44.7687 24.7886 45.6506 24.7886C46.1881 24.7886 46.6834 24.7221 47.1394 24.586C47.5955 24.4499 48.0122 24.2897 48.3927 24.1052C48.7733 23.9177 49.1175 23.7182 49.4226 23.5005C49.7276 23.2828 49.9843 23.0923 50.1957 22.929L50.2863 23.0197L50.0839 24.3411C49.948 24.462 49.7366 24.592 49.4467 24.7342L49.4377 24.7311Z" fill="white"/>
<path d="M52.4812 12.7328C52.445 11.7773 52.4027 10.8218 52.3574 9.86328C53.0279 9.89352 53.6953 9.92073 54.3597 9.9419C55.0241 9.96307 55.6915 9.97516 56.3619 9.97516C57.0324 9.97516 57.6968 9.96307 58.3551 9.9419C59.0105 9.92073 59.6749 9.89352 60.3483 9.86328C60.303 10.087 60.2819 10.3108 60.2819 10.5346C60.2819 10.7583 60.303 10.9821 60.3483 11.2058C59.8712 11.1756 59.4333 11.1454 59.0377 11.1181C58.642 11.0879 58.2253 11.0577 57.7844 11.0274C57.3434 10.9972 56.8633 10.97 56.3408 10.9488C55.8183 10.9246 55.1902 10.9155 54.4593 10.9155C54.4442 11.3933 54.4261 11.8499 54.405 12.2823C54.3838 12.7147 54.3718 13.2076 54.3718 13.7609C54.3718 14.3445 54.3748 14.9099 54.3838 15.4633C54.3899 16.0166 54.3959 16.4339 54.3959 16.7181C55.0513 16.7181 55.6432 16.7121 56.1656 16.697C56.6881 16.6819 57.1653 16.6637 57.5971 16.6395C58.029 16.6184 58.4276 16.5942 58.7961 16.573C59.1615 16.5488 59.5088 16.5246 59.838 16.4944C59.7927 16.7181 59.7715 16.951 59.7715 17.1898C59.7715 17.4136 59.7927 17.6374 59.838 17.8611C59.4514 17.8158 58.9984 17.7795 58.485 17.7492C57.9716 17.719 57.4552 17.7009 56.9418 17.6918C56.4284 17.6857 55.9422 17.6767 55.4861 17.6706C55.0301 17.6646 54.6677 17.6585 54.402 17.6585C54.402 17.7946 54.3989 17.9397 54.3899 18.097C54.3808 18.2542 54.3778 18.4508 54.3778 18.6896V20.9091C54.3778 21.7618 54.3808 22.4633 54.3899 23.0166C54.3959 23.57 54.408 23.9873 54.4231 24.2715H55.9905C56.5582 24.2715 57.1139 24.2594 57.6575 24.2382C58.2011 24.2171 58.7175 24.1868 59.2007 24.1475C59.687 24.1112 60.1067 24.0538 60.4661 23.9782C60.4359 24.084 60.4178 24.1989 60.4087 24.3259C60.3997 24.4529 60.3967 24.5678 60.3967 24.6736C60.3967 24.9125 60.4178 25.106 60.4631 25.2572C59.7927 25.227 59.1252 25.2119 58.4608 25.2119H54.3989C53.7285 25.2119 53.049 25.227 52.3635 25.2572C52.4088 24.3017 52.448 23.3492 52.4873 22.3998C52.5235 21.4533 52.5447 20.4857 52.5447 19.497V15.6417C52.5447 14.6559 52.5265 13.6853 52.4873 12.7298L52.4812 12.7328Z" fill="white"/>
<path d="M68.4158 25.0123C68.1349 25.0123 67.9205 24.9307 67.7786 24.7735C67.6366 24.6162 67.5642 24.3834 67.5642 24.078C67.5642 23.7726 67.6517 23.2949 67.8239 22.6871C66.9692 24.2292 66.1085 25.0093 65.2629 25.0093C64.9066 25.0093 64.6227 24.8974 64.4173 24.6737C64.215 24.453 64.1093 24.1748 64.1093 23.8482C64.1093 23.5216 64.2301 23.0227 64.4777 22.297L65.4743 19.3882C65.6525 18.859 65.6887 18.6836 65.6887 18.6292C65.6887 18.5203 65.6434 18.478 65.5377 18.478C65.2237 18.478 64.8673 18.9255 64.4747 19.8115L64.0338 19.8478H63.9492L63.9794 19.7692C64.1969 19.1977 64.4868 18.7229 64.8431 18.3601C65.2025 17.9912 65.5649 17.8037 65.9213 17.8037C66.1448 17.8037 66.3411 17.8763 66.4981 18.0184C66.6582 18.1605 66.7397 18.3782 66.7397 18.6564C66.7397 18.853 66.6461 19.2309 66.4528 19.8085L65.432 22.805C65.2418 23.3795 65.1451 23.7605 65.1451 23.9359C65.1451 24.0871 65.1784 24.202 65.2448 24.2776C65.3082 24.3501 65.4018 24.3864 65.5317 24.3864C65.9817 24.3864 66.5343 23.8845 67.1746 22.8987C67.8209 21.8979 68.449 20.386 69.044 18.4085L69.195 17.9035H70.2882L68.8507 22.6296C68.6272 23.3765 68.5124 23.8331 68.5124 23.9812C68.5124 24.1022 68.5366 24.1929 68.5819 24.2473C68.6242 24.3018 68.6876 24.326 68.7782 24.326C69.1587 24.326 69.5332 23.8875 69.8896 23.0257L70.2852 22.9895H70.3697L70.3426 23.0681C69.8775 24.3501 69.2312 25.0033 68.4249 25.0033L68.4158 25.0123Z" fill="white"/>
<path d="M69.9354 23.0561H70.2766C69.8176 24.32 69.1985 24.9519 68.4163 24.9519C68.1505 24.9519 67.9542 24.8794 67.8214 24.7342C67.6885 24.5891 67.622 24.3684 67.622 24.0781C67.622 23.6668 67.767 23.0107 68.0599 22.1096C67.1147 24.0055 66.1815 24.9519 65.2604 24.9519C64.9191 24.9519 64.6534 24.8461 64.4601 24.6375C64.2668 24.4288 64.1702 24.1658 64.1702 23.8513C64.1702 23.5368 64.291 23.0319 64.5356 22.3213L65.5322 19.4124C65.6772 18.98 65.7496 18.72 65.7496 18.6353C65.7496 18.4962 65.6802 18.4237 65.5382 18.4237C65.197 18.4237 64.8255 18.8802 64.4208 19.7934H64.0312C64.2457 19.2249 64.5295 18.7623 64.8799 18.4025C65.2302 18.0427 65.5745 17.8643 65.9157 17.8643C66.1271 17.8643 66.3053 17.9308 66.4533 18.0638C66.6013 18.1969 66.6768 18.3934 66.6768 18.6595C66.6768 18.85 66.5831 19.228 66.3929 19.7934L65.3721 22.79C65.1789 23.3735 65.0822 23.7576 65.0822 23.939C65.0822 24.1053 65.1215 24.2323 65.197 24.32C65.2725 24.4077 65.3842 24.45 65.5292 24.45C66.0033 24.45 66.568 23.945 67.2204 22.9351C67.8727 21.9252 68.4978 20.4224 69.0988 18.4297L69.2377 17.9671H70.2102L68.7938 22.6176C68.5673 23.3735 68.4525 23.8301 68.4525 23.9874C68.4525 24.1234 68.4797 24.2232 68.5341 24.2897C68.5884 24.3563 68.67 24.3895 68.7757 24.3895C69.1864 24.3895 69.5729 23.945 69.9414 23.053L69.9354 23.0561Z" fill="white"/>
<path d="M68.3574 28.7225L68.5084 28.2477H68.7289C69.3329 28.2477 69.499 28.1933 69.5443 28.16C69.5896 28.1268 69.7013 27.9574 69.9429 27.1773L71.6251 21.6106C71.918 20.652 72.2532 19.6693 72.6217 18.6745C72.5945 18.7229 72.5643 18.7743 72.5341 18.8287L70.8972 21.4171L70.4744 21.4443H70.3687L71.9542 18.8983C72.3982 18.1907 72.6941 17.6827 72.8331 17.3894C72.972 17.0961 73.132 16.6456 73.3163 16.0529L73.4431 15.6235H74.5363L73.9625 17.5134L73.4129 19.0615C74.0713 18.224 74.7115 17.8006 75.3155 17.8006C75.7323 17.8006 76.0916 17.9942 76.3816 18.3782C76.6685 18.7561 76.8134 19.2369 76.8134 19.8024C76.8134 20.4615 76.6443 21.2235 76.3091 22.0672C75.9739 22.9138 75.4907 23.6214 74.8746 24.1717C74.2525 24.725 73.6243 25.0063 73.0022 25.0063C72.4586 25.0063 72.0871 24.7734 71.8969 24.3108L71.0029 27.2711C70.858 27.7458 70.8278 27.9121 70.8278 27.9665C70.8278 28.0421 70.858 28.1026 70.9244 28.157C70.9637 28.1873 71.0966 28.2417 71.5707 28.2417H72.0146L71.8636 28.7164H68.3574V28.7225ZM75.1705 18.3358C74.8957 18.3358 74.5182 18.5475 74.0471 18.9618C73.576 19.379 73.129 20.262 72.7243 21.5834L72.4012 22.6447C72.2593 23.1194 72.1838 23.4611 72.1838 23.6637C72.1838 23.9147 72.2532 24.1263 72.3891 24.2987C72.525 24.468 72.7092 24.5527 72.9569 24.5527C73.3314 24.5527 73.724 24.332 74.1226 23.8965C74.5273 23.4551 74.9048 22.7022 75.243 21.665C75.5813 20.6248 75.7534 19.8326 75.7534 19.3125C75.7534 18.9799 75.7021 18.7289 75.5994 18.5657C75.5027 18.4084 75.3608 18.3328 75.1645 18.3328L75.1705 18.3358Z" fill="white"/>
<path d="M70.8503 21.387H70.4788L72.007 18.9317C72.4539 18.2181 72.7499 17.7131 72.8888 17.4168C73.0277 17.1205 73.1908 16.6699 73.375 16.0712L73.4898 15.6812H74.4622L73.9126 17.4954L73.2331 19.4064C73.9669 18.3753 74.6615 17.8583 75.3199 17.8583C75.7185 17.8583 76.0598 18.0427 76.3407 18.4146C76.6215 18.7835 76.7604 19.2492 76.7604 19.8056C76.7604 20.4587 76.5943 21.2086 76.2591 22.0492C75.9239 22.8928 75.4528 23.5853 74.8397 24.1326C74.2267 24.6768 73.6166 24.952 73.0066 24.952C72.3965 24.952 72.0553 24.6768 71.8982 24.1265L70.953 27.2621C70.8352 27.6522 70.7748 27.8881 70.7748 27.9758C70.7748 28.0665 70.8141 28.1451 70.8926 28.2116C70.9711 28.2751 71.1976 28.3084 71.5751 28.3084H71.9405L71.8258 28.6652H68.4434L68.5581 28.3084H68.7363C69.2104 28.3084 69.4943 28.2751 69.5849 28.2116C69.6755 28.1481 69.8175 27.8094 70.0047 27.1986L71.6868 21.6319C72.0432 20.4708 72.4539 19.2855 72.916 18.076C72.8616 18.1516 72.7197 18.3935 72.4871 18.8047C72.46 18.847 72.3724 18.9861 72.2274 19.2189L70.8533 21.39L70.8503 21.387ZM72.3482 22.6267C72.2033 23.1075 72.1308 23.4522 72.1308 23.6639C72.1308 23.93 72.2033 24.1537 72.3482 24.3351C72.4932 24.5166 72.6985 24.6103 72.9643 24.6103C73.3569 24.6103 73.7616 24.3835 74.1753 23.933C74.5891 23.4824 74.9666 22.7326 75.3078 21.6803C75.6491 20.631 75.8212 19.8388 75.8212 19.3097C75.8212 18.965 75.7669 18.7049 75.6581 18.5326C75.5494 18.3602 75.3894 18.2725 75.1719 18.2725C74.882 18.2725 74.4924 18.4872 74.0122 18.9135C73.529 19.3399 73.0821 20.2228 72.6744 21.5624L72.3512 22.6237L72.3482 22.6267Z" fill="white"/>
<path d="M79.016 24.9702C78.5539 24.9702 78.1432 24.7887 77.7959 24.435C77.4486 24.0782 77.2734 23.4613 77.2734 22.5965C77.2734 21.9434 77.4275 21.2237 77.7295 20.4557C78.0345 19.6846 78.4754 19.0527 79.0401 18.5719C79.6079 18.0881 80.1726 17.8462 80.7132 17.8462C81.2115 17.8462 81.6253 18.0609 81.9454 18.4812C82.2625 18.8985 82.4225 19.4669 82.4225 20.1745C82.4225 21.0211 82.2474 21.8376 81.9001 22.5965C81.5528 23.3585 81.1088 23.9512 80.5834 24.3563C80.0549 24.7646 79.5264 24.9732 79.013 24.9732L79.016 24.9702ZM80.674 18.3209C80.0307 18.3209 79.4629 18.9499 78.9858 20.1896C78.5026 21.4475 78.258 22.5723 78.258 23.5278C78.258 23.806 78.3304 24.0449 78.4724 24.2384C78.6143 24.4289 78.8016 24.5226 79.0492 24.5226C79.7408 24.5226 80.3236 23.8423 80.7766 22.5058C81.2387 21.1451 81.4743 20.0959 81.4743 19.3823C81.4743 19.0255 81.4048 18.7533 81.2719 18.581C81.139 18.4086 80.9427 18.3239 80.674 18.3239V18.3209Z" fill="white"/>
<path d="M77.334 22.5962C77.334 21.9491 77.485 21.2416 77.787 20.4765C78.089 19.7115 78.5208 19.0917 79.0826 18.6169C79.6443 18.1422 80.1879 17.9033 80.7164 17.9033C81.1966 17.9033 81.5922 18.1059 81.9032 18.5141C82.2143 18.9223 82.3683 19.4757 82.3683 20.1711C82.3683 21.0148 82.1962 21.813 81.8519 22.569C81.5076 23.3249 81.0727 23.9055 80.5533 24.3076C80.0339 24.7098 79.5205 24.9124 79.0191 24.9124C78.5722 24.9124 78.1796 24.74 77.8413 24.3953C77.5031 24.0506 77.337 23.4489 77.337 22.5962H77.334ZM78.1977 23.5275C78.1977 23.8178 78.2732 24.0688 78.4242 24.2744C78.5752 24.48 78.7836 24.5828 79.0463 24.5828C79.7681 24.5828 80.363 23.8964 80.8311 22.5236C81.2992 21.1508 81.5318 20.1046 81.5318 19.3789C81.5318 19.007 81.4593 18.7258 81.3174 18.5413C81.1754 18.3569 80.961 18.2631 80.6741 18.2631C80.0006 18.2631 79.4178 18.8981 78.9316 20.1711C78.4423 21.4441 78.2007 22.5629 78.2007 23.5305L78.1977 23.5275Z" fill="white"/>
<path d="M87.3024 25.0126C87.0457 25.0126 86.8222 24.9339 86.638 24.7767C86.4507 24.6164 86.3541 24.3806 86.3541 24.0722C86.3541 23.8212 86.4779 23.3434 86.7286 22.6117L87.5953 20.1413C87.8248 19.4761 87.9396 19.0406 87.9396 18.8471C87.9396 18.6838 87.9064 18.5629 87.8369 18.4903C87.7705 18.4177 87.6648 18.3815 87.5198 18.3815C87.1333 18.3815 86.6078 18.8592 85.9615 19.8026C85.3062 20.7581 84.7354 22.0251 84.2643 23.5732L83.8535 24.9128H82.7422L84.1888 20.235C84.5089 19.1918 84.5753 18.8743 84.5753 18.7957C84.5753 18.7171 84.5632 18.6596 84.5391 18.6294C84.5179 18.6022 84.4847 18.5871 84.4334 18.5871C84.1404 18.5871 83.775 18.9741 83.3522 19.7391L82.9294 19.7694H82.8298L82.8781 19.6817C83.5697 18.4238 84.2129 17.813 84.8471 17.813C85.0736 17.813 85.2488 17.8825 85.3666 18.0247C85.4813 18.1637 85.5387 18.3694 85.5387 18.6415C85.5387 18.9892 85.439 19.4791 85.2397 20.102C86.1034 18.581 86.9581 17.813 87.7856 17.813C88.0966 17.813 88.3715 17.9188 88.601 18.1244C88.8335 18.3331 88.9513 18.6385 88.9513 19.0316C88.9513 19.2825 88.8426 19.7331 88.6161 20.4104L87.7493 22.9957C87.4504 23.8968 87.4051 24.1024 87.4051 24.1447C87.4051 24.2294 87.4262 24.2959 87.4655 24.3352C87.5047 24.3745 87.5651 24.3957 87.6467 24.3957C87.8128 24.3957 87.997 24.2959 88.1963 24.0994C88.4017 23.8968 88.6251 23.5884 88.8577 23.1832L89.3197 23.1529H89.4194L89.3711 23.2406C89.0449 23.8272 88.7067 24.2748 88.3684 24.5681C88.0211 24.8674 87.6618 25.0186 87.2994 25.0186L87.3024 25.0126Z" fill="white"/>
<path d="M88.9115 23.204H89.3252C89.0021 23.7876 88.6699 24.2261 88.3346 24.5163C87.9964 24.8066 87.6521 24.9548 87.3018 24.9548C87.0602 24.9548 86.8488 24.8792 86.6736 24.731C86.4985 24.5829 86.4109 24.3621 86.4109 24.0718C86.4109 23.8299 86.5347 23.3492 86.7824 22.6295L87.6491 20.1591C87.8817 19.4848 87.9964 19.0464 87.9964 18.8468C87.9964 18.6684 87.9571 18.5353 87.8786 18.4507C87.8001 18.363 87.6793 18.3207 87.5192 18.3207C87.1085 18.3207 86.574 18.8014 85.9126 19.766C85.2512 20.7306 84.6835 21.9915 84.2093 23.5548L83.8137 24.852H82.8262L84.2516 20.2498C84.5113 19.4032 84.6412 18.9163 84.6412 18.7924C84.6412 18.7017 84.6261 18.6321 84.5929 18.5898C84.5596 18.5474 84.5083 18.5263 84.4389 18.5263C84.1218 18.5263 83.7443 18.9194 83.3064 19.7086H82.9349C83.6083 18.4839 84.2486 17.8701 84.8526 17.8701C85.064 17.8701 85.221 17.9336 85.3267 18.0606C85.4324 18.1876 85.4838 18.3811 85.4838 18.6412C85.4838 19.1068 85.3026 19.8235 84.9402 20.7971C85.9156 18.8468 86.8669 17.8731 87.788 17.8731C88.084 17.8731 88.3437 17.9729 88.5642 18.1695C88.7846 18.366 88.8964 18.6533 88.8964 19.0312C88.8964 19.2731 88.7846 19.7267 88.5642 20.3919L87.6974 22.9772C87.4649 23.6727 87.3501 24.0628 87.3501 24.1444C87.3501 24.2472 87.3743 24.3228 87.4256 24.3742C87.477 24.4256 87.5525 24.4498 87.6491 24.4498C87.8333 24.4498 88.0296 24.347 88.241 24.1384C88.4524 23.9297 88.6759 23.6213 88.9115 23.2101V23.204Z" fill="white"/>
<path d="M97.8705 25.0123C97.5987 25.0123 97.3843 24.9095 97.2393 24.7039C97.0974 24.5044 97.0249 24.2594 97.0249 23.9722C97.0249 23.827 97.0491 23.6486 97.0944 23.446C96.8679 23.7605 96.5779 24.078 96.2306 24.3864C95.7595 24.8037 95.3095 25.0123 94.8928 25.0123C94.5002 25.0123 94.1559 24.843 93.872 24.5104C93.5912 24.1808 93.4492 23.7303 93.4492 23.1709C93.4492 22.4301 93.6636 21.6257 94.0864 20.7821C94.5092 19.9385 95.0679 19.2249 95.7474 18.6594C96.433 18.091 97.0279 17.8037 97.5202 17.8037C97.8131 17.8037 98.0517 17.8763 98.2238 18.0184C98.3537 18.1242 98.4503 18.2724 98.5168 18.4538L98.6738 17.9216H99.7671L98.3024 22.7445C98.094 23.4219 97.9883 23.8361 97.9883 23.9752C97.9883 24.0689 98.0064 24.1385 98.0457 24.1838C98.0819 24.2292 98.1393 24.2473 98.2208 24.2473C98.5681 24.2473 98.9849 23.827 99.456 22.9955L99.8486 22.9653H99.9392L99.903 23.0469C99.6916 23.5368 99.3835 23.9873 98.9879 24.3895C98.5862 24.7977 98.2087 25.0033 97.8645 25.0033L97.8705 25.0123ZM97.5957 18.3359C96.9645 18.3359 96.291 18.983 95.5995 20.259C94.8988 21.5471 94.5455 22.6085 94.5455 23.4158C94.5455 23.7605 94.5968 24.0206 94.6995 24.1929C94.7961 24.3562 94.9381 24.4348 95.1344 24.4348C95.4726 24.4348 95.8894 24.1748 96.3756 23.6668C96.8679 23.1527 97.2997 22.3484 97.6621 21.281C98.0245 20.2106 98.2087 19.4758 98.2087 19.0949C98.2087 18.8802 98.1544 18.6987 98.0457 18.5506C97.94 18.4054 97.792 18.3359 97.5957 18.3359Z" fill="white"/>
<path d="M98.7212 17.9851H99.6936L98.2531 22.7324C98.0417 23.4188 97.939 23.8331 97.939 23.9812C97.939 24.0901 97.9632 24.1717 98.0115 24.2292C98.0598 24.2866 98.1323 24.3138 98.229 24.3138C98.6004 24.3138 99.0293 23.8875 99.5155 23.0348H99.8567C99.6453 23.5216 99.3464 23.9631 98.9538 24.3592C98.5612 24.7553 98.2018 24.9549 97.8726 24.9549C97.6189 24.9549 97.4256 24.8611 97.2897 24.6706C97.1538 24.4801 97.0874 24.2503 97.0874 23.9752C97.0874 23.7544 97.1418 23.4642 97.2505 23.1074C97.0089 23.5246 96.6555 23.9359 96.1935 24.3441C95.7314 24.7523 95.2996 24.9549 94.8949 24.9549C94.5174 24.9549 94.1912 24.7946 93.9194 24.4741C93.6476 24.1536 93.5117 23.7182 93.5117 23.1739C93.5117 22.4391 93.7231 21.6529 94.1429 20.8123C94.5627 19.9717 95.1123 19.2702 95.7888 18.7108C96.4653 18.1484 97.0451 17.8672 97.5253 17.8672C97.8062 17.8672 98.0296 17.9337 98.1927 18.0698C98.3558 18.2058 98.4675 18.4084 98.5219 18.6776L98.7242 17.9881L98.7212 17.9851ZM94.4872 23.4128C94.4872 23.7696 94.5415 24.0387 94.6503 24.2201C94.759 24.4015 94.919 24.4922 95.1365 24.4922C95.4928 24.4922 95.9187 24.2292 96.42 23.7061C96.9183 23.183 97.3532 22.3786 97.7186 21.2992C98.084 20.2197 98.2682 19.4849 98.2682 19.0948C98.2682 18.8681 98.2108 18.6745 98.0931 18.5143C97.9753 18.354 97.8122 18.2754 97.5948 18.2754C96.9364 18.2754 96.2539 18.9255 95.5472 20.2287C94.8405 21.529 94.4872 22.5903 94.4872 23.4128Z" fill="white"/>
<path d="M58.3737 33.2613C57.9841 33.2613 57.5794 33.2643 57.1536 33.2734C56.7278 33.2825 56.302 33.2976 55.8792 33.3188C55.4564 33.3399 55.0426 33.3671 54.647 33.3974C54.2514 33.4276 53.8981 33.4639 53.584 33.5093C53.6595 33.2401 53.6957 33.0013 53.6957 32.7926C53.6957 32.6293 53.6565 32.3965 53.584 32.0972C54.5685 32.1274 55.5319 32.1546 56.4711 32.1758C57.4103 32.197 58.3737 32.209 59.3582 32.209C60.3427 32.209 61.3061 32.197 62.2453 32.1758C63.1846 32.1546 64.1479 32.1274 65.1325 32.0972C65.057 32.3965 65.0207 32.6354 65.0207 32.8138C65.0207 33.0073 65.057 33.2401 65.1325 33.5093C64.8184 33.4639 64.465 33.4276 64.0694 33.3974C63.6738 33.3671 63.2631 33.3399 62.8403 33.3188C62.4145 33.2976 61.9886 33.2825 61.5658 33.2734C61.14 33.2674 60.7323 33.2613 60.3458 33.2613C60.3005 34.8004 60.2793 36.3455 60.2793 37.8998V41.7551C60.2793 42.7408 60.2974 43.7114 60.3367 44.6669C60.3729 45.6224 60.4152 46.5658 60.4605 47.4911C60.1162 47.4609 59.7508 47.4458 59.3643 47.4458C58.9777 47.4458 58.6123 47.4609 58.268 47.4911C58.3133 46.5658 58.3526 45.6255 58.3918 44.6669C58.4281 43.7114 58.4492 42.7408 58.4492 41.7551V37.8998C58.4492 36.3455 58.4281 34.8004 58.3828 33.2613H58.3737Z" fill="white"/>
<path d="M66.825 35C66.7857 34.0505 66.7465 33.0829 66.7012 32.0972C66.8945 32.1274 67.0817 32.1546 67.2599 32.1758C67.4381 32.197 67.6193 32.209 67.7974 32.209C67.9756 32.209 68.1568 32.197 68.335 32.1758C68.5132 32.1546 68.7004 32.1274 68.8937 32.0972C68.8484 33.0829 68.8061 34.0505 68.7699 35C68.7336 35.9494 68.7125 36.917 68.7125 37.9028V41.7581C68.7125 42.7438 68.7306 43.7144 68.7699 44.67C68.8061 45.6255 68.8484 46.5689 68.8937 47.4941C68.5494 47.4639 68.184 47.4488 67.7974 47.4488C67.4109 47.4488 67.0424 47.4639 66.7012 47.4941C66.7465 46.5689 66.7857 45.6285 66.825 44.67C66.8612 43.7144 66.8824 42.7438 66.8824 41.7581V37.9028C66.8824 36.917 66.8643 35.9494 66.825 35Z" fill="white"/>
<path d="M76.7605 37.9903C77.8115 39.992 78.9138 42.0452 80.0614 44.1527C80.2094 43.8685 80.4268 43.4633 80.7107 42.9311C80.9946 42.402 81.3237 41.7912 81.6952 41.1048C82.0667 40.4184 82.4683 39.6746 82.8941 38.8733C83.32 38.075 83.7518 37.2646 84.1927 36.4422C84.6337 35.6197 85.0685 34.8123 85.5034 34.0231C85.9353 33.2309 86.3369 32.4931 86.7114 31.8037H87.0013C87.1644 33.237 87.3184 34.6249 87.4604 35.9614C87.6023 37.2979 87.7473 38.6132 87.8953 39.9044C88.0432 41.1955 88.1942 42.4746 88.3422 43.7355C88.4902 44.9994 88.6563 46.2482 88.8345 47.4879C88.6563 47.4577 88.4811 47.4426 88.309 47.4426H87.258C87.0859 47.4426 86.9107 47.4577 86.7326 47.4879C86.5695 45.5013 86.4034 43.5752 86.2403 41.7065C86.0772 39.8378 85.8749 37.9359 85.6363 35.9916H85.591C84.5612 37.8754 83.5495 39.7441 82.5589 41.6067C81.5653 43.4663 80.6231 45.4136 79.7262 47.4456H79.5238C78.6299 45.5618 77.6937 43.678 76.7152 41.7882C75.7367 39.8983 74.7583 37.9661 73.7707 35.9946H73.7254C73.6197 36.9199 73.505 37.9268 73.3781 39.0093C73.2513 40.0918 73.1365 41.1622 73.0308 42.2145C72.9251 43.2668 72.8375 44.2616 72.762 45.1959C72.6865 46.1303 72.6503 46.8953 72.6503 47.494C72.4117 47.4638 72.149 47.4486 71.8681 47.4486C71.5873 47.4486 71.3245 47.4638 71.0859 47.494C71.2792 46.2845 71.4816 45.0054 71.6899 43.6629C71.8983 42.3173 72.1007 40.9657 72.2939 39.608C72.4872 38.2504 72.6654 36.9078 72.8315 35.5864C72.9946 34.2651 73.1365 33.0072 73.2573 31.8098H73.6378C74.6677 33.9324 75.7065 35.9916 76.7605 37.9964V37.9903Z" fill="white"/>
<path d="M91.1542 34.9633C91.1149 34.0078 91.0757 33.0523 91.0304 32.0938C91.7008 32.124 92.3682 32.1512 93.0326 32.1724C93.697 32.1935 94.3644 32.2056 95.0349 32.2056C95.7053 32.2056 96.3697 32.1935 97.0281 32.1724C97.6834 32.1512 98.3478 32.124 99.0213 32.0938C98.976 32.3175 98.9548 32.5413 98.9548 32.765C98.9548 32.9888 98.976 33.2125 99.0213 33.4363C98.5441 33.4061 98.1062 33.3758 97.7106 33.3486C97.315 33.3184 96.8982 33.2881 96.4573 33.2579C96.0164 33.2277 95.5362 33.2004 95.0137 33.1793C94.4913 33.1551 93.8661 33.146 93.1323 33.146C93.1172 33.6238 93.0991 34.0804 93.0749 34.5128C93.0538 34.9452 93.0417 35.438 93.0417 35.9914C93.0417 36.575 93.0447 37.1404 93.0538 37.6938C93.0598 38.2471 93.0658 38.6644 93.0658 38.9486C93.7212 38.9486 94.3101 38.9426 94.8325 38.9274C95.355 38.9123 95.8322 38.8942 96.264 38.87C96.6959 38.8488 97.0945 38.8246 97.463 38.8035C97.8284 38.7793 98.1757 38.7551 98.5049 38.7249C98.4596 38.9486 98.4384 39.1814 98.4384 39.4203C98.4384 39.6441 98.4596 39.8678 98.5049 40.0916C98.1183 40.0462 97.6653 40.0099 97.1519 39.9797C96.6385 39.9495 96.1221 39.9313 95.6087 39.9223C95.0923 39.9162 94.6091 39.9071 94.153 39.9011C93.697 39.895 93.3376 39.889 93.0689 39.889C93.0689 40.0251 93.0658 40.1702 93.0568 40.3274C93.0507 40.4847 93.0447 40.6812 93.0447 40.9201V43.1395C93.0447 43.9922 93.0477 44.6938 93.0568 45.2471C93.0628 45.8004 93.0749 46.2177 93.09 46.502H94.6574C95.2251 46.502 95.7808 46.4899 96.3244 46.4687C96.868 46.4475 97.3844 46.4173 97.8676 46.378C98.3539 46.3417 98.7736 46.2842 99.133 46.2087C99.1028 46.3145 99.0847 46.4294 99.0756 46.5564C99.0666 46.6834 99.0636 46.7983 99.0636 46.9041C99.0636 47.143 99.0847 47.3365 99.13 47.4877C98.4596 47.4575 97.7891 47.4423 97.1277 47.4423H93.0658C92.3954 47.4423 91.7159 47.4575 91.0273 47.4877C91.0726 46.5322 91.1119 45.5797 91.1512 44.6303C91.1874 43.6838 91.2085 42.7162 91.2085 41.7274V37.8722C91.2085 36.8864 91.1904 35.9158 91.1512 34.9603L91.1542 34.9633Z" fill="white"/>
<path d="M128.229 11.2786C128.993 11.2786 129.612 10.6585 129.612 9.89367C129.612 9.12882 128.993 8.50879 128.229 8.50879C127.465 8.50879 126.846 9.12882 126.846 9.89367C126.846 10.6585 127.465 11.2786 128.229 11.2786Z" fill="white"/>
<path d="M148.017 29.2822V30.8848C140.814 29.3366 134.07 28.9526 128.335 30.8848H128.121C122.482 28.7077 115.681 29.4485 108.439 30.8848V29.2822C108.439 29.1129 108.578 28.8982 109.179 28.7016C111.025 28.0908 114.594 27.2563 118.593 26.712C118.78 26.6938 118.976 26.6636 119.163 26.6455C119.623 26.5789 120.091 26.5245 120.559 26.4761L119.36 26.2615L118.807 26.1586L109.738 24.5167C109.738 24.5167 109.786 23.5975 110.937 23.8031C113.353 24.2355 116.08 24.29 119.481 24.798C119.734 24.8342 119.976 24.8735 120.23 24.9189C120.613 24.9854 121.006 25.0489 121.41 25.1245C122.404 25.312 123.443 25.5478 124.557 25.8381C124.557 25.8381 121.673 24.1781 121.072 23.9241L120.341 23.5219L113.072 19.5185C113.072 19.5185 113.401 18.7293 114.413 19.2826C116.473 20.4075 118.131 21.0727 121.12 22.6208C121.25 22.6874 121.383 22.7509 121.522 22.8174C121.673 22.9021 121.83 22.9777 121.981 23.0714C123.582 23.915 125.24 24.8524 126.871 25.8956L123.938 21.7772L123.292 20.8761L122.646 19.966L119.825 16.0926C119.825 16.0926 120.32 15.0796 121.033 16.0835C122.165 17.6679 121.737 17.039 123.225 19.1889C123.506 19.6001 123.796 20.0144 124.086 20.4468C124.31 20.7643 124.536 21.0848 124.76 21.4113C125.847 22.9595 126.988 24.5802 128.187 26.2312C128.205 26.2494 128.214 26.2584 128.223 26.2796C128.233 26.2615 128.242 26.2524 128.251 26.2312C129.459 24.5802 130.603 22.9595 131.678 21.4113C131.914 21.0818 132.128 20.7643 132.352 20.4468C132.642 20.0144 132.941 19.6031 133.222 19.1889C134.701 17.042 134.27 17.671 135.405 16.0835C136.127 15.0796 136.622 16.0926 136.622 16.0926L133.792 19.966L133.146 20.8761L132.5 21.7772L129.576 25.8956C131.198 24.8554 132.856 23.918 134.457 23.0714C134.617 22.9777 134.765 22.9021 134.925 22.8174C135.055 22.7509 135.188 22.6874 135.317 22.6208C138.304 21.0727 139.974 20.4075 142.025 19.2826C143.037 18.7293 143.366 19.5185 143.366 19.5185L136.097 23.5219L135.375 23.9241C134.765 24.1781 131.881 25.8381 131.881 25.8381C132.995 25.5478 134.043 25.312 135.037 25.1245C135.429 25.0489 135.834 24.9824 136.208 24.9189C136.462 24.8705 136.716 24.8342 136.957 24.798C140.358 24.29 143.094 24.2355 145.501 23.8031C146.655 23.5975 146.7 24.5167 146.7 24.5167L137.643 26.1586L137.081 26.2615L135.882 26.4761C136.35 26.5245 136.818 26.5789 137.277 26.6455C137.474 26.6636 137.661 26.6938 137.857 26.712C141.847 27.2563 145.416 28.0908 147.271 28.7016C147.86 28.8982 148.001 29.1159 148.001 29.2822H148.017Z" fill="white"/>
<path d="M139.036 45.8433C136.723 45.3655 135.225 44.0804 133.688 42.3539C132.881 41.4528 132.048 40.5638 131.196 39.699C130.982 39.4752 130.764 39.2575 130.55 39.0428C129.632 38.1327 128.696 37.4403 128.237 36.2852C127.768 37.4403 126.832 38.1327 125.923 39.0428C125.7 39.2575 125.482 39.4752 125.268 39.699C124.416 40.5608 123.583 41.4528 122.776 42.3539C121.239 44.0804 119.741 45.3655 117.437 45.8433C116.603 46.0126 115.637 45.9007 115.864 44.8122C115.966 44.3344 116.359 43.9685 116.745 43.6571C118.72 42.0817 121.109 41.1353 123.247 39.7927C124.268 39.1457 125.223 38.3958 126.029 37.4947C126.421 37.0441 126.769 36.5664 127.059 36.0493C127.201 35.8044 127.34 35.5413 127.433 35.2722C127.518 34.991 127.629 34.6614 127.723 34.3893C127.741 34.3409 127.759 34.3046 127.799 34.2683C127.826 34.2502 127.865 34.2199 127.901 34.2199C128.013 34.2109 128.116 34.2018 128.191 34.2199C128.218 34.2109 128.24 34.2109 128.276 34.2199C128.36 34.2018 128.454 34.2109 128.566 34.2199C128.602 34.2199 128.641 34.2472 128.668 34.2683C128.705 34.3046 128.735 34.3439 128.744 34.3893C128.847 34.6614 128.949 34.991 129.043 35.2722C129.127 35.5444 129.266 35.8074 129.408 36.0493C129.698 36.5664 130.055 37.0441 130.447 37.4947C131.244 38.3958 132.208 39.1457 133.22 39.7927C135.364 41.1353 137.753 42.0817 139.731 43.6571C140.114 43.9655 140.498 44.3314 140.603 44.8122C140.839 45.9007 139.873 46.0126 139.039 45.8433H139.036Z" fill="white"/>
<path d="M134.125 46.9619C133.283 47.6845 131.773 46.6897 131.419 46.3722C130.791 45.8007 130.078 44.9753 129.508 44.0077C129.348 43.7446 128.581 42.4776 128.233 41.504C127.886 42.4807 127.11 43.7446 126.95 44.0077C126.388 44.9722 125.675 45.7977 125.047 46.3722C124.691 46.6897 123.175 47.6845 122.332 46.9619C122.003 46.6716 121.873 46.1727 122.033 45.7614C122.426 44.7757 123.419 44.2889 124.346 43.9139C125.479 43.4543 126.322 43.1247 126.989 42.018C127.288 41.5221 127.542 40.9869 127.88 40.5182C127.955 40.4154 128.058 40.3489 128.188 40.3398C128.206 40.3398 128.215 40.3398 128.236 40.3489C128.245 40.3398 128.254 40.3398 128.272 40.3398C128.402 40.3489 128.517 40.4154 128.59 40.5182C128.928 40.9869 129.169 41.5221 129.471 42.018C130.136 43.1247 130.99 43.4513 132.114 43.9139C133.041 44.2889 134.035 44.7757 134.427 45.7614C134.596 46.1727 134.463 46.6716 134.128 46.9619H134.125Z" fill="white"/>
</svg>
