<svg width="133" height="62" viewBox="0 0 133 62" fill="none" xmlns="http://www.w3.org/2000/svg">
<path d="M13.3665 18.9482C13.3665 17.5488 13.5926 16.3001 14.0414 15.2054C14.4903 14.1107 15.1221 13.1834 15.93 12.4268C16.738 11.6702 17.7089 11.0944 18.8361 10.6994C19.9633 10.3043 21.2002 10.1068 22.5401 10.1068C23.8801 10.1068 25.1403 10.3043 26.2675 10.6994C27.3946 11.0944 28.3655 11.6702 29.1735 12.4268C29.9815 13.1834 30.6132 14.1107 31.0621 15.2054C31.511 16.3001 31.7371 17.5488 31.7371 18.9482C31.7371 20.3475 31.511 21.5962 31.0621 22.6909C30.6132 23.7856 29.9815 24.713 29.1735 25.4696C28.3655 26.2261 27.3946 26.7919 26.2675 27.1602C25.1403 27.5318 23.8967 27.7159 22.5401 27.7159C21.1835 27.7159 19.9633 27.5318 18.8361 27.1602C17.7089 26.7886 16.738 26.2261 15.93 25.4696C15.1221 24.713 14.4903 23.7856 14.0414 22.6909C13.5926 21.5962 13.3665 20.3509 13.3665 18.9482ZM29.3364 18.9482C29.3364 17.5823 29.1635 16.4005 28.8211 15.4029C28.4786 14.4053 27.9998 13.5851 27.3847 12.9323C26.7729 12.2828 26.0513 11.8008 25.2267 11.4861C24.4021 11.1747 23.5044 11.0174 22.5401 11.0174C21.5759 11.0174 20.7047 11.1747 19.8801 11.4861C19.0555 11.8008 18.334 12.2795 17.7222 12.9323C17.1104 13.5818 16.6316 14.4053 16.2858 15.4029C15.9433 16.4005 15.7704 17.5789 15.7704 18.9482C15.7704 20.3174 15.9433 21.4958 16.2858 22.4934C16.6283 23.491 17.1071 24.3112 17.7222 24.964C18.334 25.6135 19.0555 26.0956 19.8801 26.4103C20.7047 26.7216 21.5925 26.879 22.5401 26.879C23.4878 26.879 24.3988 26.7216 25.2267 26.4103C26.0513 26.0989 26.7729 25.6169 27.3847 24.964C27.9965 24.3146 28.4753 23.491 28.8211 22.4934C29.1635 21.4958 29.3364 20.3174 29.3364 18.9482Z" fill="#00554E"/>
<path d="M41.9948 20.9836C39.8701 18.687 37.7421 16.4039 35.6174 14.1308C35.6008 14.5928 35.5842 15.2088 35.5675 15.9821C35.5509 16.7554 35.5443 17.8099 35.5443 19.1423C35.5443 19.4872 35.5476 19.9157 35.5576 20.4279C35.5642 20.9401 35.5742 21.4757 35.5808 22.0348C35.5875 22.5939 35.6008 23.163 35.6174 23.7388C35.634 24.3146 35.6507 24.8502 35.6673 25.3423C35.6839 25.8378 35.7005 26.2697 35.7172 26.6379C35.7338 27.0062 35.7504 27.2606 35.767 27.3912C35.5044 27.3577 35.2184 27.3409 34.9092 27.3409C34.5833 27.3409 34.2808 27.3577 34.0015 27.3912C34.0347 27.2271 34.0713 26.9225 34.1112 26.4772C34.1511 26.032 34.1877 25.503 34.2209 24.8837C34.2542 24.2677 34.2907 23.5948 34.3306 22.8717C34.3705 22.1486 34.4038 21.4221 34.4271 20.699C34.4503 19.9759 34.4736 19.2662 34.4869 18.5766C34.5035 17.8869 34.5102 17.2676 34.5102 16.7253C34.5102 15.1451 34.5069 13.786 34.4969 12.6511C34.4902 11.5162 34.467 10.6659 34.437 10.1068H34.8294C35.8269 11.1948 36.8942 12.3598 38.0314 13.6018C39.1685 14.8439 40.2957 16.0725 41.4162 17.281C42.5367 18.4929 43.6007 19.6345 44.6049 20.7158C45.6124 21.7937 46.4902 22.711 47.2416 23.471V20.1132C47.2416 18.3824 47.2283 16.7018 47.205 15.0615C47.1818 13.4244 47.1286 11.8811 47.0454 10.4315C47.3713 10.5152 47.6506 10.5554 47.88 10.5554C48.0762 10.5554 48.3389 10.5152 48.6647 10.4315C48.6315 10.7931 48.5949 11.3354 48.555 12.0619C48.5151 12.785 48.4719 13.5617 48.432 14.3819C48.3921 15.2054 48.3555 16.0122 48.3222 16.8023C48.289 17.5923 48.2724 18.2251 48.2724 18.7038V20.1868C48.2724 20.7459 48.2757 21.3318 48.2857 21.941C48.2923 22.5503 48.3023 23.163 48.3089 23.7823C48.3156 24.3983 48.3256 24.9774 48.3322 25.5097C48.3389 26.0454 48.3455 26.5107 48.3455 26.9057V27.7192H48.003C46.1211 25.5298 44.1194 23.2868 41.9948 20.9903V20.9836Z" fill="#00554E"/>
<path d="M64.2789 26.812C63.9597 26.9693 63.574 27.1099 63.1251 27.2338C62.6763 27.3577 62.1709 27.4682 61.6156 27.5686C61.0603 27.6657 60.4784 27.7159 59.8733 27.7159C58.5799 27.7159 57.3862 27.5318 56.2923 27.1602C55.195 26.7886 54.2507 26.2261 53.4594 25.4696C52.6647 24.713 52.0429 23.7856 51.594 22.6909C51.1452 21.5962 50.9191 20.3509 50.9191 18.9482C50.9191 17.5455 51.1452 16.3001 51.594 15.2054C52.0429 14.1107 52.6747 13.1834 53.4826 12.4268C54.2906 11.6702 55.2615 11.0944 56.3887 10.6994C57.5159 10.3043 58.7594 10.1068 60.116 10.1068C61.1966 10.1068 62.1808 10.2173 63.0719 10.4416C63.963 10.6625 64.7511 10.9304 65.4393 11.245C65.3097 11.476 65.2033 11.7874 65.1201 12.1824C65.037 12.5774 64.9738 12.9055 64.924 13.17L64.7777 13.2202C64.6147 13.0227 64.3853 12.8017 64.0927 12.554C63.7968 12.3063 63.4543 12.0686 63.062 11.8376C62.6696 11.6066 62.2274 11.4124 61.7386 11.2584C61.2465 11.1011 60.7079 11.0241 60.1193 11.0241C59.1551 11.0241 58.2573 11.1814 57.4327 11.4928C56.6081 11.8075 55.8866 12.2862 55.2748 12.939C54.663 13.5885 54.1842 14.412 53.8384 15.4096C53.4959 16.4072 53.323 17.5856 53.323 18.9549C53.323 20.3241 53.4959 21.5025 53.8384 22.5001C54.1809 23.4977 54.6597 24.3179 55.2748 24.9707C55.8866 25.6202 56.6081 26.1023 57.4327 26.417C58.2573 26.7283 59.1551 26.8856 60.1193 26.8856C60.7079 26.8856 61.2532 26.812 61.7519 26.6647C62.2507 26.5174 62.7095 26.34 63.1251 26.1324C63.5408 25.9282 63.9165 25.7039 64.2523 25.4662C64.5881 25.2285 64.8708 25.0176 65.0969 24.8368L65.1966 24.9373L64.9772 26.3935C64.8309 26.5241 64.5981 26.668 64.2789 26.8254V26.812Z" fill="#00554E"/>
<path d="M67.6139 13.5885C67.574 12.5339 67.5274 11.4827 67.4775 10.4282C68.2124 10.4617 68.9439 10.4885 69.672 10.5152C70.4002 10.5387 71.1317 10.5521 71.8665 10.5521C72.6014 10.5521 73.3295 10.5387 74.0511 10.5152C74.7693 10.4918 75.4974 10.4617 76.2356 10.4282C76.1857 10.6759 76.1624 10.9237 76.1624 11.168C76.1624 11.4124 76.1857 11.6602 76.2356 11.9079C75.7136 11.8744 75.2348 11.8409 74.7992 11.8108C74.3669 11.7773 73.9081 11.7439 73.426 11.7104C72.9438 11.6769 72.4152 11.6501 71.8433 11.6233C71.2714 11.5966 70.5831 11.5865 69.7818 11.5865C69.7651 12.1121 69.7452 12.6143 69.7219 13.093C69.6986 13.5717 69.6853 14.114 69.6853 14.7233C69.6853 15.3661 69.6887 15.9921 69.6986 16.6014C69.7053 17.2107 69.7119 17.6727 69.7119 17.984C70.4301 17.984 71.0785 17.9773 71.6504 17.9606C72.2223 17.9439 72.7443 17.9238 73.2198 17.9003C73.6953 17.8769 74.1309 17.8501 74.5332 17.8267C74.9322 17.7999 75.3146 17.7731 75.6737 17.7396C75.6238 17.9874 75.6005 18.2418 75.6005 18.5029C75.6005 18.7507 75.6238 18.9984 75.6737 19.2428C75.2481 19.1926 74.7526 19.1524 74.1907 19.1189C73.6255 19.0854 73.0635 19.0653 72.4983 19.0586C71.933 19.052 71.401 19.0419 70.9023 19.0352C70.4035 19.0285 70.0079 19.0218 69.7119 19.0218C69.7119 19.1691 69.7086 19.3298 69.6986 19.5039C69.6887 19.678 69.6853 19.8956 69.6853 20.1567V22.6005C69.6853 23.5413 69.6887 24.3146 69.6986 24.9205C69.7053 25.5298 69.7186 25.9918 69.7352 26.3031H71.4509C72.0727 26.3031 72.6812 26.2897 73.2797 26.2663C73.8748 26.2429 74.4401 26.2094 74.9721 26.1659C75.5041 26.1257 75.9663 26.0621 76.3586 25.9818C76.3254 26.0989 76.3054 26.2261 76.2988 26.3634C76.2888 26.504 76.2855 26.6312 76.2855 26.745C76.2855 27.0095 76.3087 27.2238 76.3586 27.3878C75.6238 27.3543 74.8923 27.3376 74.1641 27.3376H69.7119C68.9771 27.3376 68.2323 27.3543 67.4809 27.3878C67.5307 26.3333 67.574 25.2854 67.6172 24.2376C67.6571 23.1931 67.677 22.1252 67.677 21.0405V16.7922C67.677 15.7042 67.6571 14.6363 67.6172 13.5818L67.6139 13.5885Z" fill="#00554E"/>
<path d="M85.0768 27.12C84.7709 27.12 84.5348 27.0329 84.3786 26.8588C84.2223 26.6848 84.1458 26.427 84.1458 26.0922C84.1458 25.7574 84.2422 25.2285 84.4284 24.5623C83.4908 26.263 82.5465 27.1233 81.6188 27.1233C81.2298 27.1233 80.9172 26.9994 80.6945 26.7551C80.4717 26.5107 80.3586 26.206 80.3586 25.8445C80.3586 25.4829 80.4916 24.9372 80.761 24.1371L81.8516 20.93C82.0477 20.3475 82.0876 20.1533 82.0876 20.0931C82.0876 19.9726 82.0411 19.9257 81.9214 19.9257C81.5789 19.9257 81.1866 20.4212 80.7576 21.3953L80.2722 21.4355H80.1791L80.2123 21.3485C80.4517 20.7191 80.7676 20.1935 81.1566 19.7951C81.5523 19.3867 81.948 19.1825 82.337 19.1825C82.5831 19.1825 82.7959 19.2628 82.9688 19.4168C83.145 19.5742 83.2348 19.8119 83.2348 20.1199C83.2348 20.3375 83.1317 20.7526 82.9222 21.392L81.805 24.6962C81.5955 25.3289 81.4891 25.7507 81.4891 25.9449C81.4891 26.1123 81.5257 26.2395 81.5989 26.3232C81.6687 26.4036 81.7718 26.4437 81.9147 26.4437C82.4102 26.4437 83.0153 25.8913 83.7136 24.8033C84.4218 23.7019 85.1134 22.0348 85.7618 19.8554L85.9247 19.2997H87.125L85.549 24.5087C85.3029 25.3323 85.1799 25.8344 85.1799 25.9985C85.1799 26.1324 85.2065 26.2295 85.253 26.2931C85.2996 26.3533 85.3694 26.3801 85.4691 26.3801C85.8881 26.3801 86.2971 25.898 86.6861 24.9473L87.1184 24.9071H87.2115L87.1815 24.9942C86.6695 26.4103 85.9646 27.1267 85.0801 27.1267L85.0768 27.12Z" fill="#00554E"/>
<path d="M86.746 24.9674H87.1184C86.6163 26.3601 85.9347 27.0564 85.0801 27.0564C84.7909 27.0564 84.5747 26.976 84.4284 26.8153C84.2821 26.6547 84.2123 26.4136 84.2123 26.0922C84.2123 25.6403 84.3719 24.9172 84.6911 23.9229C83.657 26.0119 82.6329 27.0564 81.6221 27.0564C81.2497 27.0564 80.9571 26.9392 80.7443 26.7082C80.5315 26.4772 80.4251 26.186 80.4251 25.8412C80.4251 25.4963 80.5581 24.9406 80.8241 24.1539L81.9147 20.9468C82.0743 20.4714 82.1541 20.1835 82.1541 20.0898C82.1541 19.9358 82.0777 19.8588 81.9247 19.8588C81.5523 19.8588 81.1433 20.3609 80.7011 21.3686H80.2755C80.5116 20.7426 80.8208 20.2337 81.2065 19.8387C81.5922 19.4436 81.9679 19.2461 82.3403 19.2461C82.5698 19.2461 82.7659 19.3198 82.9289 19.4637C83.0918 19.6077 83.1716 19.8286 83.1716 20.1199C83.1716 20.3274 83.0685 20.7459 82.8624 21.3686L81.7452 24.6728C81.5324 25.3156 81.426 25.7374 81.426 25.9416C81.426 26.1257 81.4659 26.2663 81.549 26.3601C81.6321 26.4538 81.7518 26.504 81.9114 26.504C82.4301 26.504 83.0486 25.9483 83.7634 24.8335C84.4783 23.7187 85.1633 22.0649 85.8216 19.8688L85.9712 19.3599H87.0352L85.4825 24.4853C85.2331 25.3189 85.1101 25.8211 85.1101 25.9952C85.1101 26.1425 85.14 26.2563 85.1998 26.3299C85.2597 26.4036 85.3461 26.4404 85.4658 26.4404C85.9147 26.4404 86.3403 25.9483 86.7426 24.9674H86.746Z" fill="#00554E"/>
<path d="M85.017 31.2109L85.1832 30.6887H85.4259C86.0876 30.6887 86.2705 30.6284 86.3204 30.5949C86.3702 30.5581 86.4933 30.3706 86.7559 29.5136L88.6013 23.3806C88.9238 22.326 89.2896 21.2414 89.6919 20.1467C89.662 20.2002 89.6287 20.2571 89.5955 20.3174L87.8033 23.1697L87.3411 23.1998H87.2248L88.9637 20.3944C89.4525 19.6144 89.775 19.0553 89.928 18.7306C90.0809 18.4092 90.2572 17.9104 90.4567 17.2576L90.593 16.7822H91.7933L91.1649 18.8645L90.5631 20.5718C91.2846 19.6479 91.9862 19.1825 92.6478 19.1825C93.1034 19.1825 93.499 19.3968 93.8149 19.8186C94.1308 20.2371 94.2904 20.766 94.2904 21.3887C94.2904 22.1151 94.1042 22.9554 93.7351 23.8861C93.366 24.8201 92.8374 25.6001 92.1624 26.2061C91.4808 26.8153 90.7925 27.1233 90.1109 27.1233C89.5157 27.1233 89.1067 26.8656 88.9006 26.3601L87.9197 29.6241C87.7601 30.1463 87.7268 30.3305 87.7268 30.3907C87.7268 30.4711 87.7601 30.5414 87.8332 30.5983C87.8731 30.6318 88.0228 30.692 88.5415 30.692H89.0269L88.8607 31.2143H85.0203L85.017 31.2109ZM92.4849 19.7617C92.1823 19.7617 91.77 19.9927 91.2547 20.4513C90.736 20.9133 90.2505 21.8841 89.805 23.3438L89.4492 24.5121C89.2929 25.0344 89.2131 25.4126 89.2131 25.6369C89.2131 25.9115 89.2896 26.1491 89.4392 26.3366C89.5888 26.5241 89.7917 26.6145 90.0643 26.6145C90.4766 26.6145 90.9055 26.3701 91.3444 25.8914C91.7867 25.4026 92.2023 24.5757 92.5714 23.4341C92.9438 22.2892 93.13 21.4155 93.13 20.843C93.13 20.4747 93.0734 20.2002 92.9637 20.0195C92.8573 19.8487 92.701 19.765 92.4849 19.765V19.7617Z" fill="#00554E"/>
<path d="M87.7467 23.1261H87.3378L89.0136 20.4212C89.5057 19.6344 89.8249 19.0787 89.9811 18.7506C90.1341 18.4226 90.3136 17.9304 90.5131 17.2676L90.6362 16.8391H91.7002L91.0983 18.8377L90.3535 20.9434C91.1582 19.8052 91.9196 19.2394 92.6411 19.2394C93.08 19.2394 93.4524 19.4436 93.7583 19.852C94.0642 20.2605 94.2205 20.7693 94.2205 21.382C94.2205 22.1017 94.0376 22.9253 93.6719 23.8559C93.3061 24.7833 92.7874 25.5499 92.1158 26.1491C91.4441 26.7517 90.7758 27.0497 90.1075 27.0497C89.4392 27.0497 89.0634 26.745 88.8939 26.1391L87.8565 29.5939C87.7268 30.0225 87.6603 30.2836 87.6603 30.3807C87.6603 30.4811 87.7035 30.5681 87.79 30.6384C87.8764 30.7087 88.1258 30.7456 88.5381 30.7456H88.9371L88.8141 31.1372H85.1067L85.2297 30.7456H85.4259C85.9446 30.7456 86.2571 30.7087 86.3569 30.6384C86.4566 30.5681 86.6096 30.1965 86.8191 29.5236L88.6644 23.3906C89.0535 22.1118 89.5023 20.8028 90.0111 19.4704C89.9512 19.5541 89.7949 19.8219 89.5422 20.2739C89.5123 20.3207 89.4192 20.4747 89.2596 20.7291L87.7534 23.1228L87.7467 23.1261ZM89.3893 24.492C89.2297 25.0209 89.1499 25.4026 89.1499 25.6336C89.1499 25.9248 89.2297 26.1726 89.3893 26.3734C89.5489 26.5743 89.775 26.6781 90.0643 26.6781C90.4965 26.6781 90.9387 26.4303 91.3909 25.9315C91.8431 25.4361 92.2554 24.6058 92.6312 23.4509C93.0069 22.2925 93.1931 21.4221 93.1931 20.8396C93.1931 20.458 93.1332 20.1734 93.0169 19.9826C92.8972 19.7918 92.7209 19.698 92.4849 19.698C92.1657 19.698 91.7401 19.9324 91.2114 20.4044C90.6827 20.8731 90.1939 21.8473 89.7451 23.3236L89.3893 24.492Z" fill="#00554E"/>
<path d="M96.6976 27.0765C96.1922 27.0765 95.74 26.879 95.361 26.4873C94.9819 26.0956 94.7891 25.4126 94.7891 24.4585C94.7891 23.7388 94.9586 22.9454 95.2911 22.0984C95.6236 21.2514 96.1091 20.5517 96.7275 20.0228C97.3526 19.4905 97.9678 19.2227 98.5596 19.2227C99.1049 19.2227 99.5604 19.457 99.9096 19.9224C100.255 20.381 100.432 21.0104 100.432 21.7871C100.432 22.7211 100.239 23.6183 99.8597 24.4552C99.4806 25.2955 98.9952 25.9483 98.4166 26.3935C97.8381 26.8421 97.2595 27.0731 96.6976 27.0731V27.0765ZM98.5164 19.7449C97.8115 19.7449 97.1864 20.4379 96.6644 21.8071C96.1357 23.1964 95.8664 24.4318 95.8664 25.4863C95.8664 25.7909 95.9462 26.0554 96.1024 26.2697C96.2554 26.4806 96.4615 26.5844 96.7342 26.5844C97.4923 26.5844 98.1307 25.8345 98.6294 24.3615C99.1348 22.8617 99.3942 21.7034 99.3942 20.9166C99.3942 20.5216 99.321 20.2237 99.1714 20.0328C99.0251 19.842 98.8123 19.7516 98.5164 19.7516V19.7449Z" fill="#00554E"/>
<path d="M94.8523 24.4585C94.8523 23.7455 95.0186 22.9655 95.3477 22.1252C95.6802 21.2815 96.1524 20.5986 96.7675 20.0764C97.3826 19.5541 97.9811 19.2896 98.5597 19.2896C99.085 19.2896 99.5206 19.5139 99.8597 19.9625C100.199 20.4111 100.368 21.0204 100.368 21.7871C100.368 22.7144 100.179 23.5982 99.7999 24.4284C99.4208 25.262 98.9487 25.9014 98.3768 26.3433C97.8049 26.7852 97.2463 27.0095 96.6977 27.0095C96.2056 27.0095 95.7766 26.8187 95.4076 26.4371C95.0385 26.0554 94.8523 25.3959 94.8523 24.4552V24.4585ZM95.7999 25.4863C95.7999 25.8077 95.883 26.0822 96.0493 26.3065C96.2155 26.5341 96.4417 26.6446 96.7309 26.6446C97.5223 26.6446 98.174 25.888 98.686 24.3782C99.1981 22.865 99.4541 21.7101 99.4541 20.9133C99.4541 20.5015 99.3743 20.1935 99.218 19.9893C99.0617 19.7851 98.8257 19.6813 98.5131 19.6813C97.775 19.6813 97.1366 20.381 96.6012 21.7837C96.0659 23.1864 95.7999 24.4184 95.7999 25.4863Z" fill="#00554E"/>
<path d="M105.778 27.12C105.499 27.12 105.253 27.0329 105.05 26.8589C104.844 26.6848 104.737 26.4237 104.737 26.0822C104.737 25.8043 104.87 25.2787 105.15 24.4719L106.097 21.7469C106.347 21.0137 106.476 20.535 106.476 20.3207C106.476 20.1433 106.44 20.0094 106.363 19.9257C106.29 19.8454 106.174 19.8052 106.018 19.8052C105.592 19.8052 105.017 20.3308 104.312 21.3719C103.594 22.4231 102.969 23.8225 102.453 25.5298L102.004 27.0062H100.787L102.373 21.8507C102.723 20.699 102.796 20.3509 102.796 20.2638C102.796 20.1768 102.782 20.1165 102.756 20.0797C102.732 20.0496 102.696 20.0328 102.639 20.0328C102.317 20.0328 101.918 20.4614 101.452 21.3016L100.987 21.3351H100.877L100.93 21.238C101.688 19.8521 102.393 19.1792 103.088 19.1792C103.338 19.1792 103.527 19.2562 103.657 19.4135C103.783 19.5642 103.843 19.7952 103.843 20.0931C103.843 20.4747 103.733 21.0137 103.517 21.7034C104.461 20.0261 105.399 19.1792 106.307 19.1792C106.646 19.1792 106.949 19.293 107.201 19.5206C107.457 19.7483 107.587 20.0864 107.587 20.5216C107.587 20.7995 107.467 21.2949 107.221 22.0415L106.274 24.8904C105.944 25.8847 105.895 26.109 105.895 26.1558C105.895 26.2496 105.918 26.3199 105.961 26.3634C106.004 26.4069 106.071 26.4304 106.161 26.4304C106.343 26.4304 106.546 26.3199 106.762 26.1056C106.988 25.8813 107.231 25.5432 107.487 25.098L107.996 25.0645H108.106L108.052 25.1616C107.697 25.8077 107.324 26.2998 106.952 26.6245C106.573 26.9559 106.177 27.1233 105.778 27.1233V27.12Z" fill="#00554E"/>
<path d="M107.544 25.1281H107.996C107.64 25.7709 107.278 26.2529 106.909 26.5743C106.54 26.8957 106.164 27.0564 105.778 27.0564C105.512 27.0564 105.283 26.976 105.09 26.812C104.897 26.648 104.801 26.4069 104.801 26.0855C104.801 25.8177 104.937 25.2888 105.21 24.4954L106.157 21.7737C106.41 21.0305 106.54 20.5484 106.54 20.3274C106.54 20.1299 106.496 19.986 106.41 19.8889C106.324 19.7918 106.194 19.7449 106.014 19.7449C105.565 19.7449 104.977 20.2772 104.255 21.3385C103.534 22.3997 102.909 23.7923 102.39 25.5131L101.955 26.9426H100.874L102.433 21.8707C102.716 20.9367 102.859 20.4011 102.859 20.2638C102.859 20.1634 102.842 20.0898 102.806 20.0395C102.769 19.9893 102.713 19.9692 102.636 19.9692C102.287 19.9692 101.875 20.4044 101.396 21.2715H100.987C101.725 19.919 102.427 19.2461 103.088 19.2461C103.318 19.2461 103.491 19.3164 103.607 19.457C103.723 19.5976 103.78 19.8085 103.78 20.0964C103.78 20.6087 103.58 21.3987 103.185 22.47C104.255 20.3207 105.296 19.2461 106.307 19.2461C106.633 19.2461 106.915 19.3533 107.158 19.5709C107.401 19.7885 107.521 20.1065 107.521 20.5216C107.521 20.7894 107.401 21.2882 107.158 22.0214L106.211 24.8703C105.958 25.6369 105.828 26.0655 105.828 26.1558C105.828 26.2697 105.855 26.3534 105.911 26.4103C105.968 26.4672 106.048 26.494 106.154 26.494C106.354 26.494 106.57 26.3801 106.802 26.1491C107.032 25.9215 107.278 25.58 107.537 25.1281H107.544Z" fill="#00554E"/>
<path d="M117.363 27.12C117.063 27.12 116.831 27.0062 116.671 26.7819C116.515 26.5643 116.438 26.2931 116.438 25.9751C116.438 25.8144 116.465 25.6202 116.515 25.3959C116.269 25.7441 115.949 26.0922 115.567 26.4303C115.052 26.889 114.56 27.12 114.101 27.12C113.668 27.12 113.293 26.9325 112.984 26.5643C112.678 26.1994 112.521 25.7039 112.521 25.0879C112.521 24.2711 112.757 23.3873 113.22 22.4566C113.682 21.5259 114.297 20.7392 115.042 20.1199C115.793 19.4938 116.448 19.1758 116.987 19.1758C117.309 19.1758 117.569 19.2562 117.758 19.4135C117.901 19.5307 118.008 19.6914 118.077 19.8956L118.25 19.3097H119.451L117.848 24.6259C117.622 25.3725 117.506 25.8278 117.506 25.9818C117.506 26.0855 117.525 26.1625 117.569 26.2127C117.609 26.2596 117.672 26.283 117.758 26.283C118.141 26.283 118.596 25.8211 119.112 24.9038L119.54 24.8703H119.64L119.6 24.9607C119.368 25.4997 119.032 25.9985 118.599 26.4404C118.161 26.889 117.748 27.1166 117.369 27.1166L117.363 27.12ZM117.06 19.7617C116.368 19.7617 115.63 20.4747 114.872 21.8808C114.107 23.3002 113.718 24.4686 113.718 25.3591C113.718 25.7374 113.775 26.0253 113.888 26.2127C113.994 26.3935 114.151 26.4806 114.363 26.4806C114.732 26.4806 115.191 26.196 115.723 25.6336C116.262 25.0645 116.734 24.1807 117.133 23.0056C117.532 21.8272 117.732 21.0171 117.732 20.5986C117.732 20.3643 117.672 20.1634 117.552 19.9994C117.436 19.8387 117.276 19.7617 117.06 19.7617Z" fill="#00554E"/>
<path d="M118.294 19.3767H119.358L117.778 24.6092C117.549 25.3658 117.432 25.8244 117.432 25.9851C117.432 26.1056 117.459 26.196 117.512 26.2563C117.565 26.3165 117.645 26.35 117.752 26.35C118.161 26.35 118.629 25.8813 119.161 24.9406H119.534C119.304 25.4762 118.975 25.9617 118.546 26.4002C118.117 26.8388 117.722 27.0564 117.363 27.0564C117.083 27.0564 116.87 26.9526 116.724 26.745C116.578 26.5375 116.501 26.2797 116.501 25.9784C116.501 25.734 116.561 25.416 116.678 25.0243C116.412 25.4829 116.026 25.9349 115.52 26.3868C115.015 26.8354 114.54 27.0597 114.097 27.0597C113.685 27.0597 113.326 26.8823 113.03 26.5274C112.731 26.1726 112.581 25.6972 112.581 25.0946C112.581 24.2844 112.811 23.4174 113.273 22.4934C113.735 21.5694 114.337 20.7961 115.078 20.1768C115.82 19.5574 116.455 19.2495 116.98 19.2495C117.286 19.2495 117.532 19.3231 117.712 19.4737C117.891 19.621 118.011 19.8453 118.071 20.1433L118.294 19.3834V19.3767ZM113.655 25.3591C113.655 25.7507 113.715 26.0487 113.831 26.2462C113.951 26.4471 114.127 26.5442 114.363 26.5442C114.752 26.5442 115.221 26.2563 115.77 25.6771C116.318 25.0979 116.791 24.2141 117.193 23.0257C117.595 21.8339 117.795 21.0271 117.795 20.5986C117.795 20.3475 117.732 20.1366 117.605 19.9592C117.479 19.7817 117.296 19.6947 117.06 19.6947C116.338 19.6947 115.59 20.4111 114.816 21.8473C114.041 23.2835 113.655 24.4518 113.655 25.3557V25.3591Z" fill="#00554E"/>
<path d="M74.0744 36.2124C73.6488 36.2124 73.2032 36.2158 72.7377 36.2258C72.2722 36.2359 71.8067 36.2526 71.3379 36.276C70.8691 36.2995 70.4202 36.3296 69.988 36.3631C69.5557 36.3965 69.1667 36.4367 68.8242 36.4869C68.904 36.1923 68.9472 35.9279 68.9472 35.6969C68.9472 35.5161 68.9073 35.2617 68.8242 34.9302C69.9048 34.9637 70.9589 34.9905 71.9896 35.0173C73.0204 35.0407 74.0744 35.0541 75.155 35.0541C76.2356 35.0541 77.2897 35.0407 78.3204 35.0173C79.3512 34.9938 80.4052 34.9637 81.4858 34.9302C81.4027 35.2583 81.3628 35.5228 81.3628 35.7203C81.3628 35.9346 81.4027 36.189 81.4858 36.4869C81.1433 36.4367 80.7543 36.3965 80.3187 36.3631C79.8865 36.3296 79.4343 36.3028 78.9688 36.276C78.5033 36.2526 78.0345 36.2359 77.569 36.2258C77.1035 36.2191 76.6579 36.2124 76.2323 36.2124C76.1824 37.9097 76.1592 39.6137 76.1592 41.3244V45.5727C76.1592 46.6607 76.1791 47.7286 76.219 48.7832C76.2589 49.8377 76.3055 50.8755 76.3553 51.8965C75.9796 51.8631 75.5773 51.8463 75.1517 51.8463C74.7261 51.8463 74.3271 51.8631 73.9514 51.8965C74.0012 50.8755 74.0445 49.8377 74.0844 48.7832C74.1243 47.7286 74.1442 46.6607 74.1442 45.5727V41.3244C74.1442 39.6137 74.1209 37.9097 74.0711 36.2124H74.0744Z" fill="#00554E"/>
<path d="M83.3345 38.1273C83.2946 37.0828 83.248 36.0149 83.1981 34.9302C83.4109 34.9637 83.6138 34.9905 83.8099 35.0173C84.0061 35.0407 84.2023 35.0541 84.3985 35.0541C84.5946 35.0541 84.7908 35.0407 84.987 35.0173C85.1832 34.9938 85.386 34.9637 85.5988 34.9302C85.5489 36.0182 85.5057 37.0828 85.4625 38.1273C85.4226 39.1752 85.4026 40.2397 85.4026 41.3244V45.5727C85.4026 46.6607 85.4226 47.7286 85.4625 48.7832C85.5024 49.8377 85.5489 50.8755 85.5988 51.8965C85.2231 51.8631 84.8207 51.8463 84.3985 51.8463C83.9762 51.8463 83.5739 51.8631 83.1948 51.8965C83.2447 50.8755 83.2879 49.8377 83.3311 48.7832C83.371 47.7286 83.391 46.6607 83.391 45.5727V41.3244C83.391 40.2364 83.371 39.1718 83.3311 38.1273H83.3345Z" fill="#00554E"/>
<path d="M94.2239 41.4248C95.3777 43.631 96.5813 45.8941 97.8415 48.2174C98.0044 47.9061 98.2405 47.4575 98.553 46.8716C98.8623 46.2891 99.2247 45.6162 99.6337 44.8596C100.043 44.103 100.478 43.2828 100.947 42.4024C101.413 41.5219 101.888 40.6281 102.37 39.7242C102.852 38.8203 103.331 37.9298 103.807 37.0561C104.279 36.1856 104.721 35.3688 105.13 34.6122H105.449C105.629 36.1923 105.795 37.7189 105.951 39.1919C106.107 40.6649 106.267 42.1145 106.43 43.5373C106.593 44.9601 106.756 46.3694 106.922 47.7621C107.085 49.1548 107.265 50.5307 107.461 51.8999C107.265 51.8664 107.072 51.8497 106.885 51.8497H105.732C105.542 51.8497 105.353 51.8664 105.156 51.8999C104.977 49.7105 104.797 47.588 104.618 45.5292C104.438 43.4703 104.216 41.3713 103.956 39.2321H103.906C102.779 41.3077 101.669 43.3699 100.581 45.4187C99.494 47.4675 98.4599 49.6134 97.4791 51.853H97.2596C96.2787 49.7774 95.2513 47.7018 94.1807 45.6162C93.11 43.5339 92.036 41.4048 90.9554 39.2321H90.9055C90.7925 40.2531 90.6628 41.3612 90.5265 42.553C90.3868 43.7482 90.2605 44.9232 90.1474 46.0849C90.0344 47.2466 89.9346 48.3413 89.8548 49.369C89.7717 50.3968 89.7318 51.2437 89.7318 51.8999C89.4691 51.8664 89.1832 51.8497 88.874 51.8497C88.5647 51.8497 88.2755 51.8664 88.0161 51.8999C88.2289 50.5675 88.4484 49.1581 88.6778 47.6784C88.9072 46.1954 89.1267 44.7056 89.3395 43.2092C89.5523 41.7128 89.7484 40.2331 89.928 38.7768C90.1075 37.3205 90.2638 35.9312 90.3935 34.6156H90.8091C91.9363 36.9556 93.0768 39.2254 94.2305 41.4315L94.2239 41.4248Z" fill="#00554E"/>
<path d="M109.998 38.0905C109.958 37.036 109.911 35.9848 109.861 34.9302C110.596 34.9637 111.328 34.9905 112.056 35.0173C112.784 35.0407 113.515 35.0541 114.25 35.0541C114.985 35.0541 115.713 35.0407 116.435 35.0173C117.153 34.9938 117.881 34.9637 118.619 34.9302C118.57 35.178 118.546 35.4257 118.546 35.6701C118.546 35.9145 118.57 36.1622 118.619 36.4099C118.094 36.3765 117.619 36.343 117.183 36.3129C116.751 36.2794 116.292 36.2459 115.81 36.2124C115.328 36.1789 114.799 36.1522 114.227 36.1254C113.655 36.0986 112.967 36.0886 112.166 36.0886C112.149 36.6141 112.129 37.1163 112.106 37.595C112.082 38.0738 112.069 38.6161 112.069 39.2254C112.069 39.8681 112.072 40.4942 112.082 41.1035C112.089 41.7127 112.096 42.1747 112.096 42.4861C112.814 42.4861 113.462 42.4794 114.034 42.4626C114.606 42.4459 115.128 42.4258 115.604 42.4024C116.079 42.3789 116.515 42.3522 116.917 42.3287C117.316 42.3019 117.698 42.2752 118.057 42.2417C118.008 42.4894 117.984 42.7438 117.984 43.005C117.984 43.2527 118.008 43.5004 118.057 43.7448C117.632 43.6946 117.14 43.6544 116.575 43.621C116.009 43.5875 115.447 43.5674 114.882 43.5607C114.317 43.554 113.785 43.544 113.286 43.5373C112.787 43.5306 112.392 43.5239 112.096 43.5239C112.096 43.6712 112.092 43.8319 112.082 44.0059C112.076 44.18 112.069 44.3976 112.069 44.6587V47.1026C112.069 48.0433 112.072 48.8166 112.082 49.4226C112.089 50.0319 112.102 50.4938 112.119 50.8052H113.835C114.456 50.8052 115.065 50.7918 115.663 50.7684C116.262 50.7449 116.824 50.7115 117.356 50.6679C117.888 50.6278 118.35 50.5641 118.742 50.4838C118.709 50.601 118.689 50.7282 118.683 50.8654C118.673 51.006 118.669 51.1333 118.669 51.2471C118.669 51.5116 118.693 51.7258 118.742 51.8899C118.008 51.8564 117.273 51.8396 116.548 51.8396H112.096C111.361 51.8396 110.616 51.8564 109.865 51.8899C109.915 50.8353 109.958 49.7875 110.001 48.7396C110.041 47.6951 110.061 46.6272 110.061 45.5425V41.2943C110.061 40.2063 110.041 39.1383 110.001 38.0838L109.998 38.0905Z" fill="#00554E"/>
</svg>
