<svg width="44" height="41" viewBox="0 0 44 41" fill="none" xmlns="http://www.w3.org/2000/svg">
<g clip-path="url(#clip0_3403_231)">
<path d="M21.9458 0H21.9174C19.6259 0.0164181 18.5958 1.28882 17.8171 3.16048C17.4926 3.93623 17.3101 4.634 17.1317 5.30714C16.8762 6.2717 16.6288 7.19932 16.0042 8.2747C15.3188 9.44449 14.2157 10.0479 13.1652 10.6184C11.8512 11.3326 10.6223 12.0016 10.3912 13.6886C10.1113 15.7367 11.9202 16.4878 13.8223 17.28C15.6027 18.0229 17.4683 18.7987 17.7847 20.7114C17.7887 20.7401 17.7928 20.7688 17.7968 20.7976C17.959 21.9468 17.298 23.1043 16.2273 23.5148C14.4347 24.2002 12.8327 22.9607 11.3037 21.7745C9.67331 20.5103 8.11998 19.3076 6.50988 20.58C5.18368 21.6267 5.23234 23.0427 5.28101 24.5491C5.32157 25.7558 5.36213 27.02 4.70916 28.2103C4.10892 29.3021 3.43974 29.9794 2.74216 30.6895C2.25548 31.1861 1.75258 31.6951 1.25373 32.3723C0.0491935 33.9936 -0.522656 35.5328 0.616988 37.5481L0.63321 37.5768L0.649433 37.6015C1.82558 39.5922 3.42757 39.8466 5.4189 39.5798C6.24626 39.469 6.93167 39.2761 7.5968 39.0914C8.54988 38.8246 9.46241 38.5701 10.6953 38.5742C12.0418 38.5783 13.1085 39.2351 14.1264 39.8631C15.3999 40.647 16.5923 41.3817 18.1456 40.7291C20.0315 39.9328 19.7598 37.9791 19.4678 35.9186C19.196 33.9895 18.9121 31.966 20.3843 30.7223C21.309 29.9424 22.7123 29.9424 23.6329 30.7305C25.097 31.9783 24.805 34.0018 24.5292 35.9309C24.2332 37.9914 23.9493 39.9451 25.8352 40.7496C27.3844 41.4105 28.5809 40.6798 29.8584 39.9C30.8804 39.2761 31.9511 38.6235 33.2976 38.6235C34.5305 38.6235 35.4431 38.8821 36.3961 39.153C37.0613 39.3418 37.7467 39.5347 38.574 39.6496C40.5613 39.9246 42.1674 39.6783 43.3516 37.6918C43.3557 37.6836 43.3638 37.6712 43.3678 37.663L43.38 37.6384C44.5278 35.6272 43.964 34.088 42.7635 32.4585C42.2647 31.7813 41.7658 31.2682 41.2792 30.7715C40.5856 30.0615 39.9205 29.376 39.3243 28.2842C38.6714 27.0939 38.72 25.8256 38.7647 24.623C38.8214 23.1166 38.8742 21.7006 37.552 20.6498C35.946 19.3692 34.3926 20.5636 32.7541 21.8237C31.2211 23.0017 29.6151 24.2372 27.8265 23.5435C27.6724 23.486 27.5223 23.4122 27.3682 23.3342C26.4313 22.8416 25.8514 21.7868 26.0298 20.7319C26.3543 18.8233 28.2199 18.0517 30.0044 17.3169C31.9106 16.533 33.7194 15.7901 33.4477 13.7378C33.2246 12.0509 31.9957 11.3777 30.6858 10.6553C29.6394 10.0807 28.5362 9.47732 27.8589 8.30343C27.2344 7.22805 26.9951 6.30043 26.7396 5.33176C26.5652 4.65452 26.3827 3.96086 26.0623 3.181C25.2876 1.30113 24.2656 0.0287316 21.9742 0H21.9458Z" fill="#B2986B"/>
</g>
<defs>
<clipPath id="clip0_3403_231">
<rect width="44" height="41" fill="white"/>
</clipPath>
</defs>
</svg>
