<svg width="44" height="45" viewBox="0 0 44 45" fill="none" xmlns="http://www.w3.org/2000/svg">
<g clip-path="url(#clip0_3403_235)">
<path d="M22.75 2.24342V18.0338C22.75 20.9029 24.2946 23.5456 26.7922 24.9492L39.9992 32.3628C40.7345 32.7744 41.6547 32.7991 42.4434 32.3463C42.9815 32.0417 43.3677 31.5189 43.5649 30.9344L43.8072 30.2305C43.9387 29.8518 44.0044 29.4566 44.0044 29.0532V18.3054C44.0044 17.8897 43.914 17.478 43.7415 17.1035L43.721 17.0582C43.4581 16.4901 43.0349 16.0044 42.4763 15.7245C41.6465 15.3087 40.7057 15.354 39.9499 15.7862L32.5803 19.9973C31.8039 20.4418 30.8714 20.5242 30.0292 20.2195L29.7294 20.1125C28.9735 19.8408 28.3491 19.2481 28.115 18.4783C27.7658 17.3299 28.2546 16.1485 29.2282 15.5722L37.9411 10.3938C38.5121 10.0563 38.9024 9.43057 38.9065 8.6814C38.9106 8.19567 38.7093 7.73463 38.3971 7.36416C38.2369 7.17481 38.0438 7.01839 37.8261 6.8949L25.8967 0.267566C25.3216 -0.0493938 24.6191 -0.0946737 23.9865 0.193471C23.2101 0.543361 22.75 1.36252 22.75 2.2146V2.24342Z" fill="#B2986B"/>
<path d="M21.2503 2.24342V18.0338C21.2503 20.9029 19.7057 23.5456 17.2081 24.9492L4.00112 32.3628C3.26991 32.7744 2.35384 32.7991 1.56512 32.3546C1.02698 32.0499 0.636729 31.5354 0.439548 30.9468L0.19718 30.2346C0.0698347 29.8559 0 29.4608 0 29.0615V18.3137C0 17.8979 0.0903744 17.4863 0.262907 17.1117L0.283447 17.0664C0.546354 16.4984 0.969471 16.0126 1.52404 15.7327C2.35384 15.317 3.29456 15.3622 4.05042 15.7945L11.42 20.0055C12.1964 20.4501 13.1289 20.5324 13.9711 20.2278L14.2709 20.1208C15.0268 19.8491 15.6512 19.2563 15.8854 18.4866C16.2345 17.3381 15.7457 16.1567 14.7721 15.5804L6.05919 10.402C5.54159 10.0974 5.17599 9.55818 5.10204 8.90368C5.04043 8.34797 5.24171 7.79638 5.60321 7.3724C5.76342 7.18304 5.95649 7.02251 6.17011 6.90313L18.1036 0.267566C18.6787 -0.0493938 19.3812 -0.0946737 20.0138 0.193471C20.7902 0.543361 21.2503 1.36252 21.2503 2.2146V2.24342Z" fill="#B2986B"/>
<path d="M18.0371 26.036C20.4937 24.5664 23.5541 24.5376 26.0353 25.9701L39.1601 33.5277C39.8132 33.9064 40.2774 34.5692 40.3842 35.3636C40.4787 36.0716 40.2322 36.7838 39.7722 37.3271L39.2915 37.8993C39.0327 38.2039 38.7287 38.4633 38.3837 38.6691L29.1737 44.1809C28.8204 44.3949 28.422 44.5266 28.0112 44.5719L27.9537 44.5802C27.3334 44.646 26.6966 44.5308 26.1749 44.1932C25.3944 43.691 24.9549 42.8595 24.9384 41.991L24.7659 33.4948C24.7495 32.5974 24.3387 31.7536 23.6485 31.1855L23.4021 30.9838C22.7818 30.4734 21.9561 30.2388 21.1756 30.4322C20.013 30.7204 19.2531 31.7454 19.2572 32.8774L19.2859 43.0324C19.2859 43.7857 18.8587 44.5308 18.0453 44.8724C17.6921 45.0206 17.2977 45.0412 16.9198 44.9753C16.6774 44.9342 16.4474 44.8518 16.2337 44.7283L4.48507 37.887C4.27556 37.7676 4.07838 37.6194 3.92228 37.4383C3.02265 36.4051 3.30199 34.8697 4.41934 34.2028L18.0494 26.0442L18.0371 26.036Z" fill="#B2986B"/>
</g>
<defs>
<clipPath id="clip0_3403_235">
<rect width="44" height="45" fill="white"/>
</clipPath>
</defs>
</svg>
