<svg width="44" height="43" viewBox="0 0 44 43" fill="none" xmlns="http://www.w3.org/2000/svg">
<g clip-path="url(#clip0_3403_242)">
<path d="M39.0365 11.114L26.6035 2.00589L39.0365 11.114ZM39.0365 11.114H39.0267L40.2618 12.0176C43.0036 14.0234 44.1591 17.5915 43.1104 20.8477L37.8885 37.0456L37.8885 37.0459C36.8401 40.305 33.8331 42.5 30.439 42.5H13.5543C10.1606 42.5 7.15327 40.3011 6.10487 37.0458L6.10483 37.0456L0.88302 20.8479C-0.165767 17.5875 0.989815 14.0234 3.73161 12.0176L3.73187 12.0174L17.3971 2.00647C17.3972 2.00634 17.3974 2.00622 17.3976 2.0061C20.1511 0.000330794 23.8629 0.00110929 26.6033 2.00569L39.0365 11.114ZM22.4384 33.3724L26.4438 25.9765L33.778 21.938L34.5734 21.5L33.778 21.062L26.4438 17.0235L22.4384 9.62754L21.9987 8.81571L21.559 9.62754L17.5536 17.0235L10.2194 21.062L9.42404 21.5L10.2194 21.938L17.5536 25.9765L21.559 33.3724L21.9987 34.1843L22.4384 33.3724Z" fill="#B2986B" stroke="#B2986B"/>
</g>
<defs>
<clipPath id="clip0_3403_242">
<rect width="44" height="43" fill="white"/>
</clipPath>
</defs>
</svg>
