<svg width="44" height="44" viewBox="0 0 44 44" fill="none" xmlns="http://www.w3.org/2000/svg">
<rect x="0.5" y="0.5" width="43" height="43" rx="21.5" fill="#E5E1C7" fill-opacity="0.63"/>
<rect x="0.5" y="0.5" width="43" height="43" rx="21.5" stroke="#B2986B"/>
<g clip-path="url(#clip0_3396_78)">
<path d="M20.25 13.5742C20.0664 13.6445 19.8711 13.8085 19.8008 13.9609C19.7578 14.0507 19.7266 14.2968 19.6992 14.7148C19.625 15.8632 19.457 16.3749 19.0156 16.8046C18.6406 17.1679 18.7539 17.1171 15.0273 18.6835C13.6328 19.2695 12.4258 19.789 12.3477 19.8359C12.1914 19.9335 12 20.2656 12 20.4335C12 20.7538 12.1953 21.0429 12.4961 21.1718C12.6016 21.2148 14.8984 21.9335 17.6055 22.7656C21.9805 24.1171 22.5547 24.2851 22.7813 24.2812C23.0234 24.2812 23.082 24.2617 24.0117 23.8202C25.2344 23.2421 26.5117 22.6601 27.7227 22.1288C29.2031 21.4804 29.5391 21.2929 30.0273 20.8593C30.4258 20.5077 30.5742 20.3124 30.7891 19.871C31.1016 19.2226 31.1875 18.7031 31.1953 17.4101C31.1992 16.5859 31.1953 16.5429 31.1094 16.3867C31.0625 16.2929 30.957 16.1757 30.875 16.1249C30.7656 16.0507 29.5391 15.7343 25.7109 14.7929C22.9492 14.1132 20.6211 13.5507 20.5352 13.5429C20.4492 13.5312 20.3203 13.5468 20.25 13.5742ZM25.3867 16.2968C27.6602 16.8593 29.5547 17.3242 29.5938 17.3398C29.6641 17.3593 29.668 17.3945 29.6445 17.914C29.5977 19.0585 29.3828 19.5234 28.7031 19.9492C28.3633 20.1562 28.1055 20.2812 26.5313 20.9765C25.8555 21.2773 24.7266 21.7851 24.0273 22.1132C23.3281 22.4374 22.7305 22.7031 22.6992 22.7031C22.6289 22.7031 15.1133 20.3945 15.0781 20.3632C15.0664 20.3515 15.8633 19.9999 16.8555 19.582C19.3633 18.5312 19.5703 18.4179 20.125 17.8632C20.7383 17.246 21.0039 16.6484 21.1992 15.4257C21.2109 15.3476 21.2305 15.2812 21.2383 15.2812C21.2461 15.2812 23.1133 15.7382 25.3867 16.2968Z" fill="#B2986B"/>
<path d="M31.0033 22.0545C30.9173 22.0819 29.0228 22.9334 26.7884 23.949C23.5345 25.4295 22.7103 25.7889 22.6283 25.7694C22.5736 25.7537 20.3587 25.0779 17.7103 24.2615C14.9564 23.4139 12.8353 22.7811 12.7494 22.7811C12.2689 22.785 11.8978 23.2967 12.0345 23.7615C12.0931 23.9608 12.2689 24.1561 12.4564 24.2381C12.5384 24.2733 14.8392 24.992 17.5658 25.8319C21.6087 27.0779 22.5697 27.3631 22.7611 27.367C22.9916 27.3709 23.0853 27.3279 27.2728 25.4256C29.6244 24.3553 31.6087 23.4412 31.6791 23.3944C31.8314 23.2889 31.9994 22.9725 31.9994 22.7811C31.9994 22.7029 31.9525 22.5467 31.8978 22.4373C31.7298 22.0975 31.3548 21.9373 31.0033 22.0545Z" fill="#B2986B"/>
<path d="M30.7899 25.2148C30.6297 25.2851 28.7469 26.1406 26.6102 27.1132L22.7196 28.8788L17.825 27.3749C14.5204 26.3554 12.8719 25.8671 12.7547 25.8671C12.4422 25.8671 12.1415 26.0898 12.0399 26.3984C11.9383 26.6991 12.0868 27.0976 12.3602 27.2656C12.4969 27.3476 22.411 30.4101 22.6922 30.457C22.8211 30.4765 22.911 30.4609 23.1415 30.3671C23.8836 30.0624 31.6063 26.5234 31.7235 26.4296C32.1375 26.0976 32.0594 25.4335 31.575 25.1757C31.3368 25.0507 31.1415 25.0624 30.7899 25.2148Z" fill="#B2986B"/>
</g>
<defs>
<clipPath id="clip0_3396_78">
<rect width="20" height="20" fill="white" transform="translate(12 12)"/>
</clipPath>
</defs>
</svg>
