<svg width="24" height="24" viewBox="0 0 24 24" fill="none" xmlns="http://www.w3.org/2000/svg">
<path d="M19.75 6.5C19.5511 6.5 19.3603 6.42098 19.2197 6.28033C19.079 6.13968 19 5.94891 19 5.75V5H18.25C18.0511 5 17.8603 4.92098 17.7197 4.78033C17.579 4.63968 17.5 4.44891 17.5 4.25C17.5 4.05109 17.579 3.86032 17.7197 3.71967C17.8603 3.57902 18.0511 3.5 18.25 3.5H19V2.75C19 2.55109 19.079 2.36032 19.2197 2.21967C19.3603 2.07902 19.5511 2 19.75 2C19.9489 2 20.1397 2.07902 20.2803 2.21967C20.421 2.36032 20.5 2.55109 20.5 2.75V3.5H21.25C21.4489 3.5 21.6397 3.57902 21.7803 3.71967C21.921 3.86032 22 4.05109 22 4.25C22 4.44891 21.921 4.63968 21.7803 4.78033C21.6397 4.92098 21.4489 5 21.25 5H20.5V5.75C20.5 5.94891 20.421 6.13968 20.2803 6.28033C20.1397 6.42098 19.9489 6.5 19.75 6.5ZM8.799 3.728C8.81293 3.65911 8.84786 3.59622 8.899 3.548C8.945 3.508 8.981 3.5 9.001 3.5C9.021 3.5 9.057 3.507 9.103 3.549C9.15378 3.59669 9.18869 3.65882 9.203 3.727C9.45882 4.9765 10.0728 6.12452 10.97 7.031C11.8755 7.92898 13.0235 8.5431 14.273 8.798C14.343 8.812 14.408 8.851 14.451 8.898C14.493 8.944 14.5 8.98 14.5 9C14.5 9.02 14.493 9.056 14.451 9.102C14.4033 9.15278 14.3412 9.18769 14.273 9.202C13.0235 9.45773 11.8757 10.0721 10.97 10.97C10.073 11.8757 9.45935 13.0231 9.204 14.272C9.1898 14.341 9.1545 14.4039 9.103 14.452C9.057 14.492 9.021 14.5 9.001 14.5C8.981 14.5 8.945 14.493 8.899 14.451C8.84822 14.4033 8.81331 14.3412 8.799 14.273C8.54318 13.0235 7.92921 11.8755 7.032 10.969C6.12649 10.071 4.97854 9.4569 3.729 9.202C3.66046 9.18788 3.59795 9.15296 3.55 9.102C3.51 9.055 3.502 9.02 3.501 9C3.501 8.98 3.509 8.944 3.55 8.899C3.59795 8.84713 3.66086 8.81148 3.73 8.797C4.97887 8.54165 6.12629 7.92798 7.032 7.031C7.92951 6.12514 8.54355 4.97734 8.799 3.728ZM9 2C8.117 2 7.48 2.695 7.33 3.422C7.13384 4.38542 6.66125 5.27083 5.97 5.97C5.27138 6.66091 4.38671 7.13348 3.424 7.33C2.696 7.48 2 8.118 2.001 9.003C2.003 9.885 2.698 10.52 3.424 10.671C4.38704 10.8662 5.2722 11.3382 5.971 12.029C6.841 12.9 7.191 13.909 7.33 14.578C7.48 15.305 8.118 16 9 16C9.885 16 10.521 15.305 10.672 14.577C10.868 13.6145 11.3398 12.7299 12.03 12.031C12.7292 11.3397 13.6146 10.8672 14.578 10.671C15.305 10.521 16 9.884 16 9.001C16 8.116 15.305 7.48 14.577 7.329C13.6142 7.13331 12.7294 6.66102 12.031 5.97C11.3401 5.27071 10.8679 4.38531 10.672 3.422C10.521 2.695 9.885 2 9.002 2M9.5 16.954V18.75C9.5 19.716 10.284 20.5 11.25 20.5H18.75C19.2141 20.5 19.6592 20.3156 19.9874 19.9874C20.3156 19.6592 20.5 19.2141 20.5 18.75V11.25C20.5 10.7859 20.3156 10.3408 19.9874 10.0126C19.6592 9.68437 19.2141 9.5 18.75 9.5H16.954C17.0474 8.9959 16.9954 8.47562 16.804 8H18.75C19.612 8 20.4386 8.34241 21.0481 8.9519C21.6576 9.5614 22 10.388 22 11.25V18.75C22 19.1768 21.9159 19.5994 21.7526 19.9937C21.5893 20.388 21.3499 20.7463 21.0481 21.0481C20.7463 21.3499 20.388 21.5893 19.9937 21.7526C19.5994 21.9159 19.1768 22 18.75 22H11.25C10.8232 22 10.4006 21.9159 10.0063 21.7526C9.61197 21.5893 9.25369 21.3499 8.9519 21.0481C8.65011 20.7463 8.41072 20.388 8.24739 19.9937C8.08406 19.5994 8 19.1768 8 18.75V16.804C8.47562 16.9954 8.9959 17.0474 9.5 16.954ZM12 13.75C12 13.5511 12.079 13.3603 12.2197 13.2197C12.3603 13.079 12.5511 13 12.75 13H18.25C18.4489 13 18.6397 13.079 18.7803 13.2197C18.921 13.3603 19 13.5511 19 13.75C19 13.9489 18.921 14.1397 18.7803 14.2803C18.6397 14.421 18.4489 14.5 18.25 14.5H12.75C12.5511 14.5 12.3603 14.421 12.2197 14.2803C12.079 14.1397 12 13.9489 12 13.75ZM12.75 16C12.5511 16 12.3603 16.079 12.2197 16.2197C12.079 16.3603 12 16.5511 12 16.75C12 16.9489 12.079 17.1397 12.2197 17.2803C12.3603 17.421 12.5511 17.5 12.75 17.5H16.25C16.4489 17.5 16.6397 17.421 16.7803 17.2803C16.921 17.1397 17 16.9489 17 16.75C17 16.5511 16.921 16.3603 16.7803 16.2197C16.6397 16.079 16.4489 16 16.25 16H12.75ZM2.75 19C2.55109 19 2.36032 19.079 2.21967 19.2197C2.07902 19.3603 2 19.5511 2 19.75C2 19.9489 2.07902 20.1397 2.21967 20.2803C2.36032 20.421 2.55109 20.5 2.75 20.5H3.5V21.25C3.5 21.4489 3.57902 21.6397 3.71967 21.7803C3.86032 21.921 4.05109 22 4.25 22C4.44891 22 4.63968 21.921 4.78033 21.7803C4.92098 21.6397 5 21.4489 5 21.25V20.5H5.75C5.94891 20.5 6.13968 20.421 6.28033 20.2803C6.42098 20.1397 6.5 19.9489 6.5 19.75C6.5 19.5511 6.42098 19.3603 6.28033 19.2197C6.13968 19.079 5.94891 19 5.75 19H5V18.25C5 18.0511 4.92098 17.8603 4.78033 17.7197C4.63968 17.579 4.44891 17.5 4.25 17.5C4.05109 17.5 3.86032 17.579 3.71967 17.7197C3.57902 17.8603 3.5 18.0511 3.5 18.25V19H2.75Z" fill="#8E4F24"/>
</svg>
