<svg width="44" height="44" viewBox="0 0 44 44" fill="none" xmlns="http://www.w3.org/2000/svg">
<rect x="0.5" y="0.5" width="43" height="43" rx="21.5" fill="white"/>
<rect x="0.5" y="0.5" width="43" height="43" rx="21.5" stroke="#22544E"/>
<g clip-path="url(#clip0_8120_23)">
<path d="M15.723 12.6836C14.4261 12.918 13.3011 13.8555 12.8597 15.0742C12.6175 15.75 12.6214 15.6055 12.6331 20.9102C12.6448 25.7266 12.6448 25.7305 12.7308 26.0273C13.1253 27.418 14.0901 28.3828 15.473 28.7695C15.7542 28.8477 15.8714 28.8516 17.6526 28.8672L19.5355 28.8789L20.5784 30.0742C21.6448 31.293 21.7347 31.375 22.0003 31.375C22.2659 31.375 22.3558 31.293 23.4222 30.0703L24.469 28.875H26.1995C27.555 28.875 28.0003 28.8633 28.262 28.8164C29.7425 28.5586 30.9378 27.4258 31.2855 25.9453C31.3519 25.6719 31.3558 25.3086 31.3558 20.75C31.3558 16.1914 31.3519 15.8281 31.2855 15.5547C30.9378 14.0742 29.7425 12.9414 28.262 12.6836C27.973 12.6328 27.0862 12.625 21.9651 12.6289C17.2581 12.6328 15.9456 12.6445 15.723 12.6836ZM28.1526 13.9336C28.8597 14.082 29.5159 14.5898 29.844 15.2422C30.137 15.8281 30.1253 15.5703 30.1253 20.75C30.1253 24.6523 30.1136 25.4219 30.0667 25.6523C29.9222 26.3516 29.4026 27.0195 28.7581 27.3437C28.2151 27.6172 28.1331 27.625 25.973 27.625C24.4417 27.625 24.0433 27.6367 23.9378 27.6797C23.8519 27.7148 23.5237 28.0586 22.9183 28.7539C22.4261 29.3125 22.0159 29.7734 22.0003 29.7734C21.9847 29.7734 21.5823 29.3242 21.1019 28.7734C20.6175 28.2227 20.1839 27.7422 20.1292 27.707C20.0433 27.6523 19.7894 27.6406 17.9573 27.625L15.887 27.6055L15.6019 27.5C14.9456 27.2617 14.43 26.8164 14.1526 26.2539C13.8636 25.668 13.8753 25.918 13.8753 20.75C13.8753 15.5781 13.8636 15.832 14.1526 15.2422C14.469 14.6055 15.137 14.0859 15.8284 13.9375C16.219 13.8516 27.7542 13.8516 28.1526 13.9336Z" fill="#22544E"/>
<path d="M21.7471 16.4334C21.5713 16.5272 21.4619 16.6444 21.4189 16.7811C21.3955 16.8475 21.2979 17.2616 21.2002 17.703C20.9502 18.8241 20.7627 19.1873 20.2744 19.5077C19.9736 19.703 19.833 19.7498 18.8682 19.9686C17.9893 20.1678 17.876 20.2108 17.7275 20.4139C17.6143 20.5663 17.6143 20.9334 17.7275 21.0858C17.876 21.2889 17.9893 21.3319 18.8682 21.5311C19.833 21.7498 19.9736 21.7967 20.2744 21.992C20.7705 22.3163 20.9463 22.6678 21.2158 23.867C21.3252 24.3436 21.4307 24.7694 21.4541 24.8123C21.4775 24.8514 21.5596 24.9373 21.6377 24.9959C21.8213 25.1366 22.1689 25.1522 22.3369 25.0233C22.54 24.8748 22.583 24.7616 22.7822 23.8827C23.001 22.9178 23.0479 22.7772 23.2432 22.4764C23.5674 21.9803 23.9189 21.8045 25.1182 21.535C25.5947 21.4256 26.0205 21.3202 26.0635 21.2967C26.1025 21.2733 26.1885 21.1913 26.2471 21.1131C26.3877 20.9295 26.4033 20.5819 26.2744 20.4139C26.1221 20.2108 26.0127 20.1678 25.126 19.9686C24.0869 19.7342 23.7861 19.6131 23.4619 19.2889C23.1377 18.9647 23.0166 18.6639 22.7822 17.6248C22.583 16.742 22.54 16.6248 22.3447 16.4803C22.2041 16.3748 21.8994 16.3514 21.7471 16.4334ZM22.1963 19.703C22.3916 20.0116 22.8057 20.4178 23.1182 20.6053C23.2354 20.6756 23.3252 20.7381 23.3252 20.7498C23.3252 20.7616 23.2354 20.8241 23.1182 20.8944C22.8057 21.0819 22.3916 21.4881 22.1963 21.7967C22.0986 21.9491 22.0127 22.0741 22.001 22.0741C21.9893 22.0741 21.9229 21.9764 21.8486 21.8553C21.6572 21.5428 21.2705 21.1483 20.9541 20.9452C20.8018 20.8475 20.6768 20.7616 20.6768 20.7498C20.6768 20.7381 20.7744 20.6717 20.8955 20.5975C21.208 20.4061 21.6025 20.0194 21.8057 19.703C21.9033 19.5506 21.9893 19.4256 22.001 19.4256C22.0127 19.4256 22.0986 19.5506 22.1963 19.703Z" fill="#22544E"/>
</g>
<defs>
<clipPath id="clip0_8120_23">
<rect width="20" height="20" fill="white" transform="translate(12 12)"/>
</clipPath>
</defs>
</svg>
