<svg width="72" height="73" viewBox="0 0 72 73" fill="none" xmlns="http://www.w3.org/2000/svg">
<g clip-path="url(#clip0_3370_2211)">
<path fill-rule="evenodd" clip-rule="evenodd" d="M40.5723 2.18089C40.5723 0.977411 39.589 0 38.3781 0H33.6285C32.4177 0 31.4344 0.977411 31.4344 2.18089V10.9909C31.4344 13.2183 28.4642 14.0096 27.3403 12.0813L22.8984 4.43492C22.2897 3.39102 20.9518 3.03197 19.9015 3.63703L15.7874 5.99745C14.7372 6.60251 14.3759 7.93233 14.9847 8.97623L19.0319 15.9444C20.1557 17.8793 17.9816 20.0403 16.0349 18.9232L9.02425 14.9005C7.97398 14.2955 6.63607 14.6545 6.02732 15.6984L3.65251 19.7876C3.04376 20.8315 3.405 22.1613 4.45526 22.7664L11.5195 26.8156C13.4661 27.9327 12.6701 30.8849 10.4224 30.8849H2.19418C0.983369 30.8849 0 31.8623 0 33.0658V37.7866C0 38.9901 0.983369 39.9675 2.19418 39.9675H14.1685C16.4096 39.9675 17.2056 42.9197 15.2656 44.0367L4.45526 50.2403C3.405 50.8453 3.04376 52.1752 3.65251 53.2191L6.02732 57.3082C6.63607 58.3521 7.97398 58.7045 9.02425 58.1061L16.0349 54.0834C17.9749 52.9664 20.1557 55.1273 19.0319 57.0622L14.9847 64.0304C14.3759 65.0743 14.7372 66.4041 15.7874 67.0092L19.9015 69.3696C20.9518 69.968 22.2897 69.6156 22.8984 68.5717L27.3403 60.9253C28.4642 58.9971 31.4344 59.7883 31.4344 62.0158V70.8258C31.4344 72.0292 32.4177 73.0067 33.6285 73.0067H38.3781C39.589 73.0067 40.5723 72.0292 40.5723 70.8258V60.2272C40.5723 57.9997 43.5425 57.2085 44.6664 59.1367L49.0949 66.7565C49.7036 67.8004 51.0415 68.1595 52.0918 67.5544L56.2059 65.194C57.2562 64.5956 57.6174 63.2591 57.0086 62.2152L52.9614 55.247C51.8376 53.3121 54.0117 51.1512 55.9584 52.2682L62.9691 56.2909C64.0193 56.896 65.3572 56.5369 65.966 55.493L68.3408 51.4039C68.9496 50.36 68.5883 49.0301 67.538 48.4251L59.8919 44.0367C57.9452 42.9197 58.7412 39.9675 60.9889 39.9675H69.7991C71.0099 39.9675 71.9933 38.9901 71.9933 37.7866V33.0658C71.9933 31.8623 71.0099 30.8849 69.7991 30.8849H61.5709C59.3299 30.8849 58.5339 27.9327 60.4738 26.8156L67.538 22.7664C68.5883 22.1613 68.9496 20.8315 68.3408 19.7876L65.966 15.6984C65.3572 14.6545 64.0193 14.2955 62.9691 14.9005L55.9584 18.9232C54.0117 20.0403 51.8376 17.8793 52.9614 15.9444L57.0086 8.97623C57.6174 7.93233 57.2562 6.60251 56.2059 5.99745L52.0918 3.63703C51.0415 3.03197 49.7036 3.39102 49.0949 4.43492L44.6664 12.0547C43.5425 13.9896 40.5723 13.1984 40.5723 10.9643V2.18089Z" fill="#8E4F24"/>
</g>
<defs>
<clipPath id="clip0_3370_2211">
<rect width="72" height="73" fill="white"/>
</clipPath>
</defs>
</svg>
