<svg width="72" height="72" viewBox="0 0 72 72" fill="none" xmlns="http://www.w3.org/2000/svg">
<g clip-path="url(#clip0_3374_2271)">
<path d="M71.5969 42.1593C67.0969 41.3063 62.1734 40.4467 58.3153 37.663C57.2432 35.7388 58.9572 34.0263 60.241 32.5253C63.4506 28.029 66.0249 23.9625 67.3087 18.6133C67.5204 17.1123 66.8785 14.9766 65.1646 15.1882C61.7366 18.1835 57.455 20.5374 52.955 21.1788C51.8829 21.3904 51.241 20.3259 51.0293 19.4663C50.3874 13.4756 48.6734 7.69659 46.3175 2.34734C45.6756 1.06458 44.3918 -0.0065918 42.8896 -0.0065918C41.3874 0.204998 41.8175 2.13575 41.6057 3.20031C40.7521 7.05521 39.8918 10.6919 37.5359 13.6872C36.894 14.5402 35.8219 14.117 34.9682 13.6872C29.6146 9.83233 24.6844 6.41383 18.4771 4.70128C17.405 4.48969 16.5513 4.91287 15.691 5.34266C14.8307 5.77245 15.2609 6.41383 15.2609 6.84362C17.6168 10.9101 20.6146 14.3352 21.2565 19.0431C21.2565 20.1143 20.4028 20.7556 19.5425 20.7556C13.3285 21.6086 7.76309 23.1096 2.19103 25.6751C0.688828 26.5281 -0.594995 28.2406 0.265299 29.9532C4.7653 30.5946 9.04692 31.4541 13.1168 34.0197C13.9704 34.4495 14.4006 35.3024 13.9704 36.162C11.6146 40.2285 8.61677 43.6536 6.69103 47.9317C5.83736 49.8558 5.18883 51.5684 4.54692 53.4925C4.33515 54.7753 4.75868 56.0581 5.83074 56.6994C6.26089 56.911 6.9028 56.911 7.33295 56.4878L7.97486 55.8465C8.61677 55.6349 9.04692 55.2051 9.47706 54.7753C12.6866 53.0627 15.4727 50.7088 19.1124 50.9204C19.7543 50.9204 20.3962 50.9204 20.6146 51.7734C21.2565 54.3389 21.2565 56.6928 21.8984 59.265C22.1102 60.1179 22.3285 60.7659 22.5403 61.6189C23.6124 64.6142 24.2543 67.6095 26.18 70.3933C26.8219 71.4644 28.3241 72.5356 29.8197 71.676C30.6734 68.0393 31.1035 64.6142 32.6057 61.1891C33.4594 59.6881 34.3197 57.3342 36.2454 58.1938C37.3175 58.6236 38.3896 59.4766 39.455 60.3361C43.7366 63.543 48.4484 65.6854 53.3785 67.3979C54.2322 67.6095 55.0925 67.3979 55.7344 66.9681C56.1646 66.5384 57.2366 65.897 56.8065 65.2556C54.0204 61.4007 51.4528 57.3342 50.5925 52.8445C51.0227 51.132 52.9484 50.9204 54.4506 50.9204C60.016 50.279 65.1579 48.5665 70.2999 46.0009C71.3719 45.3596 72.6557 43.4354 71.5837 42.146L71.5969 42.1593Z" fill="#8E4F24"/>
</g>
<defs>
<clipPath id="clip0_3374_2271">
<rect width="72" height="72" fill="white"/>
</clipPath>
</defs>
</svg>
