<svg width="72" height="72" viewBox="0 0 72 72" fill="none" xmlns="http://www.w3.org/2000/svg">
<g clip-path="url(#clip0_3370_2219)">
<path d="M40.4401 0L45.2802 13.6079L58.3194 7.40564C60.4089 9.49509 62.5005 11.5867 64.5944 13.6806L58.3921 26.7198L72 31.5599V40.4335L58.3921 45.2736L64.5944 58.3128C62.5049 60.4022 60.4133 62.4939 58.3194 64.5878L45.2802 58.3855L40.4401 71.9934H31.5665L26.7264 58.3855L13.6872 64.5878C11.5978 62.4983 9.50611 60.4067 7.41225 58.3128L13.6145 45.2736L0 40.4401V31.5665L13.6079 26.7264L7.40564 13.6872C9.49509 11.5978 11.5867 9.50611 13.6806 7.41225L26.7198 13.6145L31.5665 0H40.4401Z" fill="#8E4F24"/>
</g>
<defs>
<clipPath id="clip0_3370_2219">
<rect width="72" height="72" fill="white"/>
</clipPath>
</defs>
</svg>
