<svg width="72" height="72" viewBox="0 0 72 72" fill="none" xmlns="http://www.w3.org/2000/svg">
<g clip-path="url(#clip0_3370_2227)">
<path d="M71.0727 35.072C64.5454 35.072 59.2326 29.7592 59.2326 23.2318C59.2326 22.7211 58.8153 22.3038 58.3045 22.3038C57.7938 22.3038 57.3765 22.7211 57.3765 23.2318C57.3765 29.7592 52.0637 35.072 45.5364 35.072H43.2942C39.7253 35.072 36.9225 32.2754 36.9225 28.7003V26.4581C36.9225 19.9308 42.2353 14.618 48.7627 14.618C49.2734 14.618 49.6907 14.2007 49.6907 13.69C49.6907 13.1792 49.2734 12.7619 48.7627 12.7619C42.2353 12.7619 36.9225 7.44914 36.9225 0.921802C36.9225 0.411075 36.5052 -0.00622559 35.9945 -0.00622559C35.4838 -0.00622559 35.0665 0.411075 35.0665 0.921802C35.0665 7.44914 29.7537 12.7619 23.2263 12.7619C22.7156 12.7619 22.2983 13.1792 22.2983 13.69C22.2983 14.2007 22.7156 14.618 23.2263 14.618C29.7537 14.618 35.0665 19.9308 35.0665 26.4581V28.7003C35.0665 32.2692 32.2699 35.072 28.6949 35.072H26.4526C19.9253 35.072 14.6125 29.7592 14.6125 23.2318C14.6125 22.7211 14.1952 22.3038 13.6845 22.3038C13.1737 22.3038 12.7564 22.7211 12.7564 23.2318C12.7564 29.7592 7.44364 35.072 0.916309 35.072C0.405582 35.072 -0.0117188 35.4893 -0.0117188 36C-0.0117188 36.5107 0.405582 36.928 0.916309 36.928C7.44364 36.928 12.7564 42.2408 12.7564 48.7682C12.7564 49.2789 13.1737 49.6962 13.6845 49.6962C14.1952 49.6962 14.6125 49.2789 14.6125 48.7682C14.6125 42.2408 19.9253 36.928 26.4526 36.928H28.6949C32.2637 36.928 35.0665 39.7246 35.0665 43.2997V45.5419C35.0665 52.0692 29.7537 57.382 23.2263 57.382C22.7156 57.382 22.2983 57.7993 22.2983 58.31C22.2983 58.8208 22.7156 59.2381 23.2263 59.2381C29.7537 59.2381 35.0665 64.5509 35.0665 71.0782C35.0665 71.5889 35.4838 72.0062 35.9945 72.0062C36.5052 72.0062 36.9225 71.5889 36.9225 71.0782C36.9225 64.5509 42.2353 59.2381 48.7627 59.2381C49.2734 59.2381 49.6907 58.8208 49.6907 58.31C49.6907 57.7993 49.2734 57.382 48.7627 57.382C42.2353 57.382 36.9225 52.0692 36.9225 45.5419V43.2997C36.9225 39.7308 39.7191 36.928 43.2942 36.928H45.5364C52.0637 36.928 57.3765 42.2408 57.3765 48.7682C57.3765 49.2789 57.7938 49.6962 58.3045 49.6962C58.8153 49.6962 59.2326 49.2789 59.2326 48.7682C59.2326 42.2408 64.5454 36.928 71.0727 36.928C71.5834 36.928 72.0007 36.5107 72.0007 36C72.0007 35.4893 71.5834 35.072 71.0727 35.072Z" fill="#8E4F24"/>
</g>
<defs>
<clipPath id="clip0_3370_2227">
<rect width="72" height="72" fill="white"/>
</clipPath>
</defs>
</svg>
