<svg width="72" height="68" viewBox="0 0 72 68" fill="none" xmlns="http://www.w3.org/2000/svg">
<g clip-path="url(#clip0_3370_2223)">
<path d="M41.2699 0C43.0679 13.1741 55.5757 22.1992 68.7439 19.8228C70.6596 25.6729 70.0843 23.9263 72 29.7764C59.9368 35.5421 55.1573 50.1446 61.506 61.8512C56.4976 65.4678 57.9949 64.3835 52.98 68C43.7283 58.3905 28.2717 58.3905 19.0134 68C14.0051 64.3835 15.5024 65.4678 10.4875 61.8512C16.8427 50.1446 12.0632 35.5421 0 29.7764C1.91573 23.9263 1.34036 25.6729 3.25608 19.8228C16.4308 22.1992 28.9386 13.1741 30.7301 0C36.9219 0 35.0716 0 41.2633 0H41.2699Z" fill="#8E4F24"/>
</g>
<defs>
<clipPath id="clip0_3370_2223">
<rect width="72" height="68" fill="white"/>
</clipPath>
</defs>
</svg>
