<svg width="72" height="83" viewBox="0 0 72 83" fill="none" xmlns="http://www.w3.org/2000/svg">
<g clip-path="url(#clip0_3374_2276)">
<path d="M36.275 0C39.7764 2.62829 43.6333 5.53288 47.678 8.57226C41.2521 16.1808 39.0117 25.8448 39.2868 36.1356C48.3622 31.2766 55.5528 24.3959 58.9335 15.0621C63.5349 17.0771 67.8614 18.9709 72.0067 20.7904C71.5103 24.8542 70.9201 29.7401 70.3164 34.7136C55.6333 34.6732 55.5595 34.6934 42.2448 41.4393C51.0453 46.8105 60.4092 49.6342 70.2963 47.9966C70.8932 53.0577 71.4634 57.8426 71.9732 62.1759C68.1028 63.8674 63.6557 65.8083 58.9201 67.8772C55.6266 58.631 48.4897 51.7705 39.488 46.9048C38.7703 56.2723 40.2929 61.5356 47.4433 74.4682C43.5394 77.4402 39.7093 80.3582 36.2281 83.0067C32.8675 80.4391 29.0374 77.5143 24.8787 74.3266C31.1772 66.7653 33.4712 57.1417 33.2364 46.7903C24.1811 51.656 16.9838 58.4558 13.5696 67.8907C8.92118 65.8487 4.50084 63.9078 0 61.9265C0.462828 60.3361 1.4019 58.0919 1.73058 55.7601C2.06596 53.3947 1.80436 50.9484 1.80436 47.9831C11.7786 49.5466 21.384 47.0396 30.1576 41.4259C21.4377 36.2097 12.0939 33.103 2.16657 34.9562C1.59642 29.9625 1.0531 25.1642 0.536613 20.6624C4.31973 19.0652 8.74008 17.1984 13.5428 15.1699C16.957 24.2948 24.0604 31.2497 33.2096 36.1423C33.4578 25.9122 31.2912 16.2886 24.7982 8.58574C28.8027 5.59354 32.6529 2.70916 36.275 0Z" fill="#8E4F24"/>
</g>
<defs>
<clipPath id="clip0_3374_2276">
<rect width="72" height="83" fill="white"/>
</clipPath>
</defs>
</svg>
