<svg width="388" height="39" viewBox="0 0 388 39" fill="none" xmlns="http://www.w3.org/2000/svg">
<path d="M8.92 26.16C7.50667 26.16 6.14667 25.9467 4.84 25.52C3.56 25.12 2.52 24.44 1.72 23.48C0.92 22.52 0.52 21.2267 0.52 19.6C0.52 17.8667 0.853333 16.1733 1.52 14.52C2.18667 12.8667 3.08 11.3333 4.2 9.92C5.32 8.48 6.57333 7.24 7.96 6.2C9.18667 5.26667 10.6 4.50667 12.2 3.92C13.8267 3.33333 15.44 3.04 17.04 3.04C17.7067 3.04 18.3333 3.09333 18.92 3.2C19.5067 3.28 20.1067 3.46666 20.72 3.76C21.2533 4 21.68 4.30667 22 4.68C22.32 5.02667 22.48 5.42667 22.48 5.88C22.48 5.93333 22.48 6 22.48 6.08C22.48 6.16 22.4667 6.22667 22.44 6.28C22.3333 6.70667 22.08 7.2 21.68 7.76C21.3067 8.29333 21.0133 8.85333 20.8 9.44C20.7733 9.54667 20.6267 9.64 20.36 9.72C20.0933 9.77333 19.9867 9.74667 20.04 9.64C20.2533 9.29333 20.4133 8.86667 20.52 8.36C20.6533 7.85333 20.72 7.34667 20.72 6.84C20.72 6.46667 20.68 6.12 20.6 5.8C20.5467 5.45333 20.44 5.16 20.28 4.92C20.0133 4.44 19.6 4.10667 19.04 3.92C18.48 3.73333 17.88 3.64 17.24 3.64C16.6267 3.64 16.0133 3.70667 15.4 3.84C14.7867 3.97333 14.2533 4.12 13.8 4.28C12.2533 4.84 10.7733 5.72 9.36 6.92C8.10667 8.01333 6.98667 9.28 6 10.72C5.04 12.16 4.28 13.64 3.72 15.16C3.16 16.68 2.88 18.1333 2.88 19.52C2.88 20.9333 3.18667 22.0533 3.8 22.88C4.41333 23.7067 5.21333 24.2933 6.2 24.64C7.18667 24.9867 8.25333 25.16 9.4 25.16C10.4133 25.16 11.4133 25.0533 12.4 24.84C13.4133 24.6267 14.3333 24.36 15.16 24.04C16.5733 23.5067 17.84 22.8533 18.96 22.08C20.1067 21.3067 21.1733 20.3067 22.16 19.08C22.2933 18.9467 22.3867 18.88 22.44 18.88C22.52 18.88 22.56 18.9333 22.56 19.04C22.56 19.2533 22.4533 19.5067 22.24 19.8C21.3333 21.0267 20.3067 22.0533 19.16 22.88C18.0133 23.7067 16.7867 24.3867 15.48 24.92C14.6 25.2667 13.5733 25.56 12.4 25.8C11.2533 26.04 10.0933 26.16 8.92 26.16ZM23.7338 25.32C22.6404 25.32 21.8804 25.1067 21.4538 24.68C21.0271 24.2533 20.8138 23.7333 20.8138 23.12C20.8138 22.3467 21.0138 21.52 21.4137 20.64C21.8404 19.76 22.2404 19.0133 22.6138 18.4C23.0404 17.76 23.6138 17.0933 24.3338 16.4C25.0538 15.7067 25.8404 15.12 26.6938 14.64C27.5471 14.16 28.3738 13.92 29.1738 13.92C29.8671 13.92 30.3471 14.0933 30.6138 14.44C30.8804 14.76 31.0138 15.1467 31.0138 15.6C31.0138 16.4267 30.7604 17.1067 30.2538 17.64C29.7738 18.1733 29.1738 18.6133 28.4538 18.96C27.7338 19.28 27.0404 19.5467 26.3738 19.76C25.9738 19.8667 25.5071 19.9733 24.9738 20.08C24.4404 20.1867 23.9338 20.24 23.4538 20.24C23.2671 20.72 23.1204 21.1867 23.0138 21.64C22.9071 22.0933 22.8538 22.5067 22.8538 22.88C22.8538 23.3333 22.9604 23.7067 23.1738 24C23.4138 24.2933 23.8004 24.44 24.3338 24.44C24.5471 24.44 24.8004 24.4133 25.0938 24.36C25.3871 24.3067 25.7071 24.2267 26.0538 24.12C26.8538 23.8533 27.6404 23.4267 28.4138 22.84C29.1871 22.2533 29.8938 21.6267 30.5338 20.96C31.2004 20.2667 31.7071 19.6933 32.0538 19.24C32.1338 19.32 32.1738 19.4133 32.1738 19.52C32.1738 19.6533 32.0804 19.8667 31.8938 20.16C31.3604 20.9067 30.6671 21.68 29.8138 22.48C28.9604 23.28 28.0138 23.96 26.9738 24.52C25.9338 25.0533 24.8538 25.32 23.7338 25.32ZM23.7738 19.44C24.1204 19.4667 24.5071 19.4667 24.9338 19.44C25.3871 19.3867 25.8271 19.2933 26.2538 19.16C27.3471 18.84 28.1338 18.3333 28.6138 17.64C29.1204 16.92 29.3738 16.28 29.3738 15.72C29.3738 15.4 29.3071 15.1333 29.1738 14.92C29.0404 14.7067 28.8271 14.6 28.5338 14.6C27.7604 14.6 27.0671 14.8933 26.4538 15.48C25.8404 16.04 25.3071 16.6933 24.8538 17.44C24.4004 18.1867 24.0404 18.8533 23.7738 19.44ZM34.0547 25.08C33.2547 25.08 32.708 24.8933 32.4147 24.52C32.1214 24.12 31.9747 23.64 31.9747 23.08C31.9747 22.3333 32.1347 21.5333 32.4547 20.68C32.8014 19.8267 33.0814 19.16 33.2947 18.68C32.948 19.0533 32.6147 19.4133 32.2947 19.76C31.9747 20.1067 31.748 20.36 31.6147 20.52C31.5347 20.6267 31.468 20.68 31.4147 20.68C31.3614 20.68 31.3347 20.6133 31.3347 20.48C31.3347 20.2667 31.4014 20.0667 31.5347 19.88C31.908 19.4 32.3347 18.8933 32.8147 18.36C33.2947 17.8267 33.7614 17.2667 34.2147 16.68C34.748 15.6933 35.3347 14.5467 35.9747 13.24C36.6414 11.9067 37.3214 10.5467 38.0147 9.16C38.7347 7.74667 39.428 6.45333 40.0947 5.28C40.788 4.08 41.4014 3.12 41.9347 2.4C42.388 2.21333 42.8147 1.97333 43.2147 1.68C43.6414 1.38667 44.0547 1.12 44.4547 0.879998C44.8814 0.613332 45.3214 0.479999 45.7747 0.479999C46.068 0.479999 46.2814 0.559998 46.4147 0.719998C46.5747 0.879999 46.6814 1.06667 46.7347 1.28C46.7614 1.36 46.7747 1.50667 46.7747 1.72C46.7747 2.33333 46.5614 3.08 46.1347 3.96C45.7347 4.84 45.2547 5.70667 44.6947 6.56C44.1614 7.38667 43.6947 8.06667 43.2947 8.6C42.228 10.0933 41.1347 11.4533 40.0147 12.68C38.8947 13.88 37.8814 14.8933 36.9747 15.72C36.0947 16.52 35.4547 17.1067 35.0547 17.48C34.868 17.8267 34.6414 18.2933 34.3747 18.88C34.1347 19.44 33.9214 20.04 33.7347 20.68C33.548 21.2933 33.4547 21.8667 33.4547 22.4C33.4547 22.8533 33.5614 23.24 33.7747 23.56C33.988 23.8533 34.348 24 34.8547 24C34.9347 24 35.0147 24 35.0947 24C35.1747 24 35.268 23.9867 35.3747 23.96C35.828 23.88 36.3214 23.6267 36.8547 23.2C37.388 22.7733 37.9214 22.28 38.4547 21.72C38.988 21.16 39.468 20.6267 39.8947 20.12C40.0814 19.9067 40.2547 19.7067 40.4147 19.52C40.5747 19.3067 40.6814 19.16 40.7347 19.08C40.9214 19.2667 40.908 19.5067 40.6947 19.8C40.508 20.0667 40.348 20.2933 40.2147 20.48C40.028 20.72 39.7614 21.0533 39.4147 21.48C39.068 21.88 38.668 22.32 38.2147 22.8C37.708 23.3067 37.0814 23.8133 36.3347 24.32C35.588 24.8267 34.828 25.08 34.0547 25.08ZM35.7347 15.88C36.5614 15.1867 37.6014 14.2 38.8547 12.92C40.1347 11.6133 41.388 10.04 42.6147 8.2C42.748 7.98667 42.9614 7.62667 43.2547 7.12C43.5747 6.61333 43.8947 6.04 44.2147 5.4C44.5614 4.73333 44.8547 4.09333 45.0947 3.48C45.3347 2.84 45.4547 2.29333 45.4547 1.84C45.4547 1.41333 45.3347 1.2 45.0947 1.2C44.8014 1.2 44.4147 1.45333 43.9347 1.96C43.3747 2.54667 42.7347 3.41333 42.0147 4.56C41.3214 5.68 40.588 6.93333 39.8147 8.32C39.0414 9.70667 38.2947 11.0667 37.5747 12.4C36.8814 13.7333 36.268 14.8933 35.7347 15.88ZM42.2494 25.32C41.156 25.32 40.396 25.1067 39.9694 24.68C39.5427 24.2533 39.3294 23.7333 39.3294 23.12C39.3294 22.3467 39.5294 21.52 39.9294 20.64C40.356 19.76 40.756 19.0133 41.1294 18.4C41.556 17.76 42.1294 17.0933 42.8494 16.4C43.5694 15.7067 44.356 15.12 45.2094 14.64C46.0627 14.16 46.8894 13.92 47.6894 13.92C48.3827 13.92 48.8627 14.0933 49.1294 14.44C49.396 14.76 49.5294 15.1467 49.5294 15.6C49.5294 16.4267 49.276 17.1067 48.7694 17.64C48.2894 18.1733 47.6894 18.6133 46.9694 18.96C46.2494 19.28 45.556 19.5467 44.8894 19.76C44.4894 19.8667 44.0227 19.9733 43.4894 20.08C42.956 20.1867 42.4494 20.24 41.9694 20.24C41.7827 20.72 41.636 21.1867 41.5294 21.64C41.4227 22.0933 41.3694 22.5067 41.3694 22.88C41.3694 23.3333 41.476 23.7067 41.6894 24C41.9294 24.2933 42.316 24.44 42.8494 24.44C43.0627 24.44 43.316 24.4133 43.6094 24.36C43.9027 24.3067 44.2227 24.2267 44.5694 24.12C45.3694 23.8533 46.156 23.4267 46.9294 22.84C47.7027 22.2533 48.4094 21.6267 49.0494 20.96C49.716 20.2667 50.2227 19.6933 50.5694 19.24C50.6494 19.32 50.6894 19.4133 50.6894 19.52C50.6894 19.6533 50.596 19.8667 50.4094 20.16C49.876 20.9067 49.1827 21.68 48.3294 22.48C47.476 23.28 46.5294 23.96 45.4894 24.52C44.4494 25.0533 43.3694 25.32 42.2494 25.32ZM42.2894 19.44C42.636 19.4667 43.0227 19.4667 43.4494 19.44C43.9027 19.3867 44.3427 19.2933 44.7694 19.16C45.8627 18.84 46.6494 18.3333 47.1294 17.64C47.636 16.92 47.8894 16.28 47.8894 15.72C47.8894 15.4 47.8227 15.1333 47.6894 14.92C47.556 14.7067 47.3427 14.6 47.0494 14.6C46.276 14.6 45.5827 14.8933 44.9694 15.48C44.356 16.04 43.8227 16.6933 43.3694 17.44C42.916 18.1867 42.556 18.8533 42.2894 19.44ZM51.6103 25.36C51.2636 25.36 50.8503 25.2933 50.3703 25.16C49.8903 25.0533 49.6503 24.76 49.6503 24.28C49.6503 24.0933 49.6903 23.88 49.7703 23.64C49.8503 23.4 49.9303 23.1867 50.0103 23C50.277 22.3067 50.557 21.6 50.8503 20.88C51.1436 20.16 51.4503 19.4267 51.7703 18.68C51.4236 19.08 51.0903 19.4533 50.7703 19.8C50.477 20.12 50.2636 20.36 50.1303 20.52C50.0503 20.6267 49.9836 20.68 49.9303 20.68C49.877 20.68 49.8503 20.6133 49.8503 20.48C49.8503 20.2667 49.917 20.0667 50.0503 19.88C50.4236 19.4 50.8503 18.8933 51.3303 18.36C51.8103 17.8267 52.277 17.2667 52.7303 16.68C53.8503 14.3333 55.1036 12.0667 56.4903 9.88C57.877 7.66667 59.437 5.70667 61.1703 4C61.7036 3.49333 62.3036 2.97333 62.9703 2.44C63.637 1.90667 64.3436 1.45333 65.0903 1.08C65.8636 0.706665 66.6236 0.519998 67.3703 0.519998C67.7703 0.519998 68.1303 0.626665 68.4503 0.839999C68.797 1.05333 68.9836 1.38667 69.0103 1.84V3C69.0103 3.10667 68.9303 3.16 68.7703 3.16C68.6903 3.16 68.6503 3.13333 68.6503 3.08C68.6503 2.65333 68.4636 2.37333 68.0903 2.24C67.717 2.08 67.3436 2 66.9703 2C65.5036 2 64.1836 2.38667 63.0103 3.16C61.837 3.90667 60.797 4.89333 59.8903 6.12C58.9836 7.32 58.1703 8.65333 57.4503 10.12C56.7303 11.56 56.077 12.9867 55.4903 14.4C54.9303 15.7867 54.397 17.0267 53.8903 18.12C53.8903 18.12 53.8903 18.1467 53.8903 18.2C53.8903 18.2533 53.9036 18.28 53.9303 18.28C53.957 18.28 54.1703 18.08 54.5703 17.68C54.997 17.2533 55.517 16.76 56.1303 16.2C56.7703 15.64 57.437 15.16 58.1303 14.76C58.8236 14.3333 59.4636 14.12 60.0503 14.12C60.3436 14.12 60.5303 14.2267 60.6103 14.44C60.6903 14.6267 60.7303 14.84 60.7303 15.08V15.44C60.597 16.4267 60.2503 17.4933 59.6903 18.64C59.157 19.7867 58.4636 20.88 57.6103 21.92C56.7836 22.9333 55.8503 23.76 54.8103 24.4C53.797 25.04 52.7303 25.36 51.6103 25.36ZM52.2503 24.68C52.677 24.68 53.1303 24.52 53.6103 24.2C54.117 23.8533 54.5036 23.5467 54.7703 23.28C55.0903 22.9867 55.477 22.5333 55.9303 21.92C56.3836 21.28 56.8236 20.5867 57.2503 19.84C57.677 19.0933 58.037 18.3733 58.3303 17.68C58.6236 16.9867 58.7703 16.4267 58.7703 16C58.7703 15.8667 58.7436 15.7467 58.6903 15.64C58.637 15.5333 58.5436 15.48 58.4103 15.48C58.1703 15.48 57.8503 15.6267 57.4503 15.92C57.077 16.2133 56.6636 16.5733 56.2103 17C55.7836 17.4 55.3836 17.8 55.0103 18.2C54.6636 18.5733 54.4103 18.8533 54.2503 19.04C53.957 19.36 53.5836 19.8267 53.1303 20.44C52.677 21.0533 52.2636 21.68 51.8903 22.32C51.5436 22.9333 51.3703 23.4533 51.3703 23.88C51.3703 24.4133 51.6636 24.68 52.2503 24.68ZM60.9125 25.56C60.8058 25.56 60.8058 25.4533 60.9125 25.24C61.0458 25 61.1658 24.7333 61.2725 24.44C61.4058 24.1467 61.5392 23.8267 61.6725 23.48C61.9392 22.84 62.2325 22.12 62.5525 21.32C62.8725 20.52 63.1792 19.7467 63.4725 19C63.7658 18.2267 64.0192 17.5733 64.2325 17.04C64.4725 16.48 64.6325 16.12 64.7125 15.96C64.3392 16.36 63.8858 16.8667 63.3525 17.48C62.8458 18.0667 62.3658 18.64 61.9125 19.2C61.4592 19.76 61.1125 20.2 60.8725 20.52C60.7925 20.6267 60.7258 20.68 60.6725 20.68C60.6192 20.68 60.5925 20.6133 60.5925 20.48C60.5925 20.2667 60.6592 20.0667 60.7925 19.88C61.2992 19.24 61.8592 18.52 62.4725 17.72C63.1125 16.92 63.6858 16.1867 64.1925 15.52C64.6992 14.8267 65.0192 14.3733 65.1525 14.16C65.4458 14.1067 65.8725 14.0267 66.4325 13.92C67.0192 13.8133 67.4192 13.6667 67.6325 13.48C67.7125 13.4 67.7925 13.36 67.8725 13.36C67.9258 13.36 67.9525 13.4133 67.9525 13.52C67.9792 13.6 67.9525 13.6933 67.8725 13.8C67.7125 13.96 67.4725 14.3067 67.1525 14.84C66.8592 15.3733 66.5258 15.9867 66.1525 16.68C65.7792 17.3733 65.4192 18.04 65.0725 18.68C65.3392 18.28 65.6858 17.8133 66.1125 17.28C66.5658 16.72 67.0592 16.1867 67.5925 15.68C68.1258 15.1467 68.6592 14.7067 69.1925 14.36C69.7525 14.0133 70.2725 13.84 70.7525 13.84C71.0992 13.84 71.3925 13.92 71.6325 14.08C71.8725 14.2133 72.0592 14.4667 72.1925 14.84C72.2725 15.0267 72.3125 15.24 72.3125 15.48C72.3125 15.9333 72.1925 16.3733 71.9525 16.8C71.7392 17.2 71.5792 17.5067 71.4725 17.72C71.4458 17.8 71.3525 17.88 71.1925 17.96C71.0325 18.0133 70.9658 17.9867 70.9925 17.88C71.0192 17.7467 71.0325 17.6133 71.0325 17.48C71.0592 17.3467 71.0725 17.2 71.0725 17.04C71.0725 16.5867 70.9792 16.1733 70.7925 15.8C70.6325 15.4267 70.3258 15.24 69.8725 15.24C69.4458 15.24 68.9258 15.5067 68.3125 16.04C67.6992 16.5733 67.0858 17.1867 66.4725 17.88C65.6992 18.7867 65.0858 19.6533 64.6325 20.48C64.1792 21.28 63.8058 22.0667 63.5125 22.84C63.3525 23.2667 63.1925 23.6933 63.0325 24.12C62.8725 24.52 62.7525 24.84 62.6725 25.08C62.3258 25.1067 61.9792 25.1867 61.6325 25.32C61.2858 25.48 61.0458 25.56 60.9125 25.56ZM77.0109 25.12C76.7443 25.12 76.5176 25.0667 76.3309 24.96C76.1443 24.8533 76.0509 24.6533 76.0509 24.36C76.0509 23.9867 76.1443 23.56 76.3309 23.08C76.5176 22.6 76.7309 22.1333 76.9709 21.68C77.2109 21.2 77.4243 20.8133 77.6109 20.52C76.6776 21.5067 75.7043 22.44 74.6909 23.32C74.1843 23.7467 73.6243 24.1467 73.0109 24.52C72.3976 24.8933 71.7443 25.08 71.0509 25.08C70.7843 25.08 70.5976 25 70.4909 24.84C70.3843 24.6533 70.3309 24.44 70.3309 24.2C70.3309 24.0667 70.3443 23.9733 70.3709 23.92C70.5043 22.88 70.8376 21.8 71.3709 20.68C71.9043 19.56 72.5576 18.5067 73.3309 17.52C74.1043 16.5333 74.8909 15.7333 75.6909 15.12C76.5976 14.4267 77.5976 14.08 78.6909 14.08H83.2909C83.4243 14.08 83.4909 14.1333 83.4909 14.24C83.4909 14.4533 83.3709 14.56 83.1309 14.56C82.8643 14.56 82.5976 14.7333 82.3309 15.08C82.0643 15.4 81.8643 15.6667 81.7309 15.88C81.5443 16.1733 81.2509 16.6667 80.8509 17.36C80.4509 18.0533 80.0376 18.8133 79.6109 19.64C79.2109 20.44 78.8643 21.1867 78.5709 21.88C78.2776 22.5733 78.1309 23.08 78.1309 23.4C78.1309 23.7733 78.3176 23.96 78.6909 23.96C79.0909 23.96 79.5443 23.7733 80.0509 23.4C80.5576 23.0267 81.0643 22.5733 81.5709 22.04C82.1043 21.48 82.5843 20.9333 83.0109 20.4C83.4643 19.84 83.8243 19.4 84.0909 19.08C84.2509 19.24 84.2376 19.4667 84.0509 19.76C83.8909 20.0267 83.7443 20.24 83.6109 20.4C83.0776 21.0933 82.4643 21.8133 81.7709 22.56C81.0776 23.28 80.3176 23.8933 79.4909 24.4C78.6909 24.88 77.8643 25.12 77.0109 25.12ZM72.6909 23.72C73.0109 23.72 73.4509 23.4933 74.0109 23.04C74.5976 22.56 75.2243 21.9733 75.8909 21.28C76.5576 20.56 77.1843 19.8133 77.7709 19.04C78.3576 18.24 78.8376 17.52 79.2109 16.88C79.6109 16.2133 79.8109 15.7067 79.8109 15.36C79.8109 15.0667 79.7176 14.8667 79.5309 14.76C79.3709 14.6533 79.1576 14.6 78.8909 14.6C78.4643 14.6 77.9976 14.76 77.4909 15.08C77.0109 15.3733 76.6243 15.6667 76.3309 15.96C76.0109 16.2533 75.6243 16.72 75.1709 17.36C74.7443 17.9733 74.3176 18.6533 73.8909 19.4C73.4643 20.1467 73.1043 20.8667 72.8109 21.56C72.5176 22.2533 72.3709 22.8133 72.3709 23.24C72.3709 23.56 72.4776 23.72 72.6909 23.72ZM84.9288 25.12C84.6621 25.12 84.4354 25.0667 84.2488 24.96C84.0621 24.8533 83.9688 24.6533 83.9688 24.36C83.9688 23.9867 84.0621 23.5467 84.2488 23.04C84.4621 22.5333 84.6888 22.0267 84.9288 21.52C85.1688 21.0133 85.3688 20.6 85.5288 20.28C85.6621 20.04 85.8354 19.6667 86.0488 19.16C86.2888 18.6267 86.5288 18.08 86.7688 17.52C87.0354 16.9333 87.2488 16.44 87.4088 16.04C87.5954 15.64 87.6888 15.44 87.6888 15.44C87.4488 15.7067 87.1288 16.08 86.7288 16.56C86.3554 17.04 85.9421 17.5467 85.4888 18.08C85.0621 18.5867 84.6621 19.0667 84.2888 19.52C83.9421 19.9733 83.6888 20.3067 83.5288 20.52C83.4488 20.6267 83.3821 20.68 83.3288 20.68C83.2754 20.68 83.2488 20.6133 83.2488 20.48C83.2488 20.2667 83.3154 20.0667 83.4488 19.88C83.7688 19.48 84.1554 19 84.6087 18.44C85.0621 17.8533 85.5154 17.2667 85.9688 16.68C86.4488 16.0933 86.8621 15.5733 87.2088 15.12C86.9954 15.12 86.7154 15.1333 86.3688 15.16C86.0488 15.1867 85.7554 15.2267 85.4888 15.28C85.2221 15.3067 85.0754 15.32 85.0488 15.32C84.9154 15.32 84.9288 15.2133 85.0888 15C85.2488 14.7867 85.4621 14.5733 85.7288 14.36C85.9954 14.1467 86.1954 14.04 86.3288 14.04C86.3554 14.04 86.5688 14.0533 86.9688 14.08C87.3688 14.08 87.6621 14.08 87.8487 14.08C88.3821 13.36 88.9021 12.5333 89.4088 11.6C89.9421 10.6667 90.4621 9.64 90.9688 8.52C91.1821 8.49333 91.5421 8.34667 92.0488 8.08C92.5821 7.78667 92.9954 7.49333 93.2888 7.2C93.4221 7.06667 93.5288 7 93.6088 7C93.7688 7 93.7688 7.10667 93.6088 7.32C93.4221 7.53333 93.1021 7.98667 92.6488 8.68C92.1954 9.34667 91.6888 10.16 91.1288 11.12C90.5688 12.0533 90.0354 13.04 89.5288 14.08H92.7688C93.0621 14.08 93.2088 14.12 93.2088 14.2C93.2088 14.3067 93.0088 14.4133 92.6088 14.52C92.1554 14.6533 91.6754 14.7333 91.1688 14.76C90.6888 14.7867 90.2354 14.84 89.8088 14.92C89.4088 15 89.1154 15.1733 88.9288 15.44C88.7688 15.6267 88.5421 16.0267 88.2488 16.64C87.9554 17.2533 87.6354 17.96 87.2888 18.76C86.9688 19.5333 86.6888 20.32 86.4488 21.12C86.2088 21.8933 86.0621 22.5467 86.0088 23.08V23.24C86.0088 23.4533 86.0754 23.6267 86.2088 23.76C86.3421 23.8933 86.4754 23.96 86.6088 23.96C86.9554 23.96 87.3954 23.7467 87.9288 23.32C88.4888 22.8933 89.0621 22.3867 89.6488 21.8C90.2354 21.1867 90.7421 20.6267 91.1688 20.12C91.3554 19.9067 91.5154 19.7067 91.6488 19.52C91.8088 19.3333 91.9021 19.2133 91.9288 19.16C91.9821 19.2667 92.0088 19.3467 92.0088 19.4C92.0088 19.56 91.9554 19.7333 91.8488 19.92C91.7688 20.1067 91.6754 20.2667 91.5688 20.4C91.0621 21.0667 90.4488 21.7733 89.7288 22.52C89.0088 23.24 88.2354 23.8533 87.4088 24.36C86.6088 24.8667 85.7821 25.12 84.9288 25.12ZM93.5384 25.32C92.4451 25.32 91.6851 25.1067 91.2584 24.68C90.8318 24.2533 90.6184 23.7333 90.6184 23.12C90.6184 22.3467 90.8184 21.52 91.2184 20.64C91.6451 19.76 92.0451 19.0133 92.4184 18.4C92.8451 17.76 93.4184 17.0933 94.1384 16.4C94.8584 15.7067 95.6451 15.12 96.4984 14.64C97.3518 14.16 98.1784 13.92 98.9784 13.92C99.6718 13.92 100.152 14.0933 100.418 14.44C100.685 14.76 100.818 15.1467 100.818 15.6C100.818 16.4267 100.565 17.1067 100.058 17.64C99.5784 18.1733 98.9784 18.6133 98.2584 18.96C97.5384 19.28 96.8451 19.5467 96.1784 19.76C95.7784 19.8667 95.3118 19.9733 94.7784 20.08C94.2451 20.1867 93.7384 20.24 93.2584 20.24C93.0718 20.72 92.9251 21.1867 92.8184 21.64C92.7118 22.0933 92.6584 22.5067 92.6584 22.88C92.6584 23.3333 92.7651 23.7067 92.9784 24C93.2184 24.2933 93.6051 24.44 94.1384 24.44C94.3518 24.44 94.6051 24.4133 94.8984 24.36C95.1918 24.3067 95.5118 24.2267 95.8584 24.12C96.6584 23.8533 97.4451 23.4267 98.2184 22.84C98.9918 22.2533 99.6984 21.6267 100.338 20.96C101.005 20.2667 101.512 19.6933 101.858 19.24C101.938 19.32 101.978 19.4133 101.978 19.52C101.978 19.6533 101.885 19.8667 101.698 20.16C101.165 20.9067 100.472 21.68 99.6184 22.48C98.7651 23.28 97.8184 23.96 96.7784 24.52C95.7384 25.0533 94.6584 25.32 93.5384 25.32ZM93.5784 19.44C93.9251 19.4667 94.3118 19.4667 94.7384 19.44C95.1918 19.3867 95.6318 19.2933 96.0584 19.16C97.1518 18.84 97.9384 18.3333 98.4184 17.64C98.9251 16.92 99.1784 16.28 99.1784 15.72C99.1784 15.4 99.1118 15.1333 98.9784 14.92C98.8451 14.7067 98.6318 14.6 98.3384 14.6C97.5651 14.6 96.8718 14.8933 96.2584 15.48C95.6451 16.04 95.1118 16.6933 94.6584 17.44C94.2051 18.1867 93.8451 18.8533 93.5784 19.44ZM106.937 25.28C106.911 25.3067 106.884 25.32 106.857 25.32C106.777 25.32 106.737 25.2 106.737 24.96C106.737 24.8 106.777 24.64 106.857 24.48C106.964 24.2933 107.151 24.1867 107.417 24.16C108.164 24.1067 108.871 23.8533 109.537 23.4C110.204 22.9467 110.791 22.4133 111.297 21.8C111.804 21.16 112.164 20.56 112.377 20L116.057 10.8C116.564 9.54667 117.137 8.33333 117.777 7.16C118.444 5.98667 119.284 5.02667 120.297 4.28C121.337 3.53333 122.644 3.16 124.217 3.16C124.831 3.16 125.444 3.24 126.057 3.4C126.697 3.53333 127.231 3.76 127.657 4.08C128.084 4.4 128.297 4.85333 128.297 5.44C128.297 5.52 128.297 5.6 128.297 5.68C128.297 5.76 128.284 5.84 128.257 5.92C128.177 6.34667 127.937 6.77333 127.537 7.2C127.164 7.62667 126.871 8.16 126.657 8.8C126.631 8.98667 126.511 9.08 126.297 9.08C126.111 9.08 126.071 8.96 126.177 8.72C126.391 8.4 126.551 8.02667 126.657 7.6C126.791 7.14667 126.857 6.69333 126.857 6.24C126.857 5.54667 126.697 4.93333 126.377 4.4C126.057 3.86667 125.511 3.6 124.737 3.6C124.044 3.6 123.337 3.8 122.617 4.2C121.897 4.6 121.271 5.29333 120.737 6.28L113.337 19.92C112.644 21.2 112.004 22.12 111.417 22.68C110.857 23.2133 110.391 23.5467 110.017 23.68H119.657C120.937 23.68 122.124 23.64 123.217 23.56C124.311 23.48 124.977 23.28 125.217 22.96C125.484 22.5867 125.617 22.1867 125.617 21.76C125.617 21.0933 125.257 20.6 124.537 20.28C124.457 20.2267 124.417 20.1733 124.417 20.12C124.417 20.0667 124.444 20.0133 124.497 19.96C124.577 19.9067 124.671 19.9067 124.777 19.96C125.017 20.0667 125.297 20.3067 125.617 20.68C125.964 21.0267 126.284 21.4133 126.577 21.84C126.871 22.24 127.057 22.56 127.137 22.8C127.217 23.04 127.257 23.28 127.257 23.52C127.257 24.6133 126.311 25.16 124.417 25.16C122.924 25.16 121.324 25.1067 119.617 25C117.911 24.8933 116.217 24.7733 114.537 24.64C112.884 24.5067 111.324 24.4133 109.857 24.36C109.297 24.3067 108.737 24.3867 108.177 24.6C107.644 24.7867 107.231 25.0133 106.937 25.28ZM138.172 9.72C137.799 9.72 137.532 9.6 137.372 9.36C137.266 9.22667 137.212 9.05333 137.212 8.84C137.212 8.41333 137.412 8.06667 137.812 7.8C138.106 7.64 138.372 7.56 138.612 7.56C139.012 7.56 139.292 7.68 139.452 7.92C139.559 8.05333 139.612 8.22667 139.612 8.44C139.612 8.86667 139.399 9.21333 138.972 9.48C138.732 9.64 138.466 9.72 138.172 9.72ZM131.212 25.12C130.946 25.12 130.719 25.0667 130.532 24.96C130.372 24.8533 130.292 24.6533 130.292 24.36C130.292 23.9867 130.386 23.5467 130.572 23.04C130.786 22.5333 131.012 22.0267 131.252 21.52C131.519 21.0133 131.719 20.6 131.852 20.28C132.039 19.9067 132.266 19.4267 132.532 18.84C132.826 18.2267 133.092 17.6533 133.332 17.12C133.599 16.56 133.786 16.1733 133.892 15.96C133.519 16.36 133.066 16.8667 132.532 17.48C132.026 18.0667 131.546 18.64 131.092 19.2C130.639 19.76 130.292 20.2 130.052 20.52C129.972 20.6267 129.906 20.68 129.852 20.68C129.799 20.68 129.772 20.6133 129.772 20.48C129.772 20.2667 129.839 20.0667 129.972 19.88C130.479 19.24 131.039 18.52 131.652 17.72C132.292 16.92 132.866 16.1867 133.372 15.52C133.879 14.8267 134.199 14.3733 134.332 14.16C134.626 14.1067 135.052 14.0267 135.612 13.92C136.199 13.8133 136.599 13.6667 136.812 13.48C136.892 13.4 136.972 13.36 137.052 13.36C137.106 13.36 137.132 13.4133 137.132 13.52C137.159 13.6 137.132 13.6933 137.052 13.8C136.892 13.9867 136.612 14.44 136.212 15.16C135.812 15.88 135.386 16.68 134.932 17.56C134.506 18.4133 134.106 19.1867 133.732 19.88C133.359 20.6 133.039 21.2933 132.772 21.96C132.506 22.6267 132.372 23.1067 132.372 23.4C132.372 23.7733 132.559 23.96 132.932 23.96C133.279 23.96 133.719 23.7467 134.252 23.32C134.812 22.8933 135.372 22.3867 135.932 21.8C136.492 21.1867 136.986 20.6267 137.412 20.12C137.546 19.96 137.706 19.7733 137.892 19.56C138.106 19.32 138.239 19.1733 138.292 19.12C138.346 19.1733 138.372 19.2667 138.372 19.4C138.346 19.5867 138.279 19.7733 138.172 19.96C138.066 20.12 137.959 20.2667 137.852 20.4C137.292 21.0933 136.679 21.8133 136.012 22.56C135.346 23.28 134.612 23.8933 133.812 24.4C133.012 24.88 132.146 25.12 131.212 25.12ZM128.267 34.04C127.227 34.04 126.361 33.8667 125.667 33.52C124.947 33.2 124.467 32.7067 124.227 32.04C124.201 31.96 124.187 31.88 124.187 31.8C124.161 31.72 124.147 31.6267 124.147 31.52C124.147 31.12 124.241 30.6667 124.428 30.16C124.614 29.68 124.814 29.16 125.027 28.6C125.107 28.44 125.201 28.36 125.307 28.36C125.494 28.36 125.547 28.4933 125.467 28.76C125.281 29.16 125.187 29.5867 125.187 30.04C125.187 30.9733 125.601 31.72 126.427 32.28C127.227 32.8667 128.147 33.16 129.187 33.16C129.987 33.16 130.761 32.9733 131.507 32.6C132.761 31.96 133.787 31.08 134.587 29.96C135.387 28.84 136.094 27.7067 136.708 26.56C137.641 24.7733 138.441 22.9067 139.108 20.96C139.801 18.9867 140.534 17.04 141.308 15.12H140.388C140.254 15.12 140.108 15.1333 139.948 15.16C139.788 15.1867 139.641 15.2133 139.508 15.24L139.428 15.2C139.481 14.9067 139.734 14.6533 140.188 14.44C140.668 14.2 141.041 14.08 141.308 14.08H141.788C142.188 13.12 142.654 12.0667 143.188 10.92C143.748 9.77333 144.348 8.62667 144.988 7.48C145.628 6.30667 146.321 5.24 147.068 4.28C147.841 3.32 148.641 2.56 149.468 2C150.828 1.04 152.334 0.56 153.988 0.56C154.308 0.56 154.614 0.666666 154.908 0.879998C155.228 1.06667 155.374 1.36 155.348 1.76L155.228 3.2C155.228 3.25333 155.188 3.29333 155.108 3.32C155.028 3.34667 154.974 3.33333 154.948 3.28C154.841 2.74667 154.548 2.36 154.068 2.12C153.614 1.85333 153.081 1.72 152.468 1.72C151.481 1.72 150.574 2.04 149.748 2.68C148.948 3.32 148.081 4.50667 147.148 6.24C146.801 6.90667 146.414 7.69333 145.988 8.6C145.588 9.50667 145.188 10.44 144.788 11.4C144.388 12.36 144.001 13.2533 143.628 14.08H146.508C146.694 14.08 146.881 14.08 147.068 14.08C147.281 14.0533 147.481 14.0267 147.668 14C147.668 14.1067 147.588 14.2133 147.428 14.32C147.294 14.4 147.174 14.4667 147.068 14.52C146.401 14.8667 145.774 15.0667 145.188 15.12C144.601 15.1467 143.934 15.1467 143.188 15.12C142.601 16.5867 142.041 17.9867 141.508 19.32C141.001 20.6267 140.441 21.9067 139.828 23.16C139.321 24.28 138.694 25.4667 137.948 26.72C137.201 27.9733 136.348 29.16 135.387 30.28C134.427 31.4 133.361 32.3067 132.187 33C130.987 33.6933 129.681 34.04 128.267 34.04ZM147.093 25.32C146 25.32 145.24 25.1067 144.813 24.68C144.386 24.2533 144.173 23.7333 144.173 23.12C144.173 22.3467 144.373 21.52 144.773 20.64C145.2 19.76 145.6 19.0133 145.973 18.4C146.4 17.76 146.973 17.0933 147.693 16.4C148.413 15.7067 149.2 15.12 150.053 14.64C150.906 14.16 151.733 13.92 152.533 13.92C153.226 13.92 153.706 14.0933 153.973 14.44C154.24 14.76 154.373 15.1467 154.373 15.6C154.373 16.4267 154.12 17.1067 153.613 17.64C153.133 18.1733 152.533 18.6133 151.813 18.96C151.093 19.28 150.4 19.5467 149.733 19.76C149.333 19.8667 148.866 19.9733 148.333 20.08C147.8 20.1867 147.293 20.24 146.813 20.24C146.626 20.72 146.48 21.1867 146.373 21.64C146.266 22.0933 146.213 22.5067 146.213 22.88C146.213 23.3333 146.32 23.7067 146.533 24C146.773 24.2933 147.16 24.44 147.693 24.44C147.906 24.44 148.16 24.4133 148.453 24.36C148.746 24.3067 149.066 24.2267 149.413 24.12C150.213 23.8533 151 23.4267 151.773 22.84C152.546 22.2533 153.253 21.6267 153.893 20.96C154.56 20.2667 155.066 19.6933 155.413 19.24C155.493 19.32 155.533 19.4133 155.533 19.52C155.533 19.6533 155.44 19.8667 155.253 20.16C154.72 20.9067 154.026 21.68 153.173 22.48C152.32 23.28 151.373 23.96 150.333 24.52C149.293 25.0533 148.213 25.32 147.093 25.32ZM147.133 19.44C147.48 19.4667 147.866 19.4667 148.293 19.44C148.746 19.3867 149.186 19.2933 149.613 19.16C150.706 18.84 151.493 18.3333 151.973 17.64C152.48 16.92 152.733 16.28 152.733 15.72C152.733 15.4 152.666 15.1333 152.533 14.92C152.4 14.7067 152.186 14.6 151.893 14.6C151.12 14.6 150.426 14.8933 149.813 15.48C149.2 16.04 148.666 16.6933 148.213 17.44C147.76 18.1867 147.4 18.8533 147.133 19.44ZM154.854 28.2C154.881 28.1467 154.894 28.0933 154.894 28.04C154.921 27.9867 155.014 27.8933 155.174 27.76C155.627 27.36 155.974 26.9067 156.214 26.4C156.481 25.8933 156.614 25.5067 156.614 25.24C156.614 24.9467 156.521 24.68 156.334 24.44C156.174 24.1733 155.934 24 155.614 23.92L155.774 23.48C155.907 23.4533 156.094 23.3867 156.334 23.28C156.574 23.1467 156.747 23.04 156.854 22.96C156.987 22.88 157.107 22.7867 157.214 22.68C157.321 22.5467 157.401 22.48 157.454 22.48C158.014 22.56 158.294 22.9067 158.294 23.52C158.294 23.6267 158.281 23.7333 158.254 23.84C158.254 23.92 158.241 24.0267 158.214 24.16C158.027 25.1467 157.694 25.9333 157.214 26.52C156.734 27.1067 156.121 27.6667 155.374 28.2C154.974 28.4667 154.801 28.4667 154.854 28.2ZM174.608 25.48C173.541 25.48 172.475 25.3867 171.408 25.2C170.341 25.04 169.368 24.7333 168.488 24.28C167.635 23.8267 166.941 23.1867 166.408 22.36C165.875 21.5333 165.608 20.4667 165.608 19.16C165.608 18.0667 165.821 16.8133 166.248 15.4C166.701 13.96 167.368 12.52 168.248 11.08C169.128 9.61333 170.221 8.25333 171.528 7C172.861 5.74667 174.395 4.74667 176.128 4C177.888 3.22667 179.861 2.84 182.048 2.84C185.248 2.84 187.581 3.36 189.048 4.4C190.515 5.41333 191.248 7 191.248 9.16C191.248 11.2667 190.808 13.2933 189.928 15.24C189.075 17.1867 187.875 18.9333 186.328 20.48C184.808 22.0267 183.048 23.2533 181.048 24.16C179.048 25.04 176.901 25.48 174.608 25.48ZM174.288 24.88C175.915 24.88 177.461 24.5733 178.928 23.96C180.421 23.32 181.768 22.4667 182.968 21.4C184.195 20.3067 185.248 19.0667 186.128 17.68C187.035 16.2933 187.728 14.84 188.208 13.32C188.715 11.8 188.968 10.2933 188.968 8.8C188.968 7.14667 188.448 5.84 187.408 4.88C186.368 3.92 184.608 3.44 182.128 3.44C180.715 3.44 179.301 3.8 177.888 4.52C176.501 5.21333 175.195 6.14667 173.968 7.32C172.768 8.49333 171.688 9.78667 170.728 11.2C169.795 12.6133 169.061 14.04 168.528 15.48C167.995 16.92 167.728 18.2667 167.728 19.52C167.728 21.2 168.221 22.52 169.208 23.48C170.221 24.4133 171.915 24.88 174.288 24.88ZM190.678 25.6C190.571 25.6 190.571 25.48 190.678 25.24C190.811 25 190.931 24.7333 191.038 24.44C191.171 24.1467 191.305 23.8267 191.438 23.48C191.705 22.84 191.998 22.12 192.318 21.32C192.638 20.52 192.945 19.7467 193.238 19C193.531 18.2267 193.785 17.5733 193.998 17.04C194.238 16.48 194.398 16.12 194.478 15.96C194.105 16.36 193.651 16.8667 193.118 17.48C192.611 18.0667 192.131 18.64 191.678 19.2C191.225 19.76 190.878 20.2 190.638 20.52C190.558 20.6267 190.491 20.68 190.438 20.68C190.385 20.68 190.358 20.6133 190.358 20.48C190.358 20.2667 190.425 20.0667 190.558 19.88C191.065 19.24 191.625 18.52 192.238 17.72C192.878 16.92 193.451 16.1867 193.958 15.52C194.465 14.8267 194.785 14.3733 194.918 14.16C195.211 14.1067 195.638 14.0267 196.198 13.92C196.785 13.8133 197.185 13.6667 197.398 13.48C197.478 13.4 197.558 13.36 197.638 13.36C197.691 13.36 197.718 13.4133 197.718 13.52C197.745 13.6 197.718 13.6933 197.638 13.8C197.478 13.9867 197.198 14.4267 196.798 15.12C196.425 15.7867 196.011 16.5333 195.558 17.36C195.131 18.1867 194.731 18.9333 194.358 19.6C194.678 19.1733 195.025 18.76 195.398 18.36C195.771 17.96 196.131 17.5733 196.478 17.2C196.798 16.88 197.238 16.48 197.798 16C198.358 15.52 198.945 15.08 199.558 14.68C200.171 14.28 200.705 14.0533 201.158 14C201.265 13.9733 201.358 13.96 201.438 13.96C201.545 13.96 201.625 13.96 201.678 13.96C202.265 13.96 202.558 14.1733 202.558 14.6C202.558 14.92 202.385 15.3467 202.038 15.88C201.851 16.1733 201.558 16.6667 201.158 17.36C200.785 18.0267 200.398 18.76 199.998 19.56C199.625 20.3333 199.291 21.0667 198.998 21.76C198.731 22.4267 198.598 22.92 198.598 23.24C198.598 23.6133 198.785 23.8 199.158 23.8C199.611 23.8 200.105 23.5733 200.638 23.12C201.198 22.6667 201.798 22.0933 202.438 21.4C203.078 20.68 203.718 19.92 204.358 19.12C204.411 19.1733 204.438 19.2667 204.438 19.4C204.438 19.5867 204.371 19.7733 204.238 19.96C204.131 20.12 204.025 20.2667 203.918 20.4C203.651 20.7467 203.291 21.1867 202.838 21.72C202.411 22.2267 201.971 22.7333 201.518 23.24C201.065 23.72 200.651 24.1067 200.278 24.4C200.011 24.5867 199.665 24.7867 199.238 25C198.811 25.2133 198.385 25.32 197.958 25.32C197.478 25.32 197.145 25.2 196.958 24.96C196.771 24.6933 196.678 24.3733 196.678 24C196.678 23.5733 196.758 23.12 196.918 22.64C197.078 22.16 197.251 21.7067 197.438 21.28C197.651 20.8267 197.811 20.4933 197.918 20.28C198.398 19.3467 198.838 18.4667 199.238 17.64C199.638 16.8133 199.918 16.2267 200.078 15.88C200.158 15.72 200.198 15.5867 200.198 15.48C200.198 15.2933 200.051 15.28 199.758 15.44C199.465 15.6 199.105 15.84 198.678 16.16C198.278 16.48 197.905 16.8 197.558 17.12C197.211 17.4133 196.985 17.6133 196.878 17.72C195.891 18.76 195.025 19.92 194.278 21.2C193.558 22.4533 192.945 23.7467 192.438 25.08C192.091 25.1067 191.745 25.2 191.398 25.36C191.051 25.52 190.811 25.6 190.678 25.6ZM205.921 25.32C204.828 25.32 204.068 25.1067 203.641 24.68C203.215 24.2533 203.001 23.7333 203.001 23.12C203.001 22.3467 203.201 21.52 203.601 20.64C204.028 19.76 204.428 19.0133 204.801 18.4C205.228 17.76 205.801 17.0933 206.521 16.4C207.241 15.7067 208.028 15.12 208.881 14.64C209.735 14.16 210.561 13.92 211.361 13.92C212.055 13.92 212.535 14.0933 212.801 14.44C213.068 14.76 213.201 15.1467 213.201 15.6C213.201 16.4267 212.948 17.1067 212.441 17.64C211.961 18.1733 211.361 18.6133 210.641 18.96C209.921 19.28 209.228 19.5467 208.561 19.76C208.161 19.8667 207.695 19.9733 207.161 20.08C206.628 20.1867 206.121 20.24 205.641 20.24C205.455 20.72 205.308 21.1867 205.201 21.64C205.095 22.0933 205.041 22.5067 205.041 22.88C205.041 23.3333 205.148 23.7067 205.361 24C205.601 24.2933 205.988 24.44 206.521 24.44C206.735 24.44 206.988 24.4133 207.281 24.36C207.575 24.3067 207.895 24.2267 208.241 24.12C209.041 23.8533 209.828 23.4267 210.601 22.84C211.375 22.2533 212.081 21.6267 212.721 20.96C213.388 20.2667 213.895 19.6933 214.241 19.24C214.321 19.32 214.361 19.4133 214.361 19.52C214.361 19.6533 214.268 19.8667 214.081 20.16C213.548 20.9067 212.855 21.68 212.001 22.48C211.148 23.28 210.201 23.96 209.161 24.52C208.121 25.0533 207.041 25.32 205.921 25.32ZM205.961 19.44C206.308 19.4667 206.695 19.4667 207.121 19.44C207.575 19.3867 208.015 19.2933 208.441 19.16C209.535 18.84 210.321 18.3333 210.801 17.64C211.308 16.92 211.561 16.28 211.561 15.72C211.561 15.4 211.495 15.1333 211.361 14.92C211.228 14.7067 211.015 14.6 210.721 14.6C209.948 14.6 209.255 14.8933 208.641 15.48C208.028 16.04 207.495 16.6933 207.041 17.44C206.588 18.1867 206.228 18.8533 205.961 19.44ZM227.84 26.36C226.907 26.36 225.92 26.2133 224.88 25.92C223.867 25.6533 222.96 25.2 222.16 24.56C221.387 23.92 220.867 23.0667 220.6 22C220.573 21.8667 220.547 21.72 220.52 21.56C220.52 21.4 220.52 21.24 220.52 21.08C220.52 20.2533 220.707 19.4533 221.08 18.68C221.453 17.9067 221.907 17.32 222.44 16.92H222.48C222.533 16.92 222.6 16.9867 222.68 17.12C222.787 17.2267 222.787 17.3067 222.68 17.36C222.413 17.6267 222.213 17.9333 222.08 18.28C221.973 18.6 221.92 18.9467 221.92 19.32C221.92 19.8267 222 20.3467 222.16 20.88C222.347 21.3867 222.573 21.8267 222.84 22.2C223.507 23.1333 224.427 23.88 225.6 24.44C226.8 24.9733 227.973 25.24 229.12 25.24C230.693 25.24 231.907 24.7733 232.76 23.84C233.64 22.9067 234.08 21.76 234.08 20.4C234.08 19.5733 233.92 18.7467 233.6 17.92C233.173 16.7733 232.6 15.6533 231.88 14.56C231.187 13.44 230.547 12.3467 229.96 11.28C229.453 10.32 229.2 9.34667 229.2 8.36C229.2 7.32 229.52 6.32 230.16 5.36C230.8 4.50667 231.64 3.82667 232.68 3.32C233.747 2.78666 234.827 2.52 235.92 2.52C236.667 2.52 237.387 2.65333 238.08 2.92C238.773 3.18666 239.4 3.62666 239.96 4.24C240.12 4.48 240.2 4.78667 240.2 5.16C240.2 5.69333 240.093 6.10667 239.88 6.4C239.64 6.74667 239.373 7.2 239.08 7.76C238.787 8.32 238.613 8.70667 238.56 8.92C238.507 8.94667 238.373 9 238.16 9.08C237.973 9.13333 237.853 9.12 237.8 9.04C237.907 8.82667 238.053 8.44 238.24 7.88C238.427 7.32 238.52 6.81333 238.52 6.36C238.52 6.06667 238.507 5.74667 238.48 5.4C238.48 5.02667 238.307 4.70667 237.96 4.44C237.64 4.14667 237.227 3.89333 236.72 3.68C236.213 3.46667 235.6 3.36 234.88 3.36C233.413 3.36 232.293 3.78667 231.52 4.64C230.747 5.49333 230.36 6.42667 230.36 7.44C230.36 7.94667 230.467 8.45333 230.68 8.96C231.08 9.92 231.64 10.8267 232.36 11.68C233.08 12.5333 233.787 13.4133 234.48 14.32C235.2 15.2 235.76 16.16 236.16 17.2C236.427 17.8933 236.56 18.6 236.56 19.32C236.56 20.36 236.293 21.3067 235.76 22.16C235.253 23.0133 234.56 23.76 233.68 24.4C232.827 25.0133 231.893 25.4933 230.88 25.84C229.867 26.1867 228.853 26.36 227.84 26.36ZM240.007 25.12C239.74 25.12 239.514 25.0667 239.327 24.96C239.14 24.8533 239.047 24.6533 239.047 24.36C239.047 23.9867 239.14 23.5467 239.327 23.04C239.54 22.5333 239.767 22.0267 240.007 21.52C240.247 21.0133 240.447 20.6 240.607 20.28C240.74 20.04 240.914 19.6667 241.127 19.16C241.367 18.6267 241.607 18.08 241.847 17.52C242.114 16.9333 242.327 16.44 242.487 16.04C242.674 15.64 242.767 15.44 242.767 15.44C242.527 15.7067 242.207 16.08 241.807 16.56C241.434 17.04 241.02 17.5467 240.567 18.08C240.14 18.5867 239.74 19.0667 239.367 19.52C239.02 19.9733 238.767 20.3067 238.607 20.52C238.527 20.6267 238.46 20.68 238.407 20.68C238.354 20.68 238.327 20.6133 238.327 20.48C238.327 20.2667 238.394 20.0667 238.527 19.88C238.847 19.48 239.234 19 239.687 18.44C240.14 17.8533 240.594 17.2667 241.047 16.68C241.527 16.0933 241.94 15.5733 242.287 15.12C242.074 15.12 241.794 15.1333 241.447 15.16C241.127 15.1867 240.834 15.2267 240.567 15.28C240.3 15.3067 240.154 15.32 240.127 15.32C239.994 15.32 240.007 15.2133 240.167 15C240.327 14.7867 240.54 14.5733 240.807 14.36C241.074 14.1467 241.274 14.04 241.407 14.04C241.434 14.04 241.647 14.0533 242.047 14.08C242.447 14.08 242.74 14.08 242.927 14.08C243.46 13.36 243.98 12.5333 244.487 11.6C245.02 10.6667 245.54 9.64 246.047 8.52C246.26 8.49333 246.62 8.34667 247.127 8.08C247.66 7.78667 248.074 7.49333 248.367 7.2C248.5 7.06667 248.607 7 248.687 7C248.847 7 248.847 7.10667 248.687 7.32C248.5 7.53333 248.18 7.98667 247.727 8.68C247.274 9.34667 246.767 10.16 246.207 11.12C245.647 12.0533 245.114 13.04 244.607 14.08H247.847C248.14 14.08 248.287 14.12 248.287 14.2C248.287 14.3067 248.087 14.4133 247.687 14.52C247.234 14.6533 246.754 14.7333 246.247 14.76C245.767 14.7867 245.314 14.84 244.887 14.92C244.487 15 244.194 15.1733 244.007 15.44C243.847 15.6267 243.62 16.0267 243.327 16.64C243.034 17.2533 242.714 17.96 242.367 18.76C242.047 19.5333 241.767 20.32 241.527 21.12C241.287 21.8933 241.14 22.5467 241.087 23.08V23.24C241.087 23.4533 241.154 23.6267 241.287 23.76C241.42 23.8933 241.554 23.96 241.687 23.96C242.034 23.96 242.474 23.7467 243.007 23.32C243.567 22.8933 244.14 22.3867 244.727 21.8C245.314 21.1867 245.82 20.6267 246.247 20.12C246.434 19.9067 246.594 19.7067 246.727 19.52C246.887 19.3333 246.98 19.2133 247.007 19.16C247.06 19.2667 247.087 19.3467 247.087 19.4C247.087 19.56 247.034 19.7333 246.927 19.92C246.847 20.1067 246.754 20.2667 246.647 20.4C246.14 21.0667 245.527 21.7733 244.807 22.52C244.087 23.24 243.314 23.8533 242.487 24.36C241.687 24.8667 240.86 25.12 240.007 25.12ZM246.977 25.08C246.55 25.08 246.163 25 245.817 24.84C245.497 24.6533 245.337 24.2667 245.337 23.68C245.337 22.7467 245.577 21.8133 246.057 20.88C246.537 19.92 247.03 19.08 247.537 18.36C247.99 17.7467 248.497 17.1733 249.057 16.64C249.643 16.08 250.27 15.6 250.937 15.2C251.363 14.9333 251.937 14.6533 252.657 14.36C253.403 14.04 254.03 13.88 254.537 13.88C254.963 13.88 255.337 14 255.657 14.24C255.977 14.4533 256.137 14.8533 256.137 15.44C256.137 16.3467 255.897 17.28 255.417 18.24C254.963 19.1733 254.483 20 253.977 20.72C253.737 21.04 253.497 21.3467 253.257 21.64C253.017 21.9067 252.75 22.1867 252.457 22.48C253.443 22.48 254.35 22.2 255.177 21.64C256.003 21.0533 256.723 20.3467 257.337 19.52L257.417 19.44C257.497 19.44 257.537 19.52 257.537 19.68C257.537 19.8667 257.483 20.04 257.377 20.2C256.843 20.9467 256.177 21.6133 255.377 22.2C254.577 22.76 253.67 23.04 252.657 23.04C252.55 23.04 252.443 23.04 252.337 23.04C252.23 23.04 252.123 23.0267 252.017 23C250.523 24.3867 248.843 25.08 246.977 25.08ZM248.017 24.4C248.39 24.4 248.79 24.2667 249.217 24C249.67 23.7333 250.017 23.48 250.257 23.24C250.71 22.7867 251.123 22.3067 251.497 21.8C251.87 21.2667 252.217 20.7333 252.537 20.2C252.91 19.56 253.283 18.8 253.657 17.92C254.03 17.04 254.217 16.2133 254.217 15.44C254.217 14.8267 254.003 14.52 253.577 14.52C253.23 14.52 252.803 14.6667 252.297 14.96C251.817 15.2533 251.457 15.52 251.217 15.76C250.31 16.6933 249.55 17.7067 248.937 18.8C248.59 19.4133 248.217 20.1333 247.817 20.96C247.417 21.7867 247.217 22.5467 247.217 23.24C247.217 23.3467 247.217 23.4533 247.217 23.56C247.243 23.64 247.27 23.7333 247.297 23.84C247.403 24.2133 247.643 24.4 248.017 24.4ZM257.163 25.56C257.056 25.56 257.056 25.4533 257.163 25.24C257.296 25 257.416 24.7333 257.523 24.44C257.656 24.1467 257.789 23.8267 257.923 23.48C258.189 22.84 258.483 22.12 258.803 21.32C259.123 20.52 259.429 19.7467 259.723 19C260.016 18.2267 260.269 17.5733 260.483 17.04C260.723 16.48 260.883 16.12 260.963 15.96C260.589 16.36 260.136 16.8667 259.603 17.48C259.096 18.0667 258.616 18.64 258.163 19.2C257.709 19.76 257.363 20.2 257.123 20.52C257.043 20.6267 256.976 20.68 256.923 20.68C256.869 20.68 256.843 20.6133 256.843 20.48C256.843 20.2667 256.909 20.0667 257.043 19.88C257.549 19.24 258.109 18.52 258.723 17.72C259.363 16.92 259.936 16.1867 260.443 15.52C260.949 14.8267 261.269 14.3733 261.403 14.16C261.696 14.1067 262.123 14.0267 262.683 13.92C263.269 13.8133 263.669 13.6667 263.883 13.48C263.963 13.4 264.043 13.36 264.123 13.36C264.176 13.36 264.203 13.4133 264.203 13.52C264.229 13.6 264.203 13.6933 264.123 13.8C263.963 13.96 263.723 14.3067 263.403 14.84C263.109 15.3733 262.776 15.9867 262.403 16.68C262.029 17.3733 261.669 18.04 261.323 18.68C261.589 18.28 261.936 17.8133 262.363 17.28C262.816 16.72 263.309 16.1867 263.843 15.68C264.376 15.1467 264.909 14.7067 265.443 14.36C266.003 14.0133 266.523 13.84 267.003 13.84C267.349 13.84 267.643 13.92 267.883 14.08C268.123 14.2133 268.309 14.4667 268.443 14.84C268.523 15.0267 268.563 15.24 268.563 15.48C268.563 15.9333 268.443 16.3733 268.203 16.8C267.989 17.2 267.829 17.5067 267.723 17.72C267.696 17.8 267.603 17.88 267.443 17.96C267.283 18.0133 267.216 17.9867 267.243 17.88C267.269 17.7467 267.283 17.6133 267.283 17.48C267.309 17.3467 267.322 17.2 267.322 17.04C267.322 16.5867 267.229 16.1733 267.043 15.8C266.883 15.4267 266.576 15.24 266.122 15.24C265.696 15.24 265.176 15.5067 264.563 16.04C263.949 16.5733 263.336 17.1867 262.723 17.88C261.949 18.7867 261.336 19.6533 260.883 20.48C260.429 21.28 260.056 22.0667 259.763 22.84C259.603 23.2667 259.443 23.6933 259.283 24.12C259.123 24.52 259.003 24.84 258.923 25.08C258.576 25.1067 258.229 25.1867 257.883 25.32C257.536 25.48 257.296 25.56 257.163 25.56ZM263.701 39C262.688 39 261.714 38.76 260.781 38.28C259.821 37.8267 259.114 37.12 258.661 36.16C258.501 35.8133 258.394 35.44 258.341 35.04C258.288 34.6667 258.261 34.2933 258.261 33.92V33.48C258.261 33.2667 258.288 33.0667 258.341 32.88C258.394 32.72 258.528 32.64 258.741 32.64C258.794 32.64 258.821 32.6667 258.821 32.72C258.821 32.88 258.808 33.04 258.781 33.2C258.754 33.36 258.741 33.5333 258.741 33.72C258.741 34.9467 259.141 35.88 259.941 36.52C260.714 37.16 261.688 37.48 262.861 37.48C263.341 37.48 263.834 37.4267 264.341 37.32C264.848 37.2133 265.328 37.0667 265.781 36.88C267.461 36.16 268.914 35.1333 270.141 33.8C271.394 32.4933 272.488 31.0133 273.421 29.36C274.354 27.7067 275.194 26.0267 275.941 24.32C276.368 23.3067 276.741 22.32 277.061 21.36C277.408 20.4 277.714 19.5333 277.981 18.76C277.714 19.1333 277.368 19.5867 276.941 20.12C276.514 20.6533 276.088 21.1733 275.661 21.68C275.234 22.16 274.861 22.5467 274.541 22.84C273.874 23.48 273.154 24.0267 272.381 24.48C271.634 24.9067 270.861 25.12 270.061 25.12C269.794 25.12 269.568 25.0667 269.381 24.96C269.194 24.8533 269.101 24.6533 269.101 24.36C269.101 23.9867 269.194 23.5467 269.381 23.04C269.594 22.5333 269.821 22.0267 270.061 21.52C270.301 21.0133 270.501 20.6 270.661 20.28C270.981 19.6667 271.288 19.0533 271.581 18.44C271.874 17.8267 272.128 17.3067 272.341 16.88C272.554 16.48 272.661 16.2133 272.661 16.08C272.661 15.8667 272.501 15.8667 272.181 16.08C271.888 16.2933 271.608 16.5067 271.341 16.72C270.754 17.28 270.141 17.9467 269.501 18.72C268.861 19.4667 268.368 20.0667 268.021 20.52C267.941 20.6267 267.874 20.68 267.821 20.68C267.768 20.68 267.741 20.6133 267.741 20.48C267.741 20.2667 267.808 20.0667 267.941 19.88C268.314 19.3467 268.754 18.76 269.261 18.12C269.768 17.48 270.288 16.8667 270.821 16.28C271.328 15.7467 271.848 15.2267 272.381 14.72C272.914 14.2133 273.594 13.96 274.421 13.96C274.981 13.96 275.261 14.1733 275.261 14.6C275.261 14.9733 275.101 15.4 274.781 15.88C274.594 16.1733 274.301 16.6667 273.901 17.36C273.501 18.0533 273.088 18.8133 272.661 19.64C272.261 20.44 271.914 21.1867 271.621 21.88C271.328 22.5733 271.181 23.08 271.181 23.4C271.181 23.7733 271.368 23.96 271.741 23.96C272.034 23.96 272.394 23.8133 272.821 23.52C273.248 23.2 273.688 22.8267 274.141 22.4C274.914 21.6533 275.621 20.8267 276.261 19.92C276.928 19.0133 277.501 18.1467 277.981 17.32C278.061 17.1867 278.194 16.9467 278.381 16.6C278.594 16.2533 278.808 15.92 279.021 15.6C279.261 15.28 279.448 15.0933 279.581 15.04C279.714 14.9867 279.981 14.84 280.381 14.6C280.781 14.36 281.181 14.2 281.581 14.12C281.954 14.04 282.234 14 282.421 14C282.714 14 282.861 14.08 282.861 14.24C282.861 14.4533 282.741 14.56 282.501 14.56C282.208 14.56 281.941 14.64 281.701 14.8C281.461 14.9333 281.274 15.1067 281.141 15.32C280.901 15.6667 280.554 16.2933 280.101 17.2C279.674 18.1067 279.194 19.16 278.661 20.36C278.154 21.5333 277.648 22.7333 277.141 23.96C276.634 25.16 276.168 26.2667 275.741 27.28C275.101 28.8 274.368 30.28 273.541 31.72C272.714 33.1867 271.741 34.4933 270.621 35.64C269.528 36.8133 268.221 37.7333 266.701 38.4C265.794 38.8 264.794 39 263.701 39ZM293.769 25.12C293.502 25.12 293.275 25.0667 293.089 24.96C292.902 24.8533 292.809 24.6533 292.809 24.36C292.809 23.9867 292.902 23.56 293.089 23.08C293.275 22.6 293.489 22.1333 293.729 21.68C293.969 21.2 294.182 20.8133 294.369 20.52C293.435 21.5067 292.462 22.44 291.449 23.32C290.942 23.7467 290.382 24.1467 289.769 24.52C289.155 24.8933 288.502 25.08 287.809 25.08C287.542 25.08 287.355 25 287.249 24.84C287.142 24.6533 287.089 24.44 287.089 24.2C287.089 24.0667 287.102 23.9733 287.129 23.92C287.262 22.88 287.595 21.8 288.129 20.68C288.662 19.56 289.315 18.5067 290.089 17.52C290.862 16.5333 291.649 15.7333 292.449 15.12C293.355 14.4267 294.355 14.08 295.449 14.08H300.049C300.182 14.08 300.249 14.1333 300.249 14.24C300.249 14.4533 300.129 14.56 299.889 14.56C299.622 14.56 299.355 14.7333 299.089 15.08C298.822 15.4 298.622 15.6667 298.489 15.88C298.302 16.1733 298.009 16.6667 297.609 17.36C297.209 18.0533 296.795 18.8133 296.369 19.64C295.969 20.44 295.622 21.1867 295.329 21.88C295.035 22.5733 294.889 23.08 294.889 23.4C294.889 23.7733 295.075 23.96 295.449 23.96C295.849 23.96 296.302 23.7733 296.809 23.4C297.315 23.0267 297.822 22.5733 298.329 22.04C298.862 21.48 299.342 20.9333 299.769 20.4C300.222 19.84 300.582 19.4 300.849 19.08C301.009 19.24 300.995 19.4667 300.809 19.76C300.649 20.0267 300.502 20.24 300.369 20.4C299.835 21.0933 299.222 21.8133 298.529 22.56C297.835 23.28 297.075 23.8933 296.249 24.4C295.449 24.88 294.622 25.12 293.769 25.12ZM289.449 23.72C289.769 23.72 290.209 23.4933 290.769 23.04C291.355 22.56 291.982 21.9733 292.649 21.28C293.315 20.56 293.942 19.8133 294.529 19.04C295.115 18.24 295.595 17.52 295.969 16.88C296.369 16.2133 296.569 15.7067 296.569 15.36C296.569 15.0667 296.475 14.8667 296.289 14.76C296.129 14.6533 295.915 14.6 295.649 14.6C295.222 14.6 294.755 14.76 294.249 15.08C293.769 15.3733 293.382 15.6667 293.089 15.96C292.769 16.2533 292.382 16.72 291.929 17.36C291.502 17.9733 291.075 18.6533 290.649 19.4C290.222 20.1467 289.862 20.8667 289.569 21.56C289.275 22.2533 289.129 22.8133 289.129 23.24C289.129 23.56 289.235 23.72 289.449 23.72ZM301.687 25.12C301.42 25.12 301.193 25.0667 301.007 24.96C300.82 24.8533 300.727 24.6533 300.727 24.36C300.727 23.9867 300.82 23.5467 301.007 23.04C301.22 22.5333 301.447 22.0267 301.687 21.52C301.927 21.0133 302.127 20.6 302.287 20.28C302.42 20.04 302.593 19.6667 302.807 19.16C303.047 18.6267 303.287 18.08 303.527 17.52C303.793 16.9333 304.007 16.44 304.167 16.04C304.353 15.64 304.447 15.44 304.447 15.44C304.207 15.7067 303.887 16.08 303.487 16.56C303.113 17.04 302.7 17.5467 302.247 18.08C301.82 18.5867 301.42 19.0667 301.047 19.52C300.7 19.9733 300.447 20.3067 300.287 20.52C300.207 20.6267 300.14 20.68 300.087 20.68C300.033 20.68 300.007 20.6133 300.007 20.48C300.007 20.2667 300.073 20.0667 300.207 19.88C300.527 19.48 300.913 19 301.367 18.44C301.82 17.8533 302.273 17.2667 302.727 16.68C303.207 16.0933 303.62 15.5733 303.967 15.12C303.753 15.12 303.473 15.1333 303.127 15.16C302.807 15.1867 302.513 15.2267 302.247 15.28C301.98 15.3067 301.833 15.32 301.807 15.32C301.673 15.32 301.687 15.2133 301.847 15C302.007 14.7867 302.22 14.5733 302.487 14.36C302.753 14.1467 302.953 14.04 303.087 14.04C303.113 14.04 303.327 14.0533 303.727 14.08C304.127 14.08 304.42 14.08 304.607 14.08C305.14 13.36 305.66 12.5333 306.167 11.6C306.7 10.6667 307.22 9.64 307.727 8.52C307.94 8.49333 308.3 8.34667 308.807 8.08C309.34 7.78667 309.753 7.49333 310.047 7.2C310.18 7.06667 310.287 7 310.367 7C310.527 7 310.527 7.10667 310.367 7.32C310.18 7.53333 309.86 7.98667 309.407 8.68C308.953 9.34667 308.447 10.16 307.887 11.12C307.327 12.0533 306.793 13.04 306.287 14.08H309.527C309.82 14.08 309.967 14.12 309.967 14.2C309.967 14.3067 309.767 14.4133 309.367 14.52C308.913 14.6533 308.433 14.7333 307.927 14.76C307.447 14.7867 306.993 14.84 306.567 14.92C306.167 15 305.873 15.1733 305.687 15.44C305.527 15.6267 305.3 16.0267 305.007 16.64C304.713 17.2533 304.393 17.96 304.047 18.76C303.727 19.5333 303.447 20.32 303.207 21.12C302.967 21.8933 302.82 22.5467 302.767 23.08V23.24C302.767 23.4533 302.833 23.6267 302.967 23.76C303.1 23.8933 303.233 23.96 303.367 23.96C303.713 23.96 304.153 23.7467 304.687 23.32C305.247 22.8933 305.82 22.3867 306.407 21.8C306.993 21.1867 307.5 20.6267 307.927 20.12C308.113 19.9067 308.273 19.7067 308.407 19.52C308.567 19.3333 308.66 19.2133 308.687 19.16C308.74 19.2667 308.767 19.3467 308.767 19.4C308.767 19.56 308.713 19.7333 308.607 19.92C308.527 20.1067 308.433 20.2667 308.327 20.4C307.82 21.0667 307.207 21.7733 306.487 22.52C305.767 23.24 304.993 23.8533 304.167 24.36C303.367 24.8667 302.54 25.12 301.687 25.12ZM320.214 25.12C319.947 25.12 319.721 25.0667 319.534 24.96C319.347 24.8533 319.254 24.6533 319.254 24.36C319.254 23.9867 319.347 23.56 319.534 23.08C319.721 22.6 319.934 22.1333 320.174 21.68C320.414 21.2 320.627 20.8133 320.814 20.52C319.881 21.5067 318.907 22.44 317.894 23.32C317.387 23.7467 316.827 24.1467 316.214 24.52C315.601 24.8933 314.947 25.08 314.254 25.08C313.987 25.08 313.801 25 313.694 24.84C313.587 24.6533 313.534 24.44 313.534 24.2C313.534 24.0667 313.547 23.9733 313.574 23.92C313.707 22.88 314.041 21.8 314.574 20.68C315.107 19.56 315.761 18.5067 316.534 17.52C317.307 16.5333 318.094 15.7333 318.894 15.12C319.801 14.4267 320.801 14.08 321.894 14.08H326.494C326.627 14.08 326.694 14.1333 326.694 14.24C326.694 14.4533 326.574 14.56 326.334 14.56C326.067 14.56 325.801 14.7333 325.534 15.08C325.267 15.4 325.067 15.6667 324.934 15.88C324.747 16.1733 324.454 16.6667 324.054 17.36C323.654 18.0533 323.241 18.8133 322.814 19.64C322.414 20.44 322.067 21.1867 321.774 21.88C321.481 22.5733 321.334 23.08 321.334 23.4C321.334 23.7733 321.521 23.96 321.894 23.96C322.294 23.96 322.747 23.7733 323.254 23.4C323.761 23.0267 324.267 22.5733 324.774 22.04C325.307 21.48 325.787 20.9333 326.214 20.4C326.667 19.84 327.027 19.4 327.294 19.08C327.454 19.24 327.441 19.4667 327.254 19.76C327.094 20.0267 326.947 20.24 326.814 20.4C326.281 21.0933 325.667 21.8133 324.974 22.56C324.281 23.28 323.521 23.8933 322.694 24.4C321.894 24.88 321.067 25.12 320.214 25.12ZM315.894 23.72C316.214 23.72 316.654 23.4933 317.214 23.04C317.801 22.56 318.427 21.9733 319.094 21.28C319.761 20.56 320.387 19.8133 320.974 19.04C321.561 18.24 322.041 17.52 322.414 16.88C322.814 16.2133 323.014 15.7067 323.014 15.36C323.014 15.0667 322.921 14.8667 322.734 14.76C322.574 14.6533 322.361 14.6 322.094 14.6C321.667 14.6 321.201 14.76 320.694 15.08C320.214 15.3733 319.827 15.6667 319.534 15.96C319.214 16.2533 318.827 16.72 318.374 17.36C317.947 17.9733 317.521 18.6533 317.094 19.4C316.667 20.1467 316.307 20.8667 316.014 21.56C315.721 22.2533 315.574 22.8133 315.574 23.24C315.574 23.56 315.681 23.72 315.894 23.72ZM337.85 26.56C337.023 26.56 336.236 26.32 335.49 25.84C334.743 25.3867 334.183 24.68 333.81 23.72C333.676 23.3733 333.583 23 333.53 22.6C333.476 22.2 333.45 21.8267 333.45 21.48V21.12C333.45 20.9067 333.463 20.6933 333.49 20.48C333.543 20.2667 333.663 20.16 333.85 20.16C333.903 20.16 333.93 20.1867 333.93 20.24C333.93 20.4 333.916 20.5733 333.89 20.76C333.89 20.92 333.89 21.08 333.89 21.24C333.89 22.4933 334.196 23.44 334.81 24.08C335.45 24.72 336.236 25.04 337.17 25.04C338.103 25.04 339.01 24.7733 339.89 24.24C340.77 23.7067 341.583 23.0267 342.33 22.2C343.076 21.3733 343.783 20.3467 344.45 19.12C345.116 17.8933 345.743 16.6 346.33 15.24C346.916 13.8533 347.463 12.4933 347.97 11.16C348.503 9.82667 348.996 8.64 349.45 7.6C349.716 6.98667 350.21 6.46667 350.93 6.04C351.676 5.61333 352.383 5.30667 353.05 5.12C352.863 5.09333 352.676 5.08 352.49 5.08C352.33 5.05333 352.17 5.02667 352.01 5L346.37 4.44C345.943 4.38667 345.383 4.34667 344.69 4.32C343.996 4.29333 343.263 4.28 342.49 4.28C341.45 4.28 340.383 4.34667 339.29 4.48C338.196 4.58667 337.21 4.78667 336.33 5.08C335.45 5.37333 334.81 5.81333 334.41 6.4C334.196 6.72 334.09 7.09333 334.09 7.52C334.09 7.94667 334.21 8.34667 334.45 8.72C334.69 9.09333 334.996 9.38667 335.37 9.6C335.423 9.65333 335.45 9.69333 335.45 9.72C335.45 9.8 335.383 9.86667 335.25 9.92C335.143 9.97333 335.023 9.97333 334.89 9.92C334.65 9.78667 334.37 9.56 334.05 9.24C333.73 8.92 333.436 8.58667 333.17 8.24C332.93 7.86667 332.756 7.56 332.65 7.32C332.49 6.86667 332.41 6.46667 332.41 6.12C332.41 5.48 332.623 4.96 333.05 4.56C333.503 4.13333 334.076 3.81333 334.77 3.6C335.49 3.36 336.25 3.2 337.05 3.12C337.876 3.01333 338.663 2.96 339.41 2.96C339.703 2.96 339.983 2.96 340.25 2.96C340.516 2.96 340.77 2.97333 341.01 3C341.863 3.05333 342.756 3.10667 343.69 3.16C344.623 3.21333 345.57 3.28 346.53 3.36L352.89 3.88C353.316 3.90667 353.956 3.96 354.81 4.04C355.69 4.09333 356.583 4.12 357.49 4.12C358.476 4.12 359.383 4.06667 360.21 3.96C361.036 3.82667 361.583 3.6 361.85 3.28C361.903 3.17333 361.983 3.14667 362.09 3.2C362.196 3.25333 362.223 3.32 362.17 3.4C362.09 3.72 361.983 3.96 361.85 4.12C361.716 4.38667 361.53 4.68 361.29 5C361.076 5.32 360.743 5.53333 360.29 5.64C360.183 5.66667 360.036 5.69333 359.85 5.72C359.663 5.72 359.463 5.72 359.25 5.72C358.636 5.72 357.89 5.68 357.01 5.6C356.156 5.49333 355.316 5.38667 354.49 5.28C353.69 5.41333 352.996 5.78667 352.41 6.4C351.823 7.01333 351.316 7.72 350.89 8.52C350.463 9.29333 350.09 10.0267 349.77 10.72C349.183 11.92 348.69 13.0267 348.29 14.04C347.916 15.0267 347.45 16.12 346.89 17.32C346.33 18.5467 345.743 19.76 345.13 20.96C344.516 22.1333 343.77 23.2 342.89 24.16C342.223 24.88 341.45 25.4533 340.57 25.88C339.69 26.3333 338.783 26.56 337.85 26.56ZM358.875 9.72C358.502 9.72 358.235 9.6 358.075 9.36C357.969 9.22667 357.915 9.05333 357.915 8.84C357.915 8.41333 358.115 8.06667 358.515 7.8C358.809 7.64 359.075 7.56 359.315 7.56C359.715 7.56 359.995 7.68 360.155 7.92C360.262 8.05333 360.315 8.22667 360.315 8.44C360.315 8.86667 360.102 9.21333 359.675 9.48C359.435 9.64 359.169 9.72 358.875 9.72ZM351.915 25.12C351.649 25.12 351.422 25.0667 351.235 24.96C351.075 24.8533 350.995 24.6533 350.995 24.36C350.995 23.9867 351.089 23.5467 351.275 23.04C351.489 22.5333 351.715 22.0267 351.955 21.52C352.222 21.0133 352.422 20.6 352.555 20.28C352.742 19.9067 352.969 19.4267 353.235 18.84C353.529 18.2267 353.795 17.6533 354.035 17.12C354.302 16.56 354.489 16.1733 354.595 15.96C354.222 16.36 353.769 16.8667 353.235 17.48C352.729 18.0667 352.249 18.64 351.795 19.2C351.342 19.76 350.995 20.2 350.755 20.52C350.675 20.6267 350.609 20.68 350.555 20.68C350.502 20.68 350.475 20.6133 350.475 20.48C350.475 20.2667 350.542 20.0667 350.675 19.88C351.182 19.24 351.742 18.52 352.355 17.72C352.995 16.92 353.569 16.1867 354.075 15.52C354.582 14.8267 354.902 14.3733 355.035 14.16C355.329 14.1067 355.755 14.0267 356.315 13.92C356.902 13.8133 357.302 13.6667 357.515 13.48C357.595 13.4 357.675 13.36 357.755 13.36C357.809 13.36 357.835 13.4133 357.835 13.52C357.862 13.6 357.835 13.6933 357.755 13.8C357.595 13.9867 357.315 14.44 356.915 15.16C356.515 15.88 356.089 16.68 355.635 17.56C355.209 18.4133 354.809 19.1867 354.435 19.88C354.062 20.6 353.742 21.2933 353.475 21.96C353.209 22.6267 353.075 23.1067 353.075 23.4C353.075 23.7733 353.262 23.96 353.635 23.96C353.982 23.96 354.422 23.7467 354.955 23.32C355.515 22.8933 356.075 22.3867 356.635 21.8C357.195 21.1867 357.689 20.6267 358.115 20.12C358.249 19.96 358.409 19.7733 358.595 19.56C358.809 19.32 358.942 19.1733 358.995 19.12C359.049 19.1733 359.075 19.2667 359.075 19.4C359.049 19.5867 358.982 19.7733 358.875 19.96C358.769 20.12 358.662 20.2667 358.555 20.4C357.995 21.0933 357.382 21.8133 356.715 22.56C356.049 23.28 355.315 23.8933 354.515 24.4C353.715 24.88 352.849 25.12 351.915 25.12ZM358.491 25.6C358.384 25.6 358.384 25.48 358.491 25.24C358.624 25 358.744 24.7333 358.851 24.44C358.984 24.1467 359.117 23.8267 359.251 23.48C359.517 22.84 359.811 22.12 360.131 21.32C360.451 20.52 360.757 19.7467 361.051 19C361.344 18.2267 361.597 17.5733 361.811 17.04C362.051 16.48 362.211 16.12 362.291 15.96C361.917 16.36 361.464 16.8667 360.931 17.48C360.424 18.0667 359.944 18.64 359.491 19.2C359.037 19.76 358.691 20.2 358.451 20.52C358.371 20.6267 358.304 20.68 358.251 20.68C358.197 20.68 358.171 20.6133 358.171 20.48C358.171 20.2667 358.237 20.0667 358.371 19.88C358.877 19.24 359.437 18.52 360.051 17.72C360.691 16.92 361.264 16.1867 361.771 15.52C362.277 14.8267 362.597 14.3733 362.731 14.16C363.024 14.1067 363.451 14.0267 364.011 13.92C364.597 13.8133 364.997 13.6667 365.211 13.48C365.291 13.4 365.371 13.36 365.451 13.36C365.504 13.36 365.531 13.4133 365.531 13.52C365.557 13.6 365.531 13.6933 365.451 13.8C365.291 13.9867 365.011 14.4267 364.611 15.12C364.237 15.7867 363.824 16.5333 363.371 17.36C362.944 18.1867 362.544 18.9333 362.171 19.6C362.597 19.0933 363.011 18.6133 363.411 18.16C363.837 17.7067 364.131 17.3867 364.291 17.2C364.611 16.88 365.051 16.48 365.611 16C366.171 15.52 366.757 15.08 367.371 14.68C367.984 14.28 368.517 14.0533 368.971 14C369.077 13.9733 369.171 13.96 369.251 13.96C369.331 13.96 369.411 13.96 369.491 13.96C369.997 13.96 370.251 14.1467 370.251 14.52C370.251 14.68 370.211 14.8667 370.131 15.08C370.051 15.2933 369.944 15.5067 369.811 15.72C369.651 16.04 369.384 16.5467 369.011 17.24C368.637 17.9067 368.304 18.52 368.011 19.08L369.891 17.2C370.211 16.88 370.651 16.48 371.211 16C371.771 15.52 372.357 15.08 372.971 14.68C373.584 14.28 374.117 14.0533 374.571 14C374.677 13.9733 374.771 13.96 374.851 13.96C374.957 13.96 375.037 13.96 375.091 13.96C375.677 13.96 375.971 14.1733 375.971 14.6C375.971 14.92 375.797 15.3467 375.451 15.88C375.264 16.1733 374.971 16.6667 374.571 17.36C374.171 18.0533 373.757 18.8133 373.331 19.64C372.931 20.44 372.584 21.1867 372.291 21.88C371.997 22.5733 371.851 23.08 371.851 23.4C371.851 23.7733 372.037 23.96 372.411 23.96C372.757 23.96 373.197 23.76 373.731 23.36C374.291 22.9333 374.851 22.4267 375.411 21.84C375.997 21.2533 376.504 20.6933 376.931 20.16C377.117 19.9467 377.291 19.7333 377.451 19.52C377.637 19.28 377.744 19.1467 377.771 19.12C377.824 19.1733 377.851 19.2667 377.851 19.4C377.851 19.5867 377.784 19.7733 377.651 19.96C377.544 20.12 377.437 20.2667 377.331 20.4C376.824 21.0667 376.237 21.76 375.571 22.48C374.931 23.2 374.224 23.8133 373.451 24.32C372.677 24.8 371.851 25.08 370.971 25.16C370.704 25.1867 370.437 25.1333 370.171 25C369.904 24.8667 369.771 24.6533 369.771 24.36C369.771 23.9867 369.864 23.5467 370.051 23.04C370.264 22.5333 370.491 22.0267 370.731 21.52C370.997 21.0133 371.197 20.6 371.331 20.28C371.811 19.3467 372.251 18.4667 372.651 17.64C373.051 16.8133 373.331 16.2267 373.491 15.88C373.571 15.72 373.611 15.5867 373.611 15.48C373.611 15.2933 373.464 15.28 373.171 15.44C372.877 15.6 372.517 15.84 372.091 16.16C371.691 16.48 371.317 16.8 370.971 17.12C370.624 17.4133 370.397 17.6133 370.291 17.72C369.837 18.1733 369.291 18.7867 368.651 19.56C368.037 20.3333 367.464 21.1467 366.931 22C366.397 22.8267 366.024 23.6 365.811 24.32C365.544 24.56 365.291 24.68 365.051 24.68C364.864 24.68 364.704 24.6133 364.571 24.48C364.464 24.3467 364.411 24.1867 364.411 24C364.411 23.4667 364.571 22.84 364.891 22.12C365.237 21.3733 365.517 20.76 365.731 20.28C366.211 19.3467 366.651 18.4667 367.051 17.64C367.451 16.8133 367.731 16.2267 367.891 15.88C367.971 15.72 368.011 15.5867 368.011 15.48C368.011 15.2933 367.864 15.28 367.571 15.44C367.277 15.6 366.917 15.84 366.491 16.16C366.091 16.48 365.717 16.8 365.371 17.12C365.024 17.4133 364.797 17.6133 364.691 17.72C364.051 18.3867 363.451 19.0667 362.891 19.76C362.357 20.4533 361.904 21.2 361.531 22C361.317 22.48 361.091 23.0133 360.851 23.6C360.611 24.1867 360.411 24.68 360.251 25.08C359.904 25.1067 359.557 25.2 359.211 25.36C358.864 25.52 358.624 25.6 358.491 25.6ZM379.32 25.32C378.226 25.32 377.466 25.1067 377.04 24.68C376.613 24.2533 376.4 23.7333 376.4 23.12C376.4 22.3467 376.6 21.52 377 20.64C377.426 19.76 377.826 19.0133 378.2 18.4C378.626 17.76 379.2 17.0933 379.92 16.4C380.64 15.7067 381.426 15.12 382.28 14.64C383.133 14.16 383.96 13.92 384.76 13.92C385.453 13.92 385.933 14.0933 386.2 14.44C386.466 14.76 386.6 15.1467 386.6 15.6C386.6 16.4267 386.346 17.1067 385.84 17.64C385.36 18.1733 384.76 18.6133 384.04 18.96C383.32 19.28 382.626 19.5467 381.96 19.76C381.56 19.8667 381.093 19.9733 380.56 20.08C380.026 20.1867 379.52 20.24 379.04 20.24C378.853 20.72 378.706 21.1867 378.6 21.64C378.493 22.0933 378.44 22.5067 378.44 22.88C378.44 23.3333 378.546 23.7067 378.76 24C379 24.2933 379.386 24.44 379.92 24.44C380.133 24.44 380.386 24.4133 380.68 24.36C380.973 24.3067 381.293 24.2267 381.64 24.12C382.44 23.8533 383.226 23.4267 384 22.84C384.773 22.2533 385.48 21.6267 386.12 20.96C386.786 20.2667 387.293 19.6933 387.64 19.24C387.72 19.32 387.76 19.4133 387.76 19.52C387.76 19.6533 387.666 19.8667 387.48 20.16C386.946 20.9067 386.253 21.68 385.4 22.48C384.546 23.28 383.6 23.96 382.56 24.52C381.52 25.0533 380.44 25.32 379.32 25.32ZM379.36 19.44C379.706 19.4667 380.093 19.4667 380.52 19.44C380.973 19.3867 381.413 19.2933 381.84 19.16C382.933 18.84 383.72 18.3333 384.2 17.64C384.706 16.92 384.96 16.28 384.96 15.72C384.96 15.4 384.893 15.1333 384.76 14.92C384.626 14.7067 384.413 14.6 384.12 14.6C383.346 14.6 382.653 14.8933 382.04 15.48C381.426 16.04 380.893 16.6933 380.44 17.44C379.986 18.1867 379.626 18.8533 379.36 19.44Z" fill="white"/>
</svg>
