<svg width="44" height="44" viewBox="0 0 44 44" fill="none" xmlns="http://www.w3.org/2000/svg">
<rect x="0.5" y="0.5" width="43" height="43" rx="21.5" fill="white"/>
<rect x="0.5" y="0.5" width="43" height="43" rx="21.5" stroke="#22544E"/>
<path d="M21.9993 25.5415C19.816 25.5415 18.041 23.7665 18.041 21.5832V16.9998C18.041 14.8165 19.816 13.0415 21.9993 13.0415C24.1827 13.0415 25.9577 14.8165 25.9577 16.9998V21.5832C25.9577 23.7665 24.1827 25.5415 21.9993 25.5415ZM21.9993 14.2915C20.5077 14.2915 19.291 15.5082 19.291 16.9998V21.5832C19.291 23.0748 20.5077 24.2915 21.9993 24.2915C23.491 24.2915 24.7077 23.0748 24.7077 21.5832V16.9998C24.7077 15.5082 23.491 14.2915 21.9993 14.2915Z" fill="#22544E"/>
<path d="M22 28.4582C18.1417 28.4582 15 25.3165 15 21.4582V20.0415C15 19.6998 15.2833 19.4165 15.625 19.4165C15.9667 19.4165 16.25 19.6998 16.25 20.0415V21.4582C16.25 24.6248 18.8333 27.2082 22 27.2082C25.1667 27.2082 27.75 24.6248 27.75 21.4582V20.0415C27.75 19.6998 28.0333 19.4165 28.375 19.4165C28.7167 19.4165 29 19.6998 29 20.0415V21.4582C29 25.3165 25.8583 28.4582 22 28.4582Z" fill="#22544E"/>
<path d="M23.1579 17.9834C23.0912 17.9834 23.0162 17.9751 22.9412 17.9501C22.3329 17.7251 21.6662 17.7251 21.0579 17.9501C20.7329 18.0668 20.3746 17.9001 20.2579 17.5751C20.1412 17.2501 20.3079 16.8918 20.6329 16.7751C21.5162 16.4584 22.4912 16.4584 23.3746 16.7751C23.6996 16.8918 23.8662 17.2501 23.7496 17.5751C23.6496 17.8251 23.4079 17.9834 23.1579 17.9834Z" fill="#22544E"/>
<path d="M22.6671 19.7501C22.6087 19.7501 22.5587 19.7418 22.5004 19.7251C22.1671 19.6334 21.8254 19.6334 21.4921 19.7251C21.1587 19.8168 20.8171 19.6168 20.7254 19.2834C20.6337 18.9584 20.8337 18.6168 21.1671 18.5251C21.7087 18.3751 22.2921 18.3751 22.8337 18.5251C23.1671 18.6168 23.3671 18.9584 23.2754 19.2918C23.2004 19.5668 22.9421 19.7501 22.6671 19.7501Z" fill="#22544E"/>
<path d="M22 30.9585C21.6583 30.9585 21.375 30.6752 21.375 30.3335V27.8335C21.375 27.4918 21.6583 27.2085 22 27.2085C22.3417 27.2085 22.625 27.4918 22.625 27.8335V30.3335C22.625 30.6752 22.3417 30.9585 22 30.9585Z" fill="#22544E"/>
</svg>
